G04 Layer_Physical_Order=2*
G04 Layer_Color=36540*
%FSTAX24Y24*%
%MOIN*%
G70*
G01*
G75*
%ADD15C,0.0100*%
%ADD16C,0.0120*%
%ADD19C,0.0236*%
%ADD22C,0.0200*%
G36*
X036211Y018991D02*
X036174Y018953D01*
X036034Y018795D01*
X036025Y01878D01*
X036019Y018768D01*
X036018Y018759D01*
X035909Y018868D01*
X035918Y018869D01*
X03593Y018875D01*
X035945Y018884D01*
X035963Y018897D01*
X036009Y018936D01*
X036103Y019024D01*
X036141Y019061D01*
X036211Y018991D01*
D02*
G37*
G36*
X03295Y025687D02*
X032963Y025476D01*
X032967Y025459D01*
X032972Y025447D01*
X032977Y02544D01*
X032823D01*
X032828Y025447D01*
X032833Y025459D01*
X032837Y025476D01*
X03284Y025499D01*
X032846Y025559D01*
X03285Y025687D01*
X03285Y02574D01*
X03295D01*
X03295Y025687D01*
D02*
G37*
G36*
X05106Y019073D02*
X051053Y019078D01*
X051041Y019083D01*
X051024Y019087D01*
X051001Y01909D01*
X050941Y019096D01*
X050813Y0191D01*
X05076Y0191D01*
Y0192D01*
X050813Y0192D01*
X051024Y019213D01*
X051041Y019217D01*
X051053Y019222D01*
X05106Y019227D01*
Y019073D01*
D02*
G37*
G36*
X036161Y024641D02*
X036124Y024603D01*
X035984Y024445D01*
X035975Y02443D01*
X035969Y024418D01*
X035968Y024409D01*
X035859Y024518D01*
X035868Y024519D01*
X03588Y024525D01*
X035895Y024534D01*
X035913Y024547D01*
X035959Y024586D01*
X036053Y024674D01*
X036091Y024711D01*
X036161Y024641D01*
D02*
G37*
G36*
X0431Y026237D02*
X043113Y026026D01*
X043117Y026009D01*
X043122Y025997D01*
X043127Y025989D01*
X042973D01*
X042978Y025997D01*
X042983Y026009D01*
X042987Y026026D01*
X04299Y026049D01*
X042996Y026109D01*
X043Y026237D01*
X043Y02629D01*
X0431D01*
X0431Y026237D01*
D02*
G37*
G36*
X033016Y028802D02*
X033004Y028791D01*
X032992Y028776D01*
X032982Y028756D01*
X032974Y028732D01*
X032967Y028704D01*
X032961Y028671D01*
X032956Y028635D01*
X032951Y028548D01*
X03295Y028498D01*
X03285Y028554D01*
X032861Y028822D01*
X033016Y028802D01*
D02*
G37*
G36*
X04885Y029103D02*
X048843Y029108D01*
X048831Y029113D01*
X048814Y029117D01*
X048791Y02912D01*
X048731Y029126D01*
X048603Y02913D01*
X04855Y02913D01*
Y02923D01*
X048603Y02923D01*
X048814Y029243D01*
X048831Y029247D01*
X048843Y029252D01*
X04885Y029257D01*
Y029103D01*
D02*
G37*
G36*
X032917Y017582D02*
X032718Y017398D01*
X032619Y017517D01*
X032631Y017517D01*
X032646Y017521D01*
X032664Y017529D01*
X032684Y017542D01*
X032707Y017558D01*
X032762Y017603D01*
X032828Y017663D01*
X032865Y0177D01*
X032917Y017582D01*
D02*
G37*
G36*
X029895Y016974D02*
X029906Y016971D01*
X029922Y016968D01*
X029944Y016966D01*
X030041Y016962D01*
X030185Y01696D01*
Y01684D01*
X030132Y01684D01*
X029895Y016826D01*
X02989Y016823D01*
Y016977D01*
X029895Y016974D01*
D02*
G37*
G36*
X030995Y020574D02*
X031006Y020571D01*
X031022Y020568D01*
X031044Y020566D01*
X031141Y020562D01*
X031285Y02056D01*
Y02044D01*
X031232Y02044D01*
X030995Y020426D01*
X03099Y020423D01*
Y020577D01*
X030995Y020574D01*
D02*
G37*
G36*
X03276Y022523D02*
X032753Y022528D01*
X032741Y022533D01*
X032724Y022537D01*
X032701Y02254D01*
X032641Y022546D01*
X032513Y02255D01*
X03246Y02255D01*
Y02265D01*
X032513Y02265D01*
X032724Y022663D01*
X032741Y022667D01*
X032753Y022672D01*
X03276Y022677D01*
Y022523D01*
D02*
G37*
G36*
X036191Y020832D02*
X036185Y020831D01*
X036175Y020825D01*
X036162Y020815D01*
X036145Y020802D01*
X036073Y020736D01*
X03597Y020635D01*
X035885Y02072D01*
X035923Y020758D01*
X036081Y020935D01*
X036082Y020941D01*
X036191Y020832D01*
D02*
G37*
G36*
X055047Y020774D02*
X055205Y020634D01*
X05522Y020625D01*
X055232Y020619D01*
X055241Y020618D01*
X055132Y020509D01*
X055131Y020518D01*
X055125Y02053D01*
X055116Y020545D01*
X055103Y020563D01*
X055064Y020609D01*
X054976Y020703D01*
X054939Y020741D01*
X055009Y020811D01*
X055047Y020774D01*
D02*
G37*
G36*
X028411Y019741D02*
X028374Y019703D01*
X028234Y019545D01*
X028225Y01953D01*
X028219Y019518D01*
X028218Y019509D01*
X028109Y019618D01*
X028118Y019619D01*
X02813Y019625D01*
X028145Y019634D01*
X028163Y019647D01*
X028209Y019686D01*
X028303Y019774D01*
X028341Y019811D01*
X028411Y019741D01*
D02*
G37*
G36*
X032665Y02438D02*
X032627Y024342D01*
X032469Y024165D01*
X032468Y024159D01*
X032359Y024268D01*
X032365Y024269D01*
X032375Y024275D01*
X032388Y024285D01*
X032405Y024298D01*
X032477Y024364D01*
X03258Y024465D01*
X032665Y02438D01*
D02*
G37*
G36*
X031347Y019474D02*
X031505Y019334D01*
X03152Y019325D01*
X031532Y019319D01*
X031541Y019318D01*
X031432Y019209D01*
X031431Y019218D01*
X031425Y01923D01*
X031416Y019245D01*
X031403Y019263D01*
X031364Y019309D01*
X031276Y019403D01*
X031239Y019441D01*
X031309Y019511D01*
X031347Y019474D01*
D02*
G37*
G36*
X03511Y023182D02*
X035124Y022945D01*
X035127Y02294D01*
X034973D01*
X034976Y022945D01*
X034979Y022956D01*
X034982Y022972D01*
X034984Y022994D01*
X034988Y023091D01*
X03499Y023235D01*
X03511D01*
X03511Y023182D01*
D02*
G37*
G36*
X035941Y023232D02*
X035935Y023231D01*
X035925Y023225D01*
X035912Y023215D01*
X035895Y023202D01*
X035823Y023136D01*
X03572Y023035D01*
X035635Y02312D01*
X035673Y023158D01*
X035831Y023335D01*
X035832Y023341D01*
X035941Y023232D01*
D02*
G37*
G36*
X0507Y0437D02*
Y0314D01*
X048836Y029536D01*
X048286Y030086D01*
X048228Y030125D01*
X04816Y030138D01*
X046371D01*
X046356Y030188D01*
X046389Y030211D01*
X046432Y030275D01*
X046447Y03035D01*
X046432Y030425D01*
X046389Y030489D01*
X046325Y030532D01*
X04625Y030547D01*
X046175Y030532D01*
X046111Y030489D01*
X046068Y030425D01*
X046053Y03035D01*
X046068Y030275D01*
X046111Y030211D01*
X046144Y030188D01*
X046129Y030138D01*
X045851D01*
X045845Y030142D01*
X04577Y030157D01*
X045695Y030142D01*
X045631Y030099D01*
X045588Y030035D01*
X045573Y02996D01*
X045588Y029885D01*
X045631Y029821D01*
X045695Y029778D01*
X04577Y029763D01*
X045845Y029778D01*
X045851Y029782D01*
X048086D01*
X048514Y029354D01*
X048495Y029307D01*
X04739D01*
X047341Y029298D01*
X0473Y02927D01*
X045697Y027667D01*
X04429D01*
X044241Y027658D01*
X0442Y02763D01*
X043864Y027294D01*
X04385Y027297D01*
X043775Y027282D01*
X043711Y027239D01*
X043668Y027175D01*
X043653Y0271D01*
X043668Y027025D01*
X043711Y026961D01*
X043775Y026918D01*
X04385Y026903D01*
X043925Y026918D01*
X043989Y026961D01*
X044032Y027025D01*
X044047Y0271D01*
X044044Y027114D01*
X044343Y027413D01*
X045463D01*
Y0261D01*
X045461Y026099D01*
X045418Y026035D01*
X045403Y025959D01*
X045418Y025884D01*
X045461Y02582D01*
X045525Y025777D01*
X0456Y025762D01*
X045675Y025777D01*
X045739Y02582D01*
X045782Y025884D01*
X045797Y025959D01*
X045782Y026035D01*
X045739Y026099D01*
X045717Y026113D01*
Y027413D01*
X04575D01*
X045799Y027422D01*
X04584Y02745D01*
X047443Y029053D01*
X048266D01*
X048281Y029003D01*
X048261Y028989D01*
X048218Y028925D01*
X048216Y028916D01*
X04775Y02845D01*
Y026592D01*
X0477Y026565D01*
X047675Y026582D01*
X0476Y026597D01*
X047525Y026582D01*
X047461Y026539D01*
X047418Y026475D01*
X047403Y0264D01*
X047418Y026325D01*
X047461Y026261D01*
X047525Y026218D01*
X0476Y026203D01*
X047675Y026218D01*
X0477Y026235D01*
X04775Y026208D01*
Y025673D01*
X047718Y025625D01*
X047703Y02555D01*
X047718Y025475D01*
X04775Y025427D01*
Y023627D01*
X046947D01*
X046939Y023639D01*
X046875Y023682D01*
X0468Y023697D01*
X046725Y023682D01*
X046661Y023639D01*
X046618Y023575D01*
X046603Y0235D01*
X046604Y023497D01*
X046558Y023473D01*
X044827Y025203D01*
Y026803D01*
X044839Y026811D01*
X044882Y026875D01*
X044897Y02695D01*
X044882Y027025D01*
X044839Y027089D01*
X044775Y027132D01*
X0447Y027147D01*
X044625Y027132D01*
X044561Y027089D01*
X044518Y027025D01*
X04451Y026985D01*
X044455Y026962D01*
X044425Y026982D01*
X04435Y026997D01*
X044275Y026982D01*
X044211Y026939D01*
X044168Y026875D01*
X044153Y0268D01*
X044168Y026725D01*
X044211Y026661D01*
X044223Y026653D01*
Y02525D01*
X044232Y025201D01*
X04426Y02516D01*
X049315Y020105D01*
X049298Y020051D01*
X049255Y020042D01*
X049191Y019999D01*
X049148Y019935D01*
X049133Y01986D01*
X049148Y019785D01*
X049191Y019721D01*
X049255Y019678D01*
X04933Y019663D01*
X049405Y019678D01*
X049469Y019721D01*
X049512Y019785D01*
X049521Y019828D01*
X049575Y019845D01*
X050273Y019147D01*
Y017347D01*
X050261Y017339D01*
X050218Y017275D01*
X050203Y0172D01*
X050218Y017125D01*
X050261Y017061D01*
X050325Y017018D01*
X0504Y017003D01*
X050475Y017018D01*
X050539Y017061D01*
X050582Y017125D01*
X050597Y0172D01*
X050582Y017275D01*
X050539Y017339D01*
X050527Y017347D01*
Y019077D01*
X050574Y019096D01*
X05061Y01906D01*
X050651Y019032D01*
X050672Y019028D01*
X05095Y01875D01*
X0585D01*
X06Y01725D01*
Y0145D01*
X0585Y013D01*
X0235D01*
X022Y0145D01*
Y01675D01*
X029677D01*
X029725Y016718D01*
X0298Y016703D01*
X029875Y016718D01*
X029923Y01675D01*
X03675D01*
Y016808D01*
X0368Y016835D01*
X036825Y016818D01*
X0369Y016803D01*
X036975Y016818D01*
X037039Y016861D01*
X037082Y016925D01*
X037097Y017D01*
X037082Y017075D01*
X037039Y017139D01*
X036975Y017182D01*
X0369Y017197D01*
X036825Y017182D01*
X0368Y017165D01*
X03675Y017192D01*
Y01942D01*
X037436Y020106D01*
X03745Y020103D01*
X037525Y020118D01*
X037589Y020161D01*
X037632Y020225D01*
X037647Y0203D01*
X037632Y020375D01*
X037589Y020439D01*
X037577Y020447D01*
Y021897D01*
X039036Y023356D01*
X03905Y023353D01*
X039125Y023368D01*
X039189Y023411D01*
X039232Y023475D01*
X039247Y02355D01*
X039232Y023625D01*
X039189Y023689D01*
X039125Y023732D01*
X03905Y023747D01*
X038975Y023732D01*
X038911Y023689D01*
X038868Y023625D01*
X038853Y02355D01*
X038856Y023536D01*
X03736Y02204D01*
X037332Y021999D01*
X037323Y02195D01*
Y020447D01*
X037311Y020439D01*
X037268Y020375D01*
X037253Y0203D01*
X037256Y020286D01*
X036796Y019826D01*
X03675Y019846D01*
Y022155D01*
X040298Y025703D01*
X0403Y025703D01*
X040375Y025718D01*
X040439Y025761D01*
X040482Y025825D01*
X040497Y0259D01*
X040482Y025975D01*
X040439Y026039D01*
X040375Y026082D01*
X0403Y026097D01*
X040225Y026082D01*
X040161Y026039D01*
X040118Y025975D01*
X040103Y0259D01*
X040103Y025898D01*
X036796Y022591D01*
X03675Y02261D01*
Y02425D01*
X036703Y024297D01*
X036729Y024342D01*
X03675Y024338D01*
Y0245D01*
X036588D01*
X036592Y024479D01*
X036547Y024453D01*
X036315Y024685D01*
X037803Y026173D01*
X039092D01*
X039118Y026131D01*
X039118Y026123D01*
X039103Y02605D01*
X039118Y025975D01*
X039161Y025911D01*
X039225Y025868D01*
X0393Y025853D01*
X039375Y025868D01*
X039439Y025911D01*
X039482Y025975D01*
X039497Y02605D01*
X039482Y026123D01*
X039482Y026131D01*
X039508Y026173D01*
X0415D01*
X041523Y02615D01*
Y026047D01*
X041511Y026039D01*
X041478Y02599D01*
X041472Y025988D01*
X041428D01*
X041422Y02599D01*
X041389Y026039D01*
X041325Y026082D01*
X04125Y026097D01*
X041175Y026082D01*
X041111Y026039D01*
X041068Y025975D01*
X041053Y0259D01*
X041068Y025825D01*
X041111Y025761D01*
X041115Y025758D01*
Y022311D01*
X041065Y022284D01*
X041Y022297D01*
X040925Y022282D01*
X040861Y022239D01*
X040828Y02219D01*
X040822Y022188D01*
X040778D01*
X040772Y02219D01*
X040739Y022239D01*
X040675Y022282D01*
X0406Y022297D01*
X040525Y022282D01*
X040461Y022239D01*
X040418Y022175D01*
X040403Y0221D01*
X040418Y022025D01*
X040461Y021961D01*
X040525Y021918D01*
X0406Y021903D01*
X040675Y021918D01*
X040739Y021961D01*
X040772Y02201D01*
X040778Y022012D01*
X040822D01*
X040828Y02201D01*
X040861Y021961D01*
X040925Y021918D01*
X041Y021903D01*
X041065Y021916D01*
X041115Y021889D01*
Y017897D01*
X041126Y017844D01*
X041156Y0178D01*
X042303Y016652D01*
X042303Y01665D01*
X042318Y016575D01*
X042361Y016511D01*
X042425Y016468D01*
X0425Y016453D01*
X042575Y016468D01*
X042639Y016511D01*
X04264Y016512D01*
X0442D01*
X044253Y016523D01*
X044297Y016553D01*
X047898Y020153D01*
X0479Y020153D01*
X047975Y020168D01*
X048039Y020211D01*
X048082Y020275D01*
X048097Y02035D01*
X048082Y020425D01*
X048039Y020489D01*
X047975Y020532D01*
X0479Y020547D01*
X047825Y020532D01*
X047761Y020489D01*
X047718Y020425D01*
X047703Y02035D01*
X047703Y020348D01*
X046869Y019514D01*
X046823Y019538D01*
X046825Y01955D01*
X04681Y019625D01*
X046768Y019689D01*
X046704Y019732D01*
X046628Y019747D01*
X046553Y019732D01*
X046489Y019689D01*
X046446Y019625D01*
X046431Y01955D01*
X046446Y019475D01*
X046489Y019411D01*
X046553Y019368D01*
X046628Y019353D01*
X04664Y019355D01*
X046665Y019309D01*
X044143Y016788D01*
X044065D01*
X04405Y016838D01*
X044099Y016871D01*
X044142Y016935D01*
X044157Y01701D01*
X044142Y017085D01*
X044099Y017149D01*
X044035Y017192D01*
X044029Y017193D01*
X042578Y018644D01*
Y019896D01*
X042617Y019916D01*
X042628Y019917D01*
X0427Y019903D01*
X042775Y019918D01*
X042839Y019961D01*
X042882Y020025D01*
X042897Y0201D01*
X042882Y020175D01*
X042839Y020239D01*
X042775Y020282D01*
X0427Y020297D01*
X042635Y020284D01*
X042605Y020304D01*
X042591Y020319D01*
X042597Y02035D01*
X042582Y020425D01*
X042539Y020489D01*
X042475Y020532D01*
X0424Y020547D01*
X042325Y020532D01*
X042261Y020489D01*
X042218Y020425D01*
X042203Y02035D01*
X042218Y020275D01*
X042222Y020269D01*
Y01857D01*
X042235Y018502D01*
X042274Y018444D01*
X043777Y016941D01*
X043778Y016935D01*
X043821Y016871D01*
X04387Y016838D01*
X043855Y016788D01*
X04264D01*
X042639Y016789D01*
X042575Y016832D01*
X0425Y016847D01*
X042498Y016847D01*
X041391Y017954D01*
Y021914D01*
X041441Y021941D01*
X041475Y021918D01*
X04155Y021903D01*
X041625Y021918D01*
X041689Y021961D01*
X041732Y022025D01*
X041747Y0221D01*
X041732Y022175D01*
X041689Y022239D01*
X041625Y022282D01*
X04155Y022297D01*
X041475Y022282D01*
X041441Y022259D01*
X041391Y022286D01*
Y025763D01*
X041422Y02581D01*
X041428Y025812D01*
X041472D01*
X041478Y02581D01*
X041511Y025761D01*
X041575Y025718D01*
X04165Y025703D01*
X041725Y025718D01*
X041789Y025761D01*
X041845Y025765D01*
X041873Y025736D01*
Y02235D01*
X041882Y022301D01*
X041906Y022265D01*
X041903Y02225D01*
X041918Y022175D01*
X041961Y022111D01*
X042025Y022068D01*
X042082Y022057D01*
X042106Y022015D01*
X042108Y022005D01*
X042095Y021985D01*
X042088Y02195D01*
X0423D01*
Y0219D01*
X04235D01*
Y021688D01*
X042385Y021695D01*
X042457Y021743D01*
X042505Y021815D01*
X042514Y021859D01*
X04255Y021903D01*
X042625Y021918D01*
X042689Y021961D01*
X042732Y022025D01*
X042747Y0221D01*
X042732Y022175D01*
X042689Y022239D01*
X042625Y022282D01*
X04255Y022297D01*
X042475Y022282D01*
X042411Y022239D01*
X042368Y022175D01*
X042355Y022111D01*
X042306Y022121D01*
X04229Y022144D01*
X042278Y022169D01*
X042282Y022175D01*
X042297Y02225D01*
X042282Y022325D01*
X042239Y022389D01*
X042175Y022432D01*
X042127Y022441D01*
Y024095D01*
X042177Y024111D01*
X042211Y024061D01*
X042275Y024018D01*
X04235Y024003D01*
X042425Y024018D01*
X042489Y024061D01*
X042522Y02411D01*
X042528Y024112D01*
X042572D01*
X042578Y02411D01*
X042611Y024061D01*
X042675Y024018D01*
X04275Y024003D01*
X042825Y024018D01*
X042889Y024061D01*
X042922Y02411D01*
X042928Y024112D01*
X042972D01*
X042978Y02411D01*
X043011Y024061D01*
X043075Y024018D01*
X04315Y024003D01*
X043225Y024018D01*
X043289Y024061D01*
X043332Y024125D01*
X043347Y0242D01*
X043332Y024275D01*
X043289Y024339D01*
X043277Y024347D01*
Y025297D01*
X04349Y02551D01*
X043518Y025551D01*
X043527Y0256D01*
Y02625D01*
X043518Y026299D01*
X04349Y02634D01*
X04254Y02729D01*
X042499Y027318D01*
X04245Y027327D01*
X035997D01*
X035989Y027339D01*
X035925Y027382D01*
X03586Y027395D01*
X035836Y027441D01*
X036107Y027712D01*
X04221D01*
X042211Y027711D01*
X042275Y027668D01*
X04235Y027653D01*
X042425Y027668D01*
X042489Y027711D01*
X042532Y027775D01*
X042547Y02785D01*
X042532Y027925D01*
X042489Y027989D01*
X042425Y028032D01*
X04235Y028047D01*
X042275Y028032D01*
X042211Y027989D01*
X04221Y027988D01*
X03605D01*
X035997Y027977D01*
X035953Y027947D01*
X035546Y027541D01*
X0355Y02756D01*
Y02865D01*
X033052D01*
X033047Y028663D01*
X033043Y0287D01*
X033107Y028743D01*
X033155Y028815D01*
X033162Y02885D01*
X032738D01*
X032745Y028815D01*
X032773Y028773D01*
Y02865D01*
X022D01*
Y0295D01*
X0235Y031D01*
X0305D01*
X03175Y03225D01*
Y0437D01*
X03225Y0442D01*
X0334D01*
X0339Y0437D01*
Y03225D01*
X03515Y031D01*
X04735D01*
X0486Y03225D01*
Y0437D01*
X0491Y0442D01*
X0502D01*
X0507Y0437D01*
D02*
G37*
%LPC*%
G36*
X04286Y019199D02*
X042825Y019192D01*
X042753Y019144D01*
X042705Y019072D01*
X042698Y019036D01*
X04286D01*
Y019199D01*
D02*
G37*
G36*
X043122Y018936D02*
X04296D01*
Y018774D01*
X042995Y018781D01*
X043067Y018829D01*
X043116Y018901D01*
X043122Y018936D01*
D02*
G37*
G36*
X04286D02*
X042698D01*
X042705Y018901D01*
X042753Y018829D01*
X042825Y018781D01*
X04286Y018774D01*
Y018936D01*
D02*
G37*
G36*
X054403Y01536D02*
X054367Y015353D01*
X054295Y015305D01*
X054247Y015233D01*
X05424Y015197D01*
X054403D01*
Y01536D01*
D02*
G37*
G36*
X04296Y019199D02*
Y019036D01*
X043122D01*
X043116Y019072D01*
X043067Y019144D01*
X042995Y019192D01*
X04296Y019199D01*
D02*
G37*
G36*
X04715Y018297D02*
X047075Y018282D01*
X047011Y018239D01*
X046968Y018175D01*
X046953Y0181D01*
X046968Y018025D01*
X047011Y017961D01*
X047075Y017918D01*
X04715Y017903D01*
X047164Y017906D01*
X04981Y01526D01*
X049851Y015232D01*
X0499Y015223D01*
X051703D01*
X051711Y015211D01*
X051775Y015168D01*
X05185Y015153D01*
X051925Y015168D01*
X051989Y015211D01*
X052032Y015275D01*
X052047Y01535D01*
X052032Y015425D01*
X051989Y015489D01*
X051925Y015532D01*
X05185Y015547D01*
X051775Y015532D01*
X051711Y015489D01*
X051703Y015477D01*
X051557D01*
X05153Y015527D01*
X051555Y015565D01*
X051562Y0156D01*
X051138D01*
X051145Y015565D01*
X05117Y015527D01*
X051143Y015477D01*
X049953D01*
X047344Y018086D01*
X047347Y0181D01*
X047332Y018175D01*
X047289Y018239D01*
X047225Y018282D01*
X04715Y018297D01*
D02*
G37*
G36*
X044262Y0186D02*
X0441D01*
Y018438D01*
X044135Y018445D01*
X044207Y018493D01*
X044255Y018565D01*
X044262Y0186D01*
D02*
G37*
G36*
X044916Y015566D02*
X044754D01*
X044761Y015531D01*
X044809Y015459D01*
X044881Y015411D01*
X044916Y015404D01*
Y015566D01*
D02*
G37*
G36*
X044Y0186D02*
X043838D01*
X043845Y018565D01*
X043893Y018493D01*
X043965Y018445D01*
X044Y018438D01*
Y0186D01*
D02*
G37*
G36*
X054503Y01536D02*
Y015197D01*
X054665D01*
X054658Y015233D01*
X05461Y015305D01*
X054538Y015353D01*
X054503Y01536D01*
D02*
G37*
G36*
X0441Y018862D02*
Y0187D01*
X044262D01*
X044255Y018735D01*
X044207Y018807D01*
X044135Y018855D01*
X0441Y018862D01*
D02*
G37*
G36*
X044D02*
X043965Y018855D01*
X043893Y018807D01*
X043845Y018735D01*
X043838Y0187D01*
X044D01*
Y018862D01*
D02*
G37*
G36*
X0344Y015347D02*
X034325Y015332D01*
X034261Y015289D01*
X034218Y015225D01*
X034203Y01515D01*
X034218Y015075D01*
X034261Y015011D01*
X034325Y014968D01*
X0344Y014953D01*
X034475Y014968D01*
X034539Y015011D01*
X034582Y015075D01*
X034597Y01515D01*
X034582Y015225D01*
X034539Y015289D01*
X034475Y015332D01*
X0344Y015347D01*
D02*
G37*
G36*
X04405Y020497D02*
X043975Y020482D01*
X043911Y020439D01*
X043868Y020375D01*
X043853Y0203D01*
X043868Y020225D01*
X043893Y020188D01*
X043886Y020128D01*
X043843Y020064D01*
X043828Y019989D01*
X043843Y019913D01*
X043886Y01985D01*
X04395Y019807D01*
X044025Y019792D01*
X044101Y019807D01*
X044165Y01985D01*
X044207Y019913D01*
X044222Y019989D01*
X044207Y020064D01*
X044183Y020101D01*
X044189Y020161D01*
X044232Y020225D01*
X044247Y0203D01*
X044232Y020375D01*
X044189Y020439D01*
X044125Y020482D01*
X04405Y020497D01*
D02*
G37*
G36*
X0457Y019847D02*
X045625Y019832D01*
X045561Y019789D01*
X045538Y019756D01*
X045491Y01974D01*
X045477Y019747D01*
X045425Y019782D01*
X04535Y019797D01*
X045275Y019782D01*
X045211Y019739D01*
X045168Y019675D01*
X045153Y0196D01*
X045168Y019525D01*
X045202Y019474D01*
X045185Y019447D01*
X045169Y019433D01*
X0451Y019447D01*
X045025Y019432D01*
X044961Y019389D01*
X044918Y019325D01*
X044903Y01925D01*
X044918Y019175D01*
X044961Y019111D01*
X045025Y019068D01*
X0451Y019053D01*
X045175Y019068D01*
X045239Y019111D01*
X045282Y019175D01*
X045297Y01925D01*
X045282Y019325D01*
X045248Y019376D01*
X045265Y019403D01*
X045281Y019417D01*
X04535Y019403D01*
X045425Y019418D01*
X045489Y019461D01*
X045512Y019494D01*
X045559Y01951D01*
X045573Y019503D01*
X045625Y019468D01*
X0457Y019453D01*
X045775Y019468D01*
X045839Y019511D01*
X045882Y019575D01*
X045897Y01965D01*
X045882Y019725D01*
X045839Y019789D01*
X045775Y019832D01*
X0457Y019847D01*
D02*
G37*
G36*
X0408Y019947D02*
X040725Y019932D01*
X040661Y019889D01*
X040618Y019825D01*
X040603Y01975D01*
X040618Y019675D01*
X040661Y019611D01*
X040725Y019568D01*
X0408Y019553D01*
X040875Y019568D01*
X040939Y019611D01*
X040982Y019675D01*
X040997Y01975D01*
X040982Y019825D01*
X040939Y019889D01*
X040875Y019932D01*
X0408Y019947D01*
D02*
G37*
G36*
X0441Y021097D02*
X044025Y021082D01*
X043961Y021039D01*
X043918Y020975D01*
X043903Y0209D01*
X043918Y020825D01*
X043961Y020761D01*
X044025Y020718D01*
X0441Y020703D01*
X044175Y020718D01*
X044239Y020761D01*
X044282Y020825D01*
X044297Y0209D01*
X044282Y020975D01*
X044239Y021039D01*
X044175Y021082D01*
X0441Y021097D01*
D02*
G37*
G36*
X05055Y0146D02*
X050388D01*
X050395Y014565D01*
X050443Y014493D01*
X050515Y014445D01*
X05055Y014438D01*
Y0146D01*
D02*
G37*
G36*
X050812D02*
X05065D01*
Y014438D01*
X050685Y014445D01*
X050757Y014493D01*
X050805Y014565D01*
X050812Y0146D01*
D02*
G37*
G36*
X054665Y015097D02*
X054503D01*
Y014935D01*
X054538Y014942D01*
X05461Y01499D01*
X054658Y015062D01*
X054665Y015097D01*
D02*
G37*
G36*
X0397Y019847D02*
X039625Y019832D01*
X039561Y019789D01*
X039553Y019777D01*
X0394D01*
X039351Y019768D01*
X03931Y01974D01*
X037664Y018094D01*
X03765Y018097D01*
X037575Y018082D01*
X037511Y018039D01*
X037468Y017975D01*
X037453Y0179D01*
X037468Y017825D01*
X037511Y017761D01*
X037575Y017718D01*
X03765Y017703D01*
X037725Y017718D01*
X037789Y017761D01*
X037832Y017825D01*
X037847Y0179D01*
X037844Y017914D01*
X039453Y019523D01*
X039553D01*
X039561Y019511D01*
X039625Y019468D01*
X0397Y019453D01*
X039775Y019468D01*
X039839Y019511D01*
X039882Y019575D01*
X039897Y01965D01*
X039882Y019725D01*
X039839Y019789D01*
X039775Y019832D01*
X0397Y019847D01*
D02*
G37*
G36*
X03395Y015347D02*
X033875Y015332D01*
X033811Y015289D01*
X033768Y015225D01*
X033753Y01515D01*
X033768Y015075D01*
X033811Y015011D01*
X033875Y014968D01*
X03395Y014953D01*
X034025Y014968D01*
X034089Y015011D01*
X034132Y015075D01*
X034147Y01515D01*
X034132Y015225D01*
X034089Y015289D01*
X034025Y015332D01*
X03395Y015347D01*
D02*
G37*
G36*
X05055Y014862D02*
X050515Y014855D01*
X050443Y014807D01*
X050395Y014735D01*
X050388Y0147D01*
X05055D01*
Y014862D01*
D02*
G37*
G36*
X05065D02*
Y0147D01*
X050812D01*
X050805Y014735D01*
X050757Y014807D01*
X050685Y014855D01*
X05065Y014862D01*
D02*
G37*
G36*
X054403Y015097D02*
X05424D01*
X054247Y015062D01*
X054295Y01499D01*
X054367Y014942D01*
X054403Y014935D01*
Y015097D01*
D02*
G37*
G36*
X0397Y01631D02*
X039695Y016309D01*
X03969Y016309D01*
X039604Y016298D01*
X039597Y016296D01*
X039594Y016295D01*
X039592Y016294D01*
X039584Y016293D01*
X039504Y01626D01*
X039498Y016255D01*
X039495Y016254D01*
X039493Y016253D01*
X039487Y01625D01*
X039418Y016197D01*
X039413Y016191D01*
X039411Y016189D01*
X039409Y016187D01*
X039403Y016182D01*
X03935Y016113D01*
X039347Y016107D01*
X039346Y016105D01*
X039345Y016102D01*
X03934Y016096D01*
X039307Y016016D01*
X039306Y016008D01*
X039305Y016006D01*
X039304Y016003D01*
X039302Y015996D01*
X039291Y01591D01*
X039291Y015902D01*
X039291Y0159D01*
X039291Y015898D01*
X039291Y01589D01*
X039302Y015804D01*
X039304Y015797D01*
X039305Y015794D01*
X039306Y015792D01*
X039307Y015784D01*
X03934Y015704D01*
X039345Y015698D01*
X039346Y015695D01*
X039347Y015693D01*
X03935Y015687D01*
X039403Y015618D01*
X039409Y015613D01*
X039411Y015611D01*
X039413Y015609D01*
X039418Y015603D01*
X039487Y01555D01*
X039493Y015547D01*
X039495Y015546D01*
X039498Y015545D01*
X039504Y01554D01*
X039584Y015507D01*
X039592Y015506D01*
X039594Y015505D01*
X039597Y015504D01*
X039604Y015502D01*
X03969Y015491D01*
X039695Y015491D01*
X0397Y01549D01*
X039705Y015491D01*
X03971Y015491D01*
X039796Y015502D01*
X039803Y015504D01*
X039806Y015505D01*
X039808Y015506D01*
X039816Y015507D01*
X039896Y01554D01*
X039902Y015545D01*
X039905Y015546D01*
X039907Y015547D01*
X039913Y01555D01*
X039982Y015603D01*
X039987Y015609D01*
X039989Y015611D01*
X039991Y015613D01*
X039997Y015618D01*
X04005Y015687D01*
X040053Y015693D01*
X040054Y015695D01*
X040055Y015698D01*
X04006Y015704D01*
X040093Y015784D01*
X040094Y015792D01*
X040095Y015794D01*
X040096Y015797D01*
X040098Y015804D01*
X040109Y01589D01*
X040109Y015898D01*
X040109Y0159D01*
X040109Y015902D01*
X040109Y01591D01*
X040098Y015996D01*
X040096Y016003D01*
X040095Y016006D01*
X040094Y016008D01*
X040093Y016016D01*
X04006Y016096D01*
X040055Y016102D01*
X040054Y016105D01*
X040053Y016107D01*
X04005Y016113D01*
X039997Y016182D01*
X039991Y016187D01*
X039989Y016189D01*
X039987Y016191D01*
X039982Y016197D01*
X039913Y01625D01*
X039907Y016253D01*
X039905Y016254D01*
X039902Y016255D01*
X039896Y01626D01*
X039816Y016293D01*
X039808Y016294D01*
X039806Y016295D01*
X039803Y016296D01*
X039796Y016298D01*
X03971Y016309D01*
X039705Y016309D01*
X0397Y01631D01*
D02*
G37*
G36*
X0345Y016306D02*
X034495Y016305D01*
X03449Y016305D01*
X034404Y016294D01*
X034397Y016291D01*
X034394Y016291D01*
X034392Y01629D01*
X034384Y016289D01*
X034304Y016255D01*
X034298Y016251D01*
X034295Y01625D01*
X034293Y016249D01*
X034287Y016245D01*
X034218Y016192D01*
X034213Y016187D01*
X034211Y016185D01*
X034209Y016183D01*
X034203Y016178D01*
X03415Y016109D01*
X034147Y016102D01*
X034146Y0161D01*
X034145Y016098D01*
X03414Y016092D01*
X034107Y016011D01*
X034106Y016004D01*
X034105Y016002D01*
X034104Y015999D01*
X034102Y015992D01*
X034091Y015906D01*
X034091Y015898D01*
X034091Y015896D01*
X034091Y015893D01*
X034091Y015886D01*
X034102Y015799D01*
X034104Y015792D01*
X034105Y01579D01*
X034106Y015787D01*
X034107Y01578D01*
X03414Y0157D01*
X034145Y015693D01*
X034146Y015691D01*
X034147Y015689D01*
X03415Y015682D01*
X034203Y015613D01*
X034209Y015608D01*
X034211Y015606D01*
X034213Y015605D01*
X034218Y015599D01*
X034287Y015546D01*
X034293Y015543D01*
X034295Y015541D01*
X034298Y01554D01*
X034304Y015536D01*
X034384Y015503D01*
X034392Y015501D01*
X034394Y0155D01*
X034397Y0155D01*
X034404Y015498D01*
X03449Y015486D01*
X034495Y015487D01*
X0345Y015486D01*
X034505Y015487D01*
X03451Y015486D01*
X034596Y015498D01*
X034603Y0155D01*
X034606Y0155D01*
X034608Y015501D01*
X034616Y015503D01*
X034696Y015536D01*
X034702Y01554D01*
X034705Y015541D01*
X034707Y015543D01*
X034713Y015546D01*
X034782Y015599D01*
X034787Y015605D01*
X034789Y015606D01*
X034791Y015608D01*
X034797Y015613D01*
X03485Y015682D01*
X034853Y015689D01*
X034854Y015691D01*
X034855Y015693D01*
X03486Y0157D01*
X034893Y01578D01*
X034894Y015787D01*
X034895Y01579D01*
X034896Y015792D01*
X034898Y015799D01*
X034909Y015886D01*
X034909Y015893D01*
X034909Y015896D01*
X034909Y015898D01*
X034909Y015906D01*
X034898Y015992D01*
X034896Y015999D01*
X034895Y016002D01*
X034894Y016004D01*
X034893Y016011D01*
X03486Y016092D01*
X034855Y016098D01*
X034854Y0161D01*
X034853Y016102D01*
X03485Y016109D01*
X034797Y016178D01*
X034791Y016183D01*
X034789Y016185D01*
X034787Y016187D01*
X034782Y016192D01*
X034713Y016245D01*
X034707Y016249D01*
X034705Y01625D01*
X034702Y016251D01*
X034696Y016255D01*
X034616Y016289D01*
X034608Y01629D01*
X034606Y016291D01*
X034603Y016291D01*
X034596Y016294D01*
X03451Y016305D01*
X034505Y016305D01*
X0345Y016306D01*
D02*
G37*
G36*
X0315D02*
X031495Y016305D01*
X03149Y016305D01*
X031404Y016294D01*
X031397Y016291D01*
X031394Y016291D01*
X031392Y01629D01*
X031384Y016289D01*
X031304Y016255D01*
X031298Y016251D01*
X031295Y01625D01*
X031293Y016249D01*
X031287Y016245D01*
X031218Y016192D01*
X031213Y016187D01*
X031211Y016185D01*
X031209Y016183D01*
X031203Y016178D01*
X03115Y016109D01*
X031147Y016102D01*
X031146Y0161D01*
X031145Y016098D01*
X03114Y016092D01*
X031107Y016011D01*
X031106Y016004D01*
X031105Y016002D01*
X031104Y015999D01*
X031102Y015992D01*
X031091Y015906D01*
X031091Y015898D01*
X031091Y015896D01*
X031091Y015893D01*
X031091Y015886D01*
X031102Y015799D01*
X031104Y015792D01*
X031105Y01579D01*
X031106Y015787D01*
X031107Y01578D01*
X03114Y0157D01*
X031145Y015693D01*
X031146Y015691D01*
X031147Y015689D01*
X03115Y015682D01*
X031203Y015613D01*
X031209Y015608D01*
X031211Y015606D01*
X031213Y015605D01*
X031218Y015599D01*
X031287Y015546D01*
X031293Y015543D01*
X031295Y015541D01*
X031298Y01554D01*
X031304Y015536D01*
X031384Y015503D01*
X031392Y015501D01*
X031394Y0155D01*
X031397Y0155D01*
X031404Y015498D01*
X03149Y015486D01*
X031495Y015487D01*
X0315Y015486D01*
X031505Y015487D01*
X03151Y015486D01*
X031596Y015498D01*
X031603Y0155D01*
X031606Y0155D01*
X031608Y015501D01*
X031616Y015503D01*
X031696Y015536D01*
X031702Y01554D01*
X031705Y015541D01*
X031707Y015543D01*
X031713Y015546D01*
X031782Y015599D01*
X031787Y015605D01*
X031789Y015606D01*
X031791Y015608D01*
X031797Y015613D01*
X03185Y015682D01*
X031853Y015689D01*
X031854Y015691D01*
X031855Y015693D01*
X03186Y0157D01*
X031893Y01578D01*
X031894Y015787D01*
X031895Y01579D01*
X031896Y015792D01*
X031898Y015799D01*
X031909Y015886D01*
X031909Y015893D01*
X031909Y015896D01*
X031909Y015898D01*
X031909Y015906D01*
X031898Y015992D01*
X031896Y015999D01*
X031895Y016002D01*
X031894Y016004D01*
X031893Y016011D01*
X03186Y016092D01*
X031855Y016098D01*
X031854Y0161D01*
X031853Y016102D01*
X03185Y016109D01*
X031797Y016178D01*
X031791Y016183D01*
X031789Y016185D01*
X031787Y016187D01*
X031782Y016192D01*
X031713Y016245D01*
X031707Y016249D01*
X031705Y01625D01*
X031702Y016251D01*
X031696Y016255D01*
X031616Y016289D01*
X031608Y01629D01*
X031606Y016291D01*
X031603Y016291D01*
X031596Y016294D01*
X03151Y016305D01*
X031505Y016305D01*
X0315Y016306D01*
D02*
G37*
G36*
X03925Y016612D02*
Y01645D01*
X039412D01*
X039405Y016485D01*
X039357Y016557D01*
X039285Y016605D01*
X03925Y016612D01*
D02*
G37*
G36*
X03915D02*
X039115Y016605D01*
X039043Y016557D01*
X038995Y016485D01*
X038988Y01645D01*
X03915D01*
Y016612D01*
D02*
G37*
G36*
X0513Y015862D02*
X051265Y015855D01*
X051193Y015807D01*
X051145Y015735D01*
X051138Y0157D01*
X0513D01*
Y015862D01*
D02*
G37*
G36*
X031212Y0164D02*
X03105D01*
Y016238D01*
X031085Y016245D01*
X031157Y016293D01*
X031205Y016365D01*
X031212Y0164D01*
D02*
G37*
G36*
X0555Y016547D02*
X055425Y016532D01*
X055361Y016489D01*
X055318Y016425D01*
X055303Y01635D01*
X055318Y016275D01*
X055361Y016211D01*
X055425Y016168D01*
X0555Y016153D01*
X055575Y016168D01*
X055639Y016211D01*
X055682Y016275D01*
X055697Y01635D01*
X055682Y016425D01*
X055639Y016489D01*
X055575Y016532D01*
X0555Y016547D01*
D02*
G37*
G36*
X0351Y016397D02*
X035025Y016382D01*
X034961Y016339D01*
X034918Y016275D01*
X034903Y0162D01*
X034918Y016125D01*
X034961Y016061D01*
X035025Y016018D01*
X0351Y016003D01*
X035175Y016018D01*
X035239Y016061D01*
X035282Y016125D01*
X035297Y0162D01*
X035282Y016275D01*
X035239Y016339D01*
X035175Y016382D01*
X0351Y016397D01*
D02*
G37*
G36*
X0514Y015862D02*
Y0157D01*
X051562D01*
X051555Y015735D01*
X051507Y015807D01*
X051435Y015855D01*
X0514Y015862D01*
D02*
G37*
G36*
X03095Y0164D02*
X030788D01*
X030795Y016365D01*
X030843Y016293D01*
X030915Y016245D01*
X03095Y016238D01*
Y0164D01*
D02*
G37*
G36*
X039412Y01635D02*
X03925D01*
Y016188D01*
X039285Y016195D01*
X039357Y016243D01*
X039405Y016315D01*
X039412Y01635D01*
D02*
G37*
G36*
X03915D02*
X038988D01*
X038995Y016315D01*
X039043Y016243D01*
X039115Y016195D01*
X03915Y016188D01*
Y01635D01*
D02*
G37*
G36*
X0462Y017862D02*
X046165Y017855D01*
X046093Y017807D01*
X046045Y017735D01*
X046038Y0177D01*
X0462D01*
Y017862D01*
D02*
G37*
G36*
X040698Y017849D02*
X040623Y017834D01*
X040559Y017791D01*
X040516Y017727D01*
X040501Y017652D01*
X040516Y017577D01*
X040559Y017513D01*
X040623Y01747D01*
X040698Y017455D01*
X040773Y01747D01*
X040837Y017513D01*
X04088Y017577D01*
X040895Y017652D01*
X04088Y017727D01*
X040837Y017791D01*
X040773Y017834D01*
X040698Y017849D01*
D02*
G37*
G36*
X046462Y0176D02*
X0463D01*
Y017438D01*
X046335Y017445D01*
X046407Y017493D01*
X046455Y017565D01*
X046462Y0176D01*
D02*
G37*
G36*
X05625Y018497D02*
X056175Y018482D01*
X056111Y018439D01*
X056068Y018375D01*
X056053Y0183D01*
X056068Y018225D01*
X056111Y018161D01*
X056175Y018118D01*
X05625Y018103D01*
X056325Y018118D01*
X056389Y018161D01*
X056432Y018225D01*
X056447Y0183D01*
X056432Y018375D01*
X056389Y018439D01*
X056325Y018482D01*
X05625Y018497D01*
D02*
G37*
G36*
X045179Y015566D02*
X045016D01*
Y015404D01*
X045051Y015411D01*
X045123Y015459D01*
X045172Y015531D01*
X045179Y015566D01*
D02*
G37*
G36*
X0463Y017862D02*
Y0177D01*
X046462D01*
X046455Y017735D01*
X046407Y017807D01*
X046335Y017855D01*
X0463Y017862D01*
D02*
G37*
G36*
X0462Y0176D02*
X046038D01*
X046045Y017565D01*
X046093Y017493D01*
X046165Y017445D01*
X0462Y017438D01*
Y0176D01*
D02*
G37*
G36*
X03105Y016662D02*
Y0165D01*
X031212D01*
X031205Y016535D01*
X031157Y016607D01*
X031085Y016655D01*
X03105Y016662D01*
D02*
G37*
G36*
X045016Y015829D02*
Y015666D01*
X045179D01*
X045172Y015701D01*
X045123Y015773D01*
X045051Y015822D01*
X045016Y015829D01*
D02*
G37*
G36*
X03095Y016662D02*
X030915Y016655D01*
X030843Y016607D01*
X030795Y016535D01*
X030788Y0165D01*
X03095D01*
Y016662D01*
D02*
G37*
G36*
X0404Y016597D02*
X040325Y016582D01*
X040261Y016539D01*
X040218Y016475D01*
X040203Y0164D01*
X040218Y016325D01*
X040261Y016261D01*
X040325Y016218D01*
X040362Y016211D01*
X040383Y016156D01*
X04035Y016113D01*
X040347Y016107D01*
X040346Y016105D01*
X040345Y016102D01*
X04034Y016096D01*
X040307Y016016D01*
X040306Y016008D01*
X040305Y016006D01*
X040304Y016003D01*
X040302Y015996D01*
X040291Y01591D01*
X040291Y015902D01*
X040291Y0159D01*
X040291Y015898D01*
X040291Y01589D01*
X040302Y015804D01*
X040304Y015797D01*
X040305Y015794D01*
X040306Y015792D01*
X040307Y015784D01*
X04034Y015704D01*
X040345Y015698D01*
X040346Y015695D01*
X040347Y015693D01*
X04035Y015687D01*
X040403Y015618D01*
X040409Y015613D01*
X040411Y015611D01*
X040413Y015609D01*
X040418Y015603D01*
X040487Y01555D01*
X040493Y015547D01*
X040495Y015546D01*
X040498Y015545D01*
X040504Y01554D01*
X040584Y015507D01*
X040592Y015506D01*
X040594Y015505D01*
X040597Y015504D01*
X040604Y015502D01*
X04069Y015491D01*
X040695Y015491D01*
X0407Y01549D01*
X040705Y015491D01*
X04071Y015491D01*
X040796Y015502D01*
X040803Y015504D01*
X040806Y015505D01*
X040808Y015506D01*
X040816Y015507D01*
X040896Y01554D01*
X040902Y015545D01*
X040905Y015546D01*
X040907Y015547D01*
X040913Y01555D01*
X040982Y015603D01*
X040987Y015609D01*
X040989Y015611D01*
X040991Y015613D01*
X040997Y015618D01*
X04105Y015687D01*
X041053Y015693D01*
X041054Y015695D01*
X041055Y015698D01*
X04106Y015704D01*
X041093Y015784D01*
X041094Y015792D01*
X041095Y015794D01*
X041096Y015797D01*
X041098Y015804D01*
X041109Y01589D01*
X041109Y015898D01*
X041109Y0159D01*
X041109Y015902D01*
X041109Y01591D01*
X041098Y015996D01*
X041096Y016003D01*
X041095Y016006D01*
X041094Y016008D01*
X041093Y016016D01*
X04106Y016096D01*
X041055Y016102D01*
X041054Y016105D01*
X041053Y016107D01*
X04105Y016113D01*
X040997Y016182D01*
X040991Y016187D01*
X040989Y016189D01*
X040987Y016191D01*
X040982Y016197D01*
X040913Y01625D01*
X040907Y016253D01*
X040905Y016254D01*
X040902Y016255D01*
X040896Y01626D01*
X040816Y016293D01*
X040808Y016294D01*
X040806Y016295D01*
X040803Y016296D01*
X040796Y016298D01*
X04071Y016309D01*
X040705Y016309D01*
X0407Y01631D01*
X040695Y016309D01*
X04069Y016309D01*
X040624Y016301D01*
X040617Y016305D01*
X040589Y016336D01*
X040586Y016345D01*
X040597Y0164D01*
X040582Y016475D01*
X040539Y016539D01*
X040475Y016582D01*
X0404Y016597D01*
D02*
G37*
G36*
X05115Y017397D02*
X051075Y017382D01*
X051011Y017339D01*
X050968Y017275D01*
X050953Y0172D01*
X050968Y017125D01*
X051011Y017061D01*
X051075Y017018D01*
X05115Y017003D01*
X051225Y017018D01*
X051289Y017061D01*
X051332Y017125D01*
X051347Y0172D01*
X051332Y017275D01*
X051289Y017339D01*
X051225Y017382D01*
X05115Y017397D01*
D02*
G37*
G36*
X044916Y015829D02*
X044881Y015822D01*
X044809Y015773D01*
X044761Y015701D01*
X044754Y015666D01*
X044916D01*
Y015829D01*
D02*
G37*
G36*
X04295Y029697D02*
X042875Y029682D01*
X042811Y029639D01*
X042768Y029575D01*
X042753Y0295D01*
X042768Y029425D01*
X042811Y029361D01*
X042875Y029318D01*
X04295Y029303D01*
X043025Y029318D01*
X043089Y029361D01*
X043132Y029425D01*
X043147Y0295D01*
X043132Y029575D01*
X043089Y029639D01*
X043025Y029682D01*
X04295Y029697D01*
D02*
G37*
G36*
X0422D02*
X042125Y029682D01*
X042061Y029639D01*
X042018Y029575D01*
X042003Y0295D01*
X042018Y029425D01*
X042061Y029361D01*
X042125Y029318D01*
X0422Y029303D01*
X042275Y029318D01*
X042339Y029361D01*
X042382Y029425D01*
X042397Y0295D01*
X042382Y029575D01*
X042339Y029639D01*
X042275Y029682D01*
X0422Y029697D01*
D02*
G37*
G36*
X04145D02*
X041375Y029682D01*
X041311Y029639D01*
X041268Y029575D01*
X041253Y0295D01*
X041268Y029425D01*
X041311Y029361D01*
X041375Y029318D01*
X04145Y029303D01*
X041525Y029318D01*
X041589Y029361D01*
X041632Y029425D01*
X041647Y0295D01*
X041632Y029575D01*
X041589Y029639D01*
X041525Y029682D01*
X04145Y029697D01*
D02*
G37*
G36*
X0437D02*
X043625Y029682D01*
X043561Y029639D01*
X043518Y029575D01*
X043503Y0295D01*
X043518Y029425D01*
X043561Y029361D01*
X043625Y029318D01*
X0437Y029303D01*
X043775Y029318D01*
X043839Y029361D01*
X043882Y029425D01*
X043897Y0295D01*
X043882Y029575D01*
X043839Y029639D01*
X043775Y029682D01*
X0437Y029697D01*
D02*
G37*
G36*
X03845Y029747D02*
X038375Y029732D01*
X038311Y029689D01*
X038268Y029625D01*
X038253Y02955D01*
X038268Y029475D01*
X038311Y029411D01*
X038375Y029368D01*
X03845Y029353D01*
X038525Y029368D01*
X038589Y029411D01*
X038632Y029475D01*
X038647Y02955D01*
X038632Y029625D01*
X038589Y029689D01*
X038525Y029732D01*
X03845Y029747D01*
D02*
G37*
G36*
X039412Y0295D02*
X03925D01*
Y029338D01*
X039285Y029345D01*
X039357Y029393D01*
X039405Y029465D01*
X039412Y0295D01*
D02*
G37*
G36*
X03915D02*
X038988D01*
X038995Y029465D01*
X039043Y029393D01*
X039115Y029345D01*
X03915Y029338D01*
Y0295D01*
D02*
G37*
G36*
X0407Y029697D02*
X040625Y029682D01*
X040561Y029639D01*
X040518Y029575D01*
X040503Y0295D01*
X040518Y029425D01*
X040561Y029361D01*
X040625Y029318D01*
X0407Y029303D01*
X040775Y029318D01*
X040839Y029361D01*
X040882Y029425D01*
X040897Y0295D01*
X040882Y029575D01*
X040839Y029639D01*
X040775Y029682D01*
X0407Y029697D01*
D02*
G37*
G36*
X033Y029112D02*
Y02895D01*
X033162D01*
X033155Y028985D01*
X033107Y029057D01*
X033035Y029105D01*
X033Y029112D01*
D02*
G37*
G36*
X0329D02*
X032865Y029105D01*
X032793Y029057D01*
X032745Y028985D01*
X032738Y02895D01*
X0329D01*
Y029112D01*
D02*
G37*
G36*
X04625Y029297D02*
X046175Y029282D01*
X046111Y029239D01*
X046068Y029175D01*
X046053Y0291D01*
X046068Y029025D01*
X046111Y028961D01*
X046175Y028918D01*
X04625Y028903D01*
X046325Y028918D01*
X046389Y028961D01*
X046432Y029025D01*
X046447Y0291D01*
X046432Y029175D01*
X046389Y029239D01*
X046325Y029282D01*
X04625Y029297D01*
D02*
G37*
G36*
X03693Y029517D02*
X036855Y029502D01*
X036791Y029459D01*
X036748Y029395D01*
X036733Y02932D01*
X036748Y029245D01*
X036791Y029181D01*
X036855Y029138D01*
X03693Y029123D01*
X037005Y029138D01*
X037069Y029181D01*
X037112Y029245D01*
X037127Y02932D01*
X037112Y029395D01*
X037069Y029459D01*
X037005Y029502D01*
X03693Y029517D01*
D02*
G37*
G36*
X0272Y029697D02*
X027125Y029682D01*
X027061Y029639D01*
X027018Y029575D01*
X027003Y0295D01*
X027018Y029425D01*
X027061Y029361D01*
X027125Y029318D01*
X0272Y029303D01*
X027275Y029318D01*
X027339Y029361D01*
X027382Y029425D01*
X027397Y0295D01*
X027382Y029575D01*
X027339Y029639D01*
X027275Y029682D01*
X0272Y029697D01*
D02*
G37*
G36*
X024912Y02945D02*
X02475D01*
Y029288D01*
X024785Y029295D01*
X024857Y029343D01*
X024905Y029415D01*
X024912Y02945D01*
D02*
G37*
G36*
X02465D02*
X024488D01*
X024495Y029415D01*
X024543Y029343D01*
X024615Y029295D01*
X02465Y029288D01*
Y02945D01*
D02*
G37*
G36*
X0251Y030462D02*
Y0303D01*
X025262D01*
X025255Y030335D01*
X025207Y030407D01*
X025135Y030455D01*
X0251Y030462D01*
D02*
G37*
G36*
X025D02*
X024965Y030455D01*
X024893Y030407D01*
X024845Y030335D01*
X024838Y0303D01*
X025D01*
Y030462D01*
D02*
G37*
G36*
X025262Y0302D02*
X0251D01*
Y030038D01*
X025135Y030045D01*
X025207Y030093D01*
X025255Y030165D01*
X025262Y0302D01*
D02*
G37*
G36*
X04965Y032517D02*
X049481Y0325D01*
X049318Y032451D01*
X049169Y032371D01*
X049037Y032263D01*
X048929Y032131D01*
X048849Y031982D01*
X0488Y031819D01*
X048783Y03165D01*
X0488Y031481D01*
X048849Y031318D01*
X048929Y031169D01*
X049037Y031037D01*
X049169Y030929D01*
X049314Y030852D01*
X049319Y030836D01*
X049321Y030796D01*
X049311Y030789D01*
X049268Y030725D01*
X049253Y03065D01*
X049268Y030575D01*
X049311Y030511D01*
X049375Y030468D01*
X04945Y030453D01*
X049525Y030468D01*
X049589Y030511D01*
X049632Y030575D01*
X049647Y03065D01*
X049632Y030725D01*
X049625Y030736D01*
X049646Y030775D01*
X049653Y030784D01*
X049819Y0308D01*
X049982Y030849D01*
X050131Y030929D01*
X050263Y031037D01*
X050371Y031169D01*
X050451Y031318D01*
X0505Y031481D01*
X050517Y03165D01*
X0505Y031819D01*
X050451Y031982D01*
X050371Y032131D01*
X050263Y032263D01*
X050131Y032371D01*
X049982Y032451D01*
X049819Y0325D01*
X04965Y032517D01*
D02*
G37*
G36*
X049657Y043538D02*
X049488Y043522D01*
X049325Y043472D01*
X049175Y043392D01*
X049044Y043284D01*
X048936Y043153D01*
X048856Y043003D01*
X048807Y042841D01*
X04879Y042672D01*
X048807Y042503D01*
X048856Y04234D01*
X048936Y04219D01*
X049044Y042059D01*
X049175Y041951D01*
X049325Y041871D01*
X049488Y041822D01*
X049657Y041805D01*
X049826Y041822D01*
X049988Y041871D01*
X050138Y041951D01*
X050269Y042059D01*
X050377Y04219D01*
X050457Y04234D01*
X050507Y042503D01*
X050523Y042672D01*
X050507Y042841D01*
X050457Y043003D01*
X050377Y043153D01*
X050269Y043284D01*
X050138Y043392D01*
X049988Y043472D01*
X049826Y043522D01*
X049657Y043538D01*
D02*
G37*
G36*
X032826D02*
X032657Y043522D01*
X032494Y043472D01*
X032345Y043392D01*
X032213Y043284D01*
X032105Y043153D01*
X032025Y043003D01*
X031976Y042841D01*
X031959Y042672D01*
X031976Y042503D01*
X032025Y04234D01*
X032105Y04219D01*
X032213Y042059D01*
X032345Y041951D01*
X032494Y041871D01*
X032657Y041822D01*
X032826Y041805D01*
X032995Y041822D01*
X033158Y041871D01*
X033307Y041951D01*
X033439Y042059D01*
X033547Y04219D01*
X033627Y04234D01*
X033676Y042503D01*
X033693Y042672D01*
X033676Y042841D01*
X033627Y043003D01*
X033547Y043153D01*
X033439Y043284D01*
X033307Y043392D01*
X033158Y043472D01*
X032995Y043522D01*
X032826Y043538D01*
D02*
G37*
G36*
Y032613D02*
X032657Y032596D01*
X032494Y032547D01*
X032345Y032467D01*
X032213Y032359D01*
X032105Y032228D01*
X032025Y032078D01*
X031976Y031916D01*
X031959Y031746D01*
X031976Y031577D01*
X032025Y031415D01*
X032105Y031265D01*
X032213Y031134D01*
X032345Y031026D01*
X032494Y030946D01*
X032657Y030897D01*
X032826Y03088D01*
X032995Y030897D01*
X033158Y030946D01*
X033307Y031026D01*
X033439Y031134D01*
X033547Y031265D01*
X033627Y031415D01*
X033676Y031577D01*
X033693Y031746D01*
X033676Y031916D01*
X033627Y032078D01*
X033547Y032228D01*
X033439Y032359D01*
X033307Y032467D01*
X033158Y032547D01*
X032995Y032596D01*
X032826Y032613D01*
D02*
G37*
G36*
X025Y0302D02*
X024838D01*
X024845Y030165D01*
X024893Y030093D01*
X024965Y030045D01*
X025Y030038D01*
Y0302D01*
D02*
G37*
G36*
X02475Y029712D02*
Y02955D01*
X024912D01*
X024905Y029585D01*
X024857Y029657D01*
X024785Y029705D01*
X02475Y029712D01*
D02*
G37*
G36*
X02465D02*
X024615Y029705D01*
X024543Y029657D01*
X024495Y029585D01*
X024488Y02955D01*
X02465D01*
Y029712D01*
D02*
G37*
G36*
X03995Y029747D02*
X039875Y029732D01*
X039811Y029689D01*
X039768Y029625D01*
X039753Y02955D01*
X039768Y029475D01*
X039811Y029411D01*
X039875Y029368D01*
X03995Y029353D01*
X040025Y029368D01*
X040089Y029411D01*
X040132Y029475D01*
X040147Y02955D01*
X040132Y029625D01*
X040089Y029689D01*
X040025Y029732D01*
X03995Y029747D01*
D02*
G37*
G36*
X03915Y029762D02*
X039115Y029755D01*
X039043Y029707D01*
X038995Y029635D01*
X038988Y0296D01*
X03915D01*
Y029762D01*
D02*
G37*
G36*
X03735Y030147D02*
X037275Y030132D01*
X037211Y030089D01*
X037168Y030025D01*
X037153Y02995D01*
X037168Y029875D01*
X037211Y029811D01*
X037275Y029768D01*
X03735Y029753D01*
X037425Y029768D01*
X037489Y029811D01*
X037532Y029875D01*
X037547Y02995D01*
X037532Y030025D01*
X037489Y030089D01*
X037425Y030132D01*
X03735Y030147D01*
D02*
G37*
G36*
X03583D02*
X035755Y030132D01*
X035691Y030089D01*
X035648Y030025D01*
X035633Y02995D01*
X035648Y029875D01*
X035691Y029811D01*
X035755Y029768D01*
X03583Y029753D01*
X035905Y029768D01*
X035969Y029811D01*
X036012Y029875D01*
X036027Y02995D01*
X036012Y030025D01*
X035969Y030089D01*
X035905Y030132D01*
X03583Y030147D01*
D02*
G37*
G36*
X03925Y029762D02*
Y0296D01*
X039412D01*
X039405Y029635D01*
X039357Y029707D01*
X039285Y029755D01*
X03925Y029762D01*
D02*
G37*
G36*
X037012Y0245D02*
X03685D01*
Y024338D01*
X036885Y024345D01*
X036957Y024393D01*
X037005Y024465D01*
X037012Y0245D01*
D02*
G37*
G36*
X03951Y024607D02*
X039435Y024592D01*
X039371Y024549D01*
X039328Y024485D01*
X039313Y02441D01*
X039328Y024335D01*
X039371Y024271D01*
X039435Y024228D01*
X03951Y024213D01*
X039585Y024228D01*
X039649Y024271D01*
X039692Y024335D01*
X039707Y02441D01*
X039692Y024485D01*
X039649Y024549D01*
X039585Y024592D01*
X03951Y024607D01*
D02*
G37*
G36*
X0473Y024397D02*
X047225Y024382D01*
X047161Y024339D01*
X047118Y024275D01*
X047103Y0242D01*
X047118Y024125D01*
X047161Y024061D01*
X047225Y024018D01*
X0473Y024003D01*
X047375Y024018D01*
X047439Y024061D01*
X047482Y024125D01*
X047497Y0242D01*
X047482Y024275D01*
X047439Y024339D01*
X047375Y024382D01*
X0473Y024397D01*
D02*
G37*
G36*
X03675Y024762D02*
X036715Y024755D01*
X036643Y024707D01*
X036595Y024635D01*
X036588Y0246D01*
X03675D01*
Y024762D01*
D02*
G37*
G36*
X046462Y0248D02*
X0463D01*
Y024638D01*
X046335Y024645D01*
X046407Y024693D01*
X046455Y024765D01*
X046462Y0248D01*
D02*
G37*
G36*
X0462D02*
X046038D01*
X046045Y024765D01*
X046093Y024693D01*
X046165Y024645D01*
X0462Y024638D01*
Y0248D01*
D02*
G37*
G36*
X03685Y024762D02*
Y0246D01*
X037012D01*
X037005Y024635D01*
X036957Y024707D01*
X036885Y024755D01*
X03685Y024762D01*
D02*
G37*
G36*
X04325Y023147D02*
X043175Y023132D01*
X043111Y023089D01*
X043068Y023025D01*
X043053Y02295D01*
X043068Y022875D01*
X043111Y022811D01*
X043175Y022768D01*
X04325Y022753D01*
X043325Y022768D01*
X043389Y022811D01*
X043432Y022875D01*
X043447Y02295D01*
X043432Y023025D01*
X043389Y023089D01*
X043325Y023132D01*
X04325Y023147D01*
D02*
G37*
G36*
X047262Y02135D02*
X0471D01*
Y021188D01*
X047135Y021195D01*
X047207Y021243D01*
X047255Y021315D01*
X047262Y02135D01*
D02*
G37*
G36*
X047D02*
X046838D01*
X046845Y021315D01*
X046893Y021243D01*
X046965Y021195D01*
X047Y021188D01*
Y02135D01*
D02*
G37*
G36*
X04455Y021097D02*
X044475Y021082D01*
X044411Y021039D01*
X044368Y020975D01*
X044353Y0209D01*
X044368Y020825D01*
X044411Y020761D01*
X044475Y020718D01*
X04455Y020703D01*
X044625Y020718D01*
X044689Y020761D01*
X044732Y020825D01*
X044747Y0209D01*
X044732Y020975D01*
X044689Y021039D01*
X044625Y021082D01*
X04455Y021097D01*
D02*
G37*
G36*
X047Y021612D02*
X046965Y021605D01*
X046893Y021557D01*
X046845Y021485D01*
X046838Y02145D01*
X047D01*
Y021612D01*
D02*
G37*
G36*
X0431Y022347D02*
X043025Y022332D01*
X042961Y022289D01*
X042918Y022225D01*
X042903Y02215D01*
X042918Y022075D01*
X042961Y022011D01*
X043025Y021968D01*
X0431Y021953D01*
X043175Y021968D01*
X043239Y022011D01*
X043282Y022075D01*
X043297Y02215D01*
X043282Y022225D01*
X043239Y022289D01*
X043175Y022332D01*
X0431Y022347D01*
D02*
G37*
G36*
X04225Y02185D02*
X042088D01*
X042095Y021815D01*
X042143Y021743D01*
X042215Y021695D01*
X04225Y021688D01*
Y02185D01*
D02*
G37*
G36*
X0471Y021612D02*
Y02145D01*
X047262D01*
X047255Y021485D01*
X047207Y021557D01*
X047135Y021605D01*
X0471Y021612D01*
D02*
G37*
G36*
X04355Y02775D02*
X043388D01*
X043395Y027715D01*
X043443Y027643D01*
X043515Y027595D01*
X04355Y027588D01*
Y02775D01*
D02*
G37*
G36*
X0465Y027462D02*
Y0273D01*
X046662D01*
X046655Y027335D01*
X046607Y027407D01*
X046535Y027455D01*
X0465Y027462D01*
D02*
G37*
G36*
X0464D02*
X046365Y027455D01*
X046293Y027407D01*
X046245Y027335D01*
X046238Y0273D01*
X0464D01*
Y027462D01*
D02*
G37*
G36*
X043812Y02775D02*
X04365D01*
Y027588D01*
X043685Y027595D01*
X043757Y027643D01*
X043805Y027715D01*
X043812Y02775D01*
D02*
G37*
G36*
X0426Y028747D02*
X042525Y028732D01*
X042461Y028689D01*
X042418Y028625D01*
X042403Y02855D01*
X042418Y028475D01*
X042461Y028411D01*
X042525Y028368D01*
X0426Y028353D01*
X042675Y028368D01*
X042739Y028411D01*
X042782Y028475D01*
X042797Y02855D01*
X042782Y028625D01*
X042739Y028689D01*
X042675Y028732D01*
X0426Y028747D01*
D02*
G37*
G36*
X04365Y028012D02*
Y02785D01*
X043812D01*
X043805Y027885D01*
X043757Y027957D01*
X043685Y028005D01*
X04365Y028012D01*
D02*
G37*
G36*
X04355D02*
X043515Y028005D01*
X043443Y027957D01*
X043395Y027885D01*
X043388Y02785D01*
X04355D01*
Y028012D01*
D02*
G37*
G36*
X046662Y0272D02*
X0465D01*
Y027038D01*
X046535Y027045D01*
X046607Y027093D01*
X046655Y027165D01*
X046662Y0272D01*
D02*
G37*
G36*
X0452Y025497D02*
X045125Y025482D01*
X045061Y025439D01*
X045018Y025375D01*
X045003Y0253D01*
X045018Y025225D01*
X045061Y025161D01*
X045125Y025118D01*
X0452Y025103D01*
X045275Y025118D01*
X045339Y025161D01*
X045382Y025225D01*
X045397Y0253D01*
X045382Y025375D01*
X045339Y025439D01*
X045275Y025482D01*
X0452Y025497D01*
D02*
G37*
G36*
X0463Y025062D02*
Y0249D01*
X046462D01*
X046455Y024935D01*
X046407Y025007D01*
X046335Y025055D01*
X0463Y025062D01*
D02*
G37*
G36*
X0462D02*
X046165Y025055D01*
X046093Y025007D01*
X046045Y024935D01*
X046038Y0249D01*
X0462D01*
Y025062D01*
D02*
G37*
G36*
X04615Y025697D02*
X046075Y025682D01*
X046011Y025639D01*
X045968Y025575D01*
X045953Y0255D01*
X045968Y025425D01*
X046011Y025361D01*
X046075Y025318D01*
X04615Y025303D01*
X046225Y025318D01*
X046289Y025361D01*
X046332Y025425D01*
X046347Y0255D01*
X046332Y025575D01*
X046289Y025639D01*
X046225Y025682D01*
X04615Y025697D01*
D02*
G37*
G36*
X0464Y0272D02*
X046238D01*
X046245Y027165D01*
X046293Y027093D01*
X046365Y027045D01*
X0464Y027038D01*
Y0272D01*
D02*
G37*
G36*
X04625Y026297D02*
X046175Y026282D01*
X046111Y026239D01*
X046068Y026175D01*
X046053Y0261D01*
X046068Y026025D01*
X046111Y025961D01*
X046175Y025918D01*
X04625Y025903D01*
X046325Y025918D01*
X046389Y025961D01*
X046432Y026025D01*
X046447Y0261D01*
X046432Y026175D01*
X046389Y026239D01*
X046325Y026282D01*
X04625Y026297D01*
D02*
G37*
G36*
X04075Y026097D02*
X040675Y026082D01*
X040611Y026039D01*
X040568Y025975D01*
X040553Y0259D01*
X040568Y025825D01*
X040611Y025761D01*
X040675Y025718D01*
X04075Y025703D01*
X040825Y025718D01*
X040889Y025761D01*
X040932Y025825D01*
X040947Y0259D01*
X040932Y025975D01*
X040889Y026039D01*
X040825Y026082D01*
X04075Y026097D01*
D02*
G37*
%LPD*%
D15*
X04435Y02525D02*
X0504Y0192D01*
X0447Y02515D02*
X0507Y01915D01*
X0359Y01875D02*
X03745Y0203D01*
Y02195D02*
X03905Y02355D01*
X03745Y0203D02*
Y02195D01*
X037525Y026475D02*
X041625D01*
X03775Y0263D02*
X041553D01*
X03585Y0244D02*
X03775Y0263D01*
X0355Y02445D02*
X037525Y026475D01*
X05225Y0235D02*
X05525Y0205D01*
X0468Y0235D02*
X05225D01*
X03535Y02445D02*
X0355D01*
X0504Y0172D02*
Y0192D01*
X03765Y0179D02*
X0394Y01965D01*
X0397D01*
X041625Y026475D02*
X042Y0261D01*
X04315Y0242D02*
Y02535D01*
X0434Y0256D01*
X0507Y01915D02*
X05115D01*
X04165Y0259D02*
Y026203D01*
X041553Y0263D02*
X04165Y026203D01*
X0434Y0256D02*
Y02625D01*
X04305Y0259D02*
Y0263D01*
X042Y0259D02*
Y0261D01*
X03585Y0272D02*
X04245D01*
X0434Y02625D01*
X04245Y0269D02*
X04305Y0263D01*
X0355Y0269D02*
X04245D01*
X0281Y0195D02*
X0355Y0269D01*
X042Y02235D02*
X0421Y02225D01*
X042Y02235D02*
Y0259D01*
X04435Y02525D02*
Y0268D01*
X04739Y02918D02*
X04894D01*
X0447Y02515D02*
Y02695D01*
X04385Y0271D02*
X04429Y02754D01*
X04575D02*
X04739Y02918D01*
X04559Y025969D02*
Y02754D01*
Y025969D02*
X0456Y025959D01*
X04429Y02754D02*
X04559D01*
X04575D01*
X03205Y0226D02*
X03285D01*
X03045Y021D02*
X03205Y0226D01*
X03045Y0203D02*
Y021D01*
Y0203D02*
X03155Y0192D01*
X0329Y02535D02*
Y02885D01*
X03295Y0289D01*
X0499Y01535D02*
X05185D01*
X04715Y0181D02*
X0499Y01535D01*
D16*
X0313Y0169D02*
X0403Y0259D01*
X03605Y02785D02*
X04235D01*
X03235Y02415D02*
X03605Y02785D01*
X0331Y0205D02*
X03595Y02335D01*
X0309Y0205D02*
X0331D01*
X0298Y0169D02*
X0313D01*
X0326Y0174D02*
X03265D01*
X0427Y0259D02*
Y025908D01*
X041893Y026715D02*
X0427Y025908D01*
X036865Y026715D02*
X041893D01*
X03505Y0249D02*
X036865Y026715D01*
X03505Y02285D02*
Y0249D01*
X03265Y0174D02*
X0362Y02095D01*
X0442Y01665D02*
X0479Y02035D01*
X0425Y01665D02*
X0442D01*
X04125Y0259D02*
X041253Y025897D01*
Y017897D02*
X0425Y01665D01*
X041253Y017897D02*
Y025897D01*
D19*
X0392Y02955D02*
D03*
X031Y01645D02*
D03*
X0247Y0295D02*
D03*
X02505Y03025D02*
D03*
X0424Y02035D02*
D03*
X0403Y0259D02*
D03*
X04385Y0271D02*
D03*
X04315Y0242D02*
D03*
X05185Y01535D02*
D03*
X05135Y01565D02*
D03*
X0281Y0195D02*
D03*
X04235Y02785D02*
D03*
X0359Y01875D02*
D03*
X03745Y0203D02*
D03*
X03905Y02355D02*
D03*
X03585Y0244D02*
D03*
X03235Y02415D02*
D03*
X0329Y02535D02*
D03*
X05525Y0205D02*
D03*
X0468Y0235D02*
D03*
X03535Y02445D02*
D03*
X03595Y02335D02*
D03*
X0309Y0205D02*
D03*
X0504Y0172D02*
D03*
X04715Y0181D02*
D03*
X0479Y02035D02*
D03*
X03765Y0179D02*
D03*
X0397Y01965D02*
D03*
X0421Y02225D02*
D03*
X04125Y0259D02*
D03*
X04435Y0268D02*
D03*
X0427Y0259D02*
D03*
X03585Y0272D02*
D03*
X05115Y01915D02*
D03*
X044966Y015616D02*
D03*
X0362Y02095D02*
D03*
X0298Y0169D02*
D03*
X0326Y0174D02*
D03*
X04165Y0259D02*
D03*
X04305D02*
D03*
X042D02*
D03*
X03505Y02285D02*
D03*
X04625Y02485D02*
D03*
X0392Y0164D02*
D03*
X03155Y0192D02*
D03*
X04625Y01765D02*
D03*
X0506Y01465D02*
D03*
X0423Y0219D02*
D03*
X03285Y0226D02*
D03*
X04645Y02725D02*
D03*
X0436Y0278D02*
D03*
X0368Y02455D02*
D03*
X054453Y015147D02*
D03*
X0456Y025959D02*
D03*
X04291Y018986D02*
D03*
X04405Y01865D02*
D03*
X04894Y02918D02*
D03*
X0447Y02695D02*
D03*
X04577Y02996D02*
D03*
X0425Y01665D02*
D03*
X04396Y01701D02*
D03*
X04705Y0214D02*
D03*
X03295Y0289D02*
D03*
D22*
X04577Y02996D02*
X04816D01*
X04894Y02918D01*
X0424Y01857D02*
X04396Y01701D01*
X0424Y01857D02*
Y02035D01*
M02*
