G04 Layer_Color=8388736*
%FSTAX24Y24*%
%MOIN*%
G70*
G01*
G75*
%ADD47R,0.0415X0.0415*%
%ADD48R,0.0630X0.0580*%
%ADD49R,0.0430X0.0780*%
%ADD50R,0.0780X0.0430*%
%ADD51R,0.0277X0.0198*%
%ADD52C,0.0741*%
%ADD53C,0.0316*%
%ADD54C,0.1655*%
%ADD55C,0.0277*%
D47*
X051605Y0277D02*
D03*
X050995D02*
D03*
X025445Y0295D02*
D03*
X026055D02*
D03*
D48*
X05475Y02975D02*
D03*
Y03065D02*
D03*
X05575Y02975D02*
D03*
Y03065D02*
D03*
X0537Y02975D02*
D03*
Y03065D02*
D03*
D49*
X046136Y01953D02*
D03*
Y01697D02*
D03*
X044364Y01953D02*
D03*
Y01697D02*
D03*
X025886Y02353D02*
D03*
Y02097D02*
D03*
X024114Y02353D02*
D03*
Y02097D02*
D03*
X037636Y01953D02*
D03*
Y01697D02*
D03*
X035864Y01953D02*
D03*
Y01697D02*
D03*
X047114D02*
D03*
Y01953D02*
D03*
X048886Y01697D02*
D03*
Y01953D02*
D03*
X031386Y02353D02*
D03*
Y02097D02*
D03*
X029614Y02353D02*
D03*
Y02097D02*
D03*
X030886Y02753D02*
D03*
Y02497D02*
D03*
X029114Y02753D02*
D03*
Y02497D02*
D03*
X034136Y02353D02*
D03*
Y02097D02*
D03*
X032364Y02353D02*
D03*
Y02097D02*
D03*
X036886Y02353D02*
D03*
Y02097D02*
D03*
X035114Y02353D02*
D03*
Y02097D02*
D03*
X044636Y02753D02*
D03*
Y02497D02*
D03*
X042864Y02753D02*
D03*
Y02497D02*
D03*
X042386Y02353D02*
D03*
Y02097D02*
D03*
X040614Y02353D02*
D03*
Y02097D02*
D03*
X047886Y02353D02*
D03*
Y02097D02*
D03*
X046114Y02353D02*
D03*
Y02097D02*
D03*
X043136Y01953D02*
D03*
Y01697D02*
D03*
X041364Y01953D02*
D03*
Y01697D02*
D03*
X040386Y01953D02*
D03*
Y01697D02*
D03*
X038614Y01953D02*
D03*
Y01697D02*
D03*
X047386Y02753D02*
D03*
Y02497D02*
D03*
X045614Y02753D02*
D03*
Y02497D02*
D03*
X050136Y02753D02*
D03*
Y02497D02*
D03*
X048364Y02753D02*
D03*
Y02497D02*
D03*
X025386Y02753D02*
D03*
Y02497D02*
D03*
X023614Y02753D02*
D03*
Y02497D02*
D03*
X033636Y02753D02*
D03*
Y02497D02*
D03*
X031864Y02753D02*
D03*
Y02497D02*
D03*
X028636Y02353D02*
D03*
Y02097D02*
D03*
X026864Y02353D02*
D03*
Y02097D02*
D03*
X036386Y02753D02*
D03*
Y02497D02*
D03*
X034614Y02753D02*
D03*
Y02497D02*
D03*
X041886Y02753D02*
D03*
Y02497D02*
D03*
X040114Y02753D02*
D03*
Y02497D02*
D03*
X034886Y01953D02*
D03*
Y01697D02*
D03*
X033114Y01953D02*
D03*
Y01697D02*
D03*
X029272Y0195D02*
D03*
Y016941D02*
D03*
X0275Y0195D02*
D03*
Y016941D02*
D03*
X039136Y02753D02*
D03*
Y02497D02*
D03*
X037364Y02753D02*
D03*
Y02497D02*
D03*
X0265Y0195D02*
D03*
Y016941D02*
D03*
X024728Y0195D02*
D03*
Y016941D02*
D03*
X045136Y02353D02*
D03*
Y02097D02*
D03*
X043364Y02353D02*
D03*
Y02097D02*
D03*
X028136Y02753D02*
D03*
Y02497D02*
D03*
X026364Y02753D02*
D03*
Y02497D02*
D03*
X039636Y02353D02*
D03*
Y02097D02*
D03*
X037864Y02353D02*
D03*
Y02097D02*
D03*
X032136Y01953D02*
D03*
Y01697D02*
D03*
X030364Y01953D02*
D03*
Y01697D02*
D03*
D50*
X05522Y026636D02*
D03*
X05778D02*
D03*
X05522Y024864D02*
D03*
X05778D02*
D03*
X05653Y021114D02*
D03*
X05397D02*
D03*
X05653Y022886D02*
D03*
X05397D02*
D03*
X05528Y017364D02*
D03*
X05272D02*
D03*
X05528Y019136D02*
D03*
X05272D02*
D03*
X03572Y015636D02*
D03*
X03828D02*
D03*
X03572Y013864D02*
D03*
X03828D02*
D03*
D51*
X053388Y02805D02*
D03*
X053112D02*
D03*
D52*
X0407Y0159D02*
D03*
X0397D02*
D03*
X0345Y015896D02*
D03*
X0315D02*
D03*
D53*
X0476Y0264D02*
D03*
X0479Y02555D02*
D03*
X0483D02*
D03*
X0272Y0295D02*
D03*
X05425Y03065D02*
D03*
X0532D02*
D03*
X05525D02*
D03*
X03845Y02955D02*
D03*
X0392D02*
D03*
X04145Y0295D02*
D03*
X04295D02*
D03*
X0437D02*
D03*
X0422D02*
D03*
X0407D02*
D03*
X03995Y02955D02*
D03*
X05205Y0275D02*
D03*
X05145Y0274D02*
D03*
X0528Y02805D02*
D03*
X0537D02*
D03*
X04625Y0291D02*
D03*
X031Y01645D02*
D03*
X0247Y0295D02*
D03*
X02505Y03025D02*
D03*
X0424Y02035D02*
D03*
X0403Y0259D02*
D03*
X04385Y0271D02*
D03*
X04315Y0242D02*
D03*
X05625Y0183D02*
D03*
X05115Y0172D02*
D03*
X05185Y01535D02*
D03*
X05135Y01565D02*
D03*
X0505Y0244D02*
D03*
X05105Y0273D02*
D03*
X0555Y01635D02*
D03*
X0281Y0195D02*
D03*
X04075Y0259D02*
D03*
X04235Y02785D02*
D03*
X0359Y01875D02*
D03*
X03745Y0203D02*
D03*
X03905Y02355D02*
D03*
X03585Y0244D02*
D03*
X03235Y02415D02*
D03*
X0323Y02535D02*
D03*
X0329D02*
D03*
X0509Y0207D02*
D03*
X05525Y0205D02*
D03*
X0468Y0235D02*
D03*
X0404Y0164D02*
D03*
X03535Y02445D02*
D03*
X03595Y02335D02*
D03*
X0309Y0205D02*
D03*
X0504Y0172D02*
D03*
X04715Y0181D02*
D03*
X05095Y0221D02*
D03*
X0479Y02035D02*
D03*
X03765Y0179D02*
D03*
X0397Y01965D02*
D03*
X0421Y02225D02*
D03*
X0426Y02855D02*
D03*
X032Y0184D02*
D03*
X0457Y01965D02*
D03*
X04125Y0259D02*
D03*
X04435Y0268D02*
D03*
X04235Y0259D02*
D03*
X0427D02*
D03*
X03585Y0272D02*
D03*
X0431Y02215D02*
D03*
X0525Y0248D02*
D03*
X05115Y01915D02*
D03*
X03255Y0191D02*
D03*
X0369Y017D02*
D03*
X044966Y015616D02*
D03*
X0362Y02095D02*
D03*
X0298Y0169D02*
D03*
X0326Y0174D02*
D03*
X04235Y0242D02*
D03*
X04275D02*
D03*
X04165Y0259D02*
D03*
X04305D02*
D03*
X042D02*
D03*
X03505Y02285D02*
D03*
X04625Y02485D02*
D03*
X0359Y02015D02*
D03*
X03735Y02995D02*
D03*
X0392Y0164D02*
D03*
X04325Y02295D02*
D03*
X0441Y0209D02*
D03*
X04455D02*
D03*
X03395Y01515D02*
D03*
X0344D02*
D03*
X0393Y02605D02*
D03*
X0484Y0282D02*
D03*
X0337Y0201D02*
D03*
X03155Y0192D02*
D03*
X04625Y01765D02*
D03*
X04535Y0196D02*
D03*
X046628Y01955D02*
D03*
X053Y02975D02*
D03*
X05245Y0292D02*
D03*
X0506Y01465D02*
D03*
X04255Y0221D02*
D03*
X0423Y0219D02*
D03*
X03285Y0226D02*
D03*
X04645Y02725D02*
D03*
X0436Y0278D02*
D03*
X0368Y02455D02*
D03*
X054453Y015147D02*
D03*
X052395Y02675D02*
D03*
X0456Y025959D02*
D03*
X0452Y0253D02*
D03*
X04615Y0255D02*
D03*
X04291Y018986D02*
D03*
X04405Y01865D02*
D03*
X044025Y019989D02*
D03*
X04405Y0203D02*
D03*
X0427Y0201D02*
D03*
X05385Y0248D02*
D03*
X05325D02*
D03*
X0524Y0225D02*
D03*
X040698Y017652D02*
D03*
X04933Y01986D02*
D03*
X04894Y02918D02*
D03*
X0447Y02695D02*
D03*
X04625Y03035D02*
D03*
X04577Y02996D02*
D03*
X0451Y01925D02*
D03*
X0425Y01665D02*
D03*
X0406Y0221D02*
D03*
X04155D02*
D03*
X03951Y02441D02*
D03*
X041Y0221D02*
D03*
X03583Y02995D02*
D03*
X03693Y02932D02*
D03*
X04396Y01701D02*
D03*
X05663Y03015D02*
D03*
X0351Y0162D02*
D03*
X0408Y01975D02*
D03*
X04705Y0214D02*
D03*
X05165Y02165D02*
D03*
X04945Y03065D02*
D03*
X051Y0282D02*
D03*
X0484Y02885D02*
D03*
X03295Y0289D02*
D03*
X0498Y023D02*
D03*
X0473Y0242D02*
D03*
X04625Y0261D02*
D03*
D54*
X04965Y03165D02*
D03*
X049657Y042672D02*
D03*
X032826D02*
D03*
Y031746D02*
D03*
D55*
X05179Y02566D02*
D03*
X05134D02*
D03*
Y02521D02*
D03*
X05087D02*
D03*
X05134Y02621D02*
D03*
X05179D02*
D03*
X05087Y02566D02*
D03*
Y02621D02*
D03*
X05179Y02522D02*
D03*
M02*
