G04 Layer_Color=16711935*
%FSTAX24Y24*%
%MOIN*%
G70*
G01*
G75*
%ADD83C,0.0039*%
%ADD84C,0.0020*%
D83*
X043598Y026502D02*
G03*
X043598Y026502I-000197J0D01*
G01*
X050331Y017801D02*
G03*
X050331Y017801I-000197J0D01*
G01*
X047865Y025813D02*
Y026187D01*
X048535Y025813D02*
Y026187D01*
X047865Y025813D02*
X048535D01*
X047865Y026187D02*
X048535D01*
X053122Y027981D02*
X053378D01*
X053122Y028119D02*
X053378D01*
Y027981D02*
Y028119D01*
X053122Y027981D02*
Y028119D01*
X048315Y030587D02*
X048985D01*
X048315Y030213D02*
X048985D01*
Y030587D01*
X048315Y030213D02*
Y030587D01*
Y029787D02*
X048985D01*
X048315Y029413D02*
X048985D01*
Y029787D01*
X048315Y029413D02*
Y029787D01*
X053513Y030115D02*
Y030785D01*
X053887Y030115D02*
Y030785D01*
X053513D02*
X053887D01*
X053513Y030115D02*
X053887D01*
X051187Y023365D02*
Y024035D01*
X050813Y023365D02*
Y024035D01*
Y023365D02*
X051187D01*
X050813Y024035D02*
X051187D01*
X052034Y027769D02*
X05229D01*
X052034Y027631D02*
X05229D01*
Y027769D01*
X052034Y027631D02*
Y027769D01*
X043045Y017763D02*
Y018137D01*
X042375Y017763D02*
Y018137D01*
X043045D01*
X042375Y017763D02*
X043045D01*
X029065Y029313D02*
Y029687D01*
X029735Y029313D02*
Y029687D01*
X029065Y029313D02*
X029735D01*
X029065Y029687D02*
X029735D01*
X043756Y021344D02*
Y026856D01*
X038244Y021344D02*
Y026856D01*
X043756D01*
X038244Y021344D02*
X043756D01*
X052613Y014615D02*
X052987D01*
X052613Y015285D02*
X052987D01*
Y014615D02*
Y015285D01*
X052613Y014615D02*
Y015285D01*
X052063Y014615D02*
X052437D01*
X052063Y015285D02*
X052437D01*
Y014615D02*
Y015285D01*
X052063Y014615D02*
Y015285D01*
X04978Y018156D02*
X05322D01*
X04978Y016585D02*
X05322D01*
X04978D02*
Y018156D01*
X05322Y016585D02*
Y018156D01*
X054563Y030115D02*
X054937D01*
X054563Y030785D02*
X054937D01*
Y030115D02*
Y030785D01*
X054563Y030115D02*
Y030785D01*
X055563Y030115D02*
X055937D01*
X055563Y030785D02*
X055937D01*
Y030115D02*
Y030785D01*
X055563Y030115D02*
Y030785D01*
D84*
X044255Y013654D02*
G03*
X044326Y013583I000071J0D01*
G01*
Y013441D02*
G03*
X044326Y013583I0J000071D01*
G01*
X048074D02*
G03*
X048074Y013441I0J-000071D01*
G01*
Y013583D02*
G03*
X048145Y013654I0J000071D01*
G01*
X048197Y013839D02*
G03*
X048236Y013878I0J000039D01*
G01*
Y013997D02*
G03*
X048197Y014036I-000039J0D01*
G01*
X048035Y014075D02*
G03*
X048075Y014036I000039J0D01*
G01*
Y014233D02*
G03*
X048035Y014194I0J-000039D01*
G01*
X048197Y014233D02*
G03*
X048236Y014273I0J000039D01*
G01*
Y014391D02*
G03*
X048197Y014431I-000039J0D01*
G01*
X048035Y01447D02*
G03*
X048075Y014431I000039J0D01*
G01*
Y014628D02*
G03*
X048035Y014589I0J-000039D01*
G01*
X048197Y014628D02*
G03*
X048236Y014668I0J000039D01*
G01*
Y014786D02*
G03*
X048197Y014826I-000039J0D01*
G01*
X048035Y014865D02*
G03*
X048075Y014826I000039J0D01*
G01*
Y015023D02*
G03*
X048035Y014984I0J-000039D01*
G01*
X048197Y015023D02*
G03*
X048236Y015062I0J000039D01*
G01*
Y015181D02*
G03*
X048197Y01522I-000039J0D01*
G01*
X044203D02*
G03*
X044164Y015181I0J-000039D01*
G01*
Y015062D02*
G03*
X044203Y015023I000039J0D01*
G01*
X044365Y014984D02*
G03*
X044325Y015023I-000039J0D01*
G01*
Y014826D02*
G03*
X044365Y014865I0J000039D01*
G01*
X044203Y014826D02*
G03*
X044164Y014786I0J-000039D01*
G01*
Y014668D02*
G03*
X044203Y014628I000039J0D01*
G01*
X044365Y014589D02*
G03*
X044325Y014628I-000039J0D01*
G01*
Y014431D02*
G03*
X044365Y01447I0J000039D01*
G01*
X044203Y014431D02*
G03*
X044164Y014391I0J-000039D01*
G01*
Y014273D02*
G03*
X044203Y014233I000039J0D01*
G01*
X044365Y014194D02*
G03*
X044325Y014233I-000039J0D01*
G01*
Y014036D02*
G03*
X044365Y014075I0J000039D01*
G01*
X044203Y014036D02*
G03*
X044164Y013997I0J-000039D01*
G01*
Y013878D02*
G03*
X044203Y013839I000039J0D01*
G01*
X046787Y013543D02*
X046936Y013843D01*
X046637D02*
X046936D01*
X046637D02*
X046787Y013543D01*
X044653Y013989D02*
X044692Y013843D01*
X047645D02*
X047995D01*
X044653Y013989D02*
Y01522D01*
X044802Y0135D02*
X047676D01*
X047645D02*
Y013843D01*
X047747D02*
Y015074D01*
X047708Y01522D02*
X047747Y015074D01*
X044834Y0135D02*
Y013843D01*
X046078Y013252D02*
Y0135D01*
Y013252D02*
X046322D01*
Y0135D01*
X046866Y013252D02*
Y0135D01*
X04711Y013252D02*
Y0135D01*
X046866Y013252D02*
X04711D01*
X046716D02*
Y0135D01*
X046472Y013252D02*
Y0135D01*
Y013252D02*
X046716D01*
X045535D02*
Y0135D01*
X045291Y013252D02*
X045535D01*
X045291D02*
Y0135D01*
X045929Y013252D02*
Y0135D01*
X045684Y013252D02*
X045929D01*
X045684D02*
Y0135D01*
X044255Y013654D02*
Y013811D01*
X043854Y013091D02*
Y013441D01*
X04509Y013091D02*
X04518Y0135D01*
X043854Y013441D02*
X044326D01*
X044255Y013811D02*
X044834D01*
X044802Y0135D02*
Y013669D01*
X044764Y013811D02*
X044802Y013669D01*
X048074Y013441D02*
X048546D01*
X048145Y013654D02*
Y013811D01*
X047676Y013669D02*
X047714Y013811D01*
X047676Y0135D02*
Y013669D01*
X04722Y0135D02*
X04731Y013091D01*
X043854D02*
X048546D01*
Y013441D01*
X047645Y013811D02*
X048145D01*
X047846Y015074D02*
X047885Y01522D01*
X047846Y01472D02*
Y015074D01*
X047747Y01472D02*
X047995D01*
Y013843D02*
Y01522D01*
X044203D02*
X048197D01*
X044515Y013843D02*
X044554Y013989D01*
X044405Y014256D02*
X044554D01*
X044405Y013843D02*
Y01522D01*
X044554Y013989D02*
Y014343D01*
X044405Y013843D02*
X044834D01*
X044554Y014343D02*
X044653D01*
X046356Y015421D02*
X046434D01*
X045568D02*
X045647D01*
X046749D02*
X046828D01*
X045962Y01522D02*
Y015669D01*
X046041Y01522D02*
Y015669D01*
X045962Y015421D02*
X046041D01*
X045568Y015472D02*
X045647D01*
X046356D02*
X046434D01*
X045962D02*
X046041D01*
X046749D02*
X046828D01*
X045568Y015618D02*
X045647D01*
X045568Y015669D02*
X045647D01*
Y01522D02*
Y015669D01*
X045568Y01522D02*
Y015669D01*
X045962Y015618D02*
X046041D01*
X046356D02*
X046434D01*
X046356Y015669D02*
X046434D01*
X046356Y01522D02*
Y015669D01*
X046434Y01522D02*
Y015669D01*
X045962D02*
X046041D01*
X046749Y015618D02*
X046828D01*
X046749Y015669D02*
X046828D01*
X046749Y01522D02*
Y015669D01*
X046828Y01522D02*
Y015669D01*
X047846Y013839D02*
Y013843D01*
X047768Y013839D02*
Y013843D01*
Y013839D02*
X048197D01*
X048236Y013878D02*
Y013997D01*
X048075Y014036D02*
X048197D01*
X048035Y014075D02*
Y014194D01*
X048075Y014233D02*
X048197D01*
X048236Y014273D02*
Y014391D01*
X048075Y014431D02*
X048197D01*
X048035Y01447D02*
Y014589D01*
X048075Y014628D02*
X048197D01*
X048236Y014668D02*
Y014786D01*
X048075Y014826D02*
X048197D01*
X048035Y014865D02*
Y014984D01*
X048075Y015023D02*
X048197D01*
X048236Y015062D02*
Y015181D01*
X044164Y015062D02*
Y015181D01*
X044203Y015023D02*
X044325D01*
X044365Y014865D02*
Y014984D01*
X044203Y014826D02*
X044325D01*
X044164Y014668D02*
Y014786D01*
X044203Y014628D02*
X044325D01*
X044365Y01447D02*
Y014589D01*
X044203Y014431D02*
X044325D01*
X044164Y014273D02*
Y014391D01*
X044203Y014233D02*
X044325D01*
X044365Y014075D02*
Y014194D01*
X044203Y014036D02*
X044325D01*
X044164Y013878D02*
Y013997D01*
X044203Y013839D02*
X044534D01*
X044535Y013843D01*
M02*
