G04 Layer_Color=2752767*
%FSTAX24Y24*%
%MOIN*%
G70*
G01*
G75*
%ADD85C,0.0020*%
%ADD86C,0.0027*%
D85*
X04062Y01582D02*
Y01598D01*
X04078D01*
Y01582D01*
X04062D01*
X03962D02*
Y01598D01*
X03978D01*
Y01582D01*
X03962D01*
X03442Y015816D02*
Y015976D01*
X03458D01*
Y015816D01*
X03442D01*
X03142D02*
Y015976D01*
X03158D01*
Y015816D01*
X03142D01*
X04965Y03157D02*
X04957Y03173D01*
X04973D01*
X04965Y03157D01*
X049657Y042592D02*
X049577Y042752D01*
X049737D01*
X049657Y042592D01*
X032826D02*
X032746Y042752D01*
X032906D01*
X032826Y042592D01*
Y031666D02*
X032746Y031826D01*
X032906D01*
X032826Y031666D01*
D86*
X04768Y0264D02*
G03*
X04768Y0264I-00008J0D01*
G01*
X04798Y02555D02*
G03*
X04798Y02555I-00008J0D01*
G01*
X04838D02*
G03*
X04838Y02555I-00008J0D01*
G01*
X05187Y02566D02*
G03*
X05187Y02566I-00008J0D01*
G01*
X05142D02*
G03*
X05142Y02566I-00008J0D01*
G01*
Y02521D02*
G03*
X05142Y02521I-00008J0D01*
G01*
X05095D02*
G03*
X05095Y02521I-00008J0D01*
G01*
X05142Y02621D02*
G03*
X05142Y02621I-00008J0D01*
G01*
X05187D02*
G03*
X05187Y02621I-00008J0D01*
G01*
X05095Y02566D02*
G03*
X05095Y02566I-00008J0D01*
G01*
Y02621D02*
G03*
X05095Y02621I-00008J0D01*
G01*
X05187Y02522D02*
G03*
X05187Y02522I-00008J0D01*
G01*
X02728Y0295D02*
G03*
X02728Y0295I-00008J0D01*
G01*
X05433Y03065D02*
G03*
X05433Y03065I-00008J0D01*
G01*
X05328D02*
G03*
X05328Y03065I-00008J0D01*
G01*
X05533D02*
G03*
X05533Y03065I-00008J0D01*
G01*
X03853Y02955D02*
G03*
X03853Y02955I-00008J0D01*
G01*
X03928D02*
G03*
X03928Y02955I-00008J0D01*
G01*
X04153Y0295D02*
G03*
X04153Y0295I-00008J0D01*
G01*
X04303D02*
G03*
X04303Y0295I-00008J0D01*
G01*
X04378D02*
G03*
X04378Y0295I-00008J0D01*
G01*
X04228D02*
G03*
X04228Y0295I-00008J0D01*
G01*
X04078D02*
G03*
X04078Y0295I-00008J0D01*
G01*
X04003Y02955D02*
G03*
X04003Y02955I-00008J0D01*
G01*
X05213Y0275D02*
G03*
X05213Y0275I-00008J0D01*
G01*
X05153Y0274D02*
G03*
X05153Y0274I-00008J0D01*
G01*
X05288Y02805D02*
G03*
X05288Y02805I-00008J0D01*
G01*
X05378D02*
G03*
X05378Y02805I-00008J0D01*
G01*
X04633Y0291D02*
G03*
X04633Y0291I-00008J0D01*
G01*
X03108Y01645D02*
G03*
X03108Y01645I-00008J0D01*
G01*
X02478Y0295D02*
G03*
X02478Y0295I-00008J0D01*
G01*
X02513Y03025D02*
G03*
X02513Y03025I-00008J0D01*
G01*
X04248Y02035D02*
G03*
X04248Y02035I-00008J0D01*
G01*
X04038Y0259D02*
G03*
X04038Y0259I-00008J0D01*
G01*
X04393Y0271D02*
G03*
X04393Y0271I-00008J0D01*
G01*
X04323Y0242D02*
G03*
X04323Y0242I-00008J0D01*
G01*
X05633Y0183D02*
G03*
X05633Y0183I-00008J0D01*
G01*
X05123Y0172D02*
G03*
X05123Y0172I-00008J0D01*
G01*
X05193Y01535D02*
G03*
X05193Y01535I-00008J0D01*
G01*
X05143Y01565D02*
G03*
X05143Y01565I-00008J0D01*
G01*
X05058Y0244D02*
G03*
X05058Y0244I-00008J0D01*
G01*
X05113Y0273D02*
G03*
X05113Y0273I-00008J0D01*
G01*
X05558Y01635D02*
G03*
X05558Y01635I-00008J0D01*
G01*
X02818Y0195D02*
G03*
X02818Y0195I-00008J0D01*
G01*
X04083Y0259D02*
G03*
X04083Y0259I-00008J0D01*
G01*
X04243Y02785D02*
G03*
X04243Y02785I-00008J0D01*
G01*
X03598Y01875D02*
G03*
X03598Y01875I-00008J0D01*
G01*
X03753Y0203D02*
G03*
X03753Y0203I-00008J0D01*
G01*
X03913Y02355D02*
G03*
X03913Y02355I-00008J0D01*
G01*
X03593Y0244D02*
G03*
X03593Y0244I-00008J0D01*
G01*
X03243Y02415D02*
G03*
X03243Y02415I-00008J0D01*
G01*
X03238Y02535D02*
G03*
X03238Y02535I-00008J0D01*
G01*
X03298D02*
G03*
X03298Y02535I-00008J0D01*
G01*
X05098Y0207D02*
G03*
X05098Y0207I-00008J0D01*
G01*
X05533Y0205D02*
G03*
X05533Y0205I-00008J0D01*
G01*
X04688Y0235D02*
G03*
X04688Y0235I-00008J0D01*
G01*
X04048Y0164D02*
G03*
X04048Y0164I-00008J0D01*
G01*
X03543Y02445D02*
G03*
X03543Y02445I-00008J0D01*
G01*
X03603Y02335D02*
G03*
X03603Y02335I-00008J0D01*
G01*
X03098Y0205D02*
G03*
X03098Y0205I-00008J0D01*
G01*
X05048Y0172D02*
G03*
X05048Y0172I-00008J0D01*
G01*
X04723Y0181D02*
G03*
X04723Y0181I-00008J0D01*
G01*
X05103Y0221D02*
G03*
X05103Y0221I-00008J0D01*
G01*
X04798Y02035D02*
G03*
X04798Y02035I-00008J0D01*
G01*
X03773Y0179D02*
G03*
X03773Y0179I-00008J0D01*
G01*
X03978Y01965D02*
G03*
X03978Y01965I-00008J0D01*
G01*
X04218Y02225D02*
G03*
X04218Y02225I-00008J0D01*
G01*
X04268Y02855D02*
G03*
X04268Y02855I-00008J0D01*
G01*
X03208Y0184D02*
G03*
X03208Y0184I-00008J0D01*
G01*
X04578Y01965D02*
G03*
X04578Y01965I-00008J0D01*
G01*
X04133Y0259D02*
G03*
X04133Y0259I-00008J0D01*
G01*
X04443Y0268D02*
G03*
X04443Y0268I-00008J0D01*
G01*
X04243Y0259D02*
G03*
X04243Y0259I-00008J0D01*
G01*
X04278D02*
G03*
X04278Y0259I-00008J0D01*
G01*
X03593Y0272D02*
G03*
X03593Y0272I-00008J0D01*
G01*
X04318Y02215D02*
G03*
X04318Y02215I-00008J0D01*
G01*
X05258Y0248D02*
G03*
X05258Y0248I-00008J0D01*
G01*
X05123Y01915D02*
G03*
X05123Y01915I-00008J0D01*
G01*
X03263Y0191D02*
G03*
X03263Y0191I-00008J0D01*
G01*
X03698Y017D02*
G03*
X03698Y017I-00008J0D01*
G01*
X045046Y015616D02*
G03*
X045046Y015616I-00008J0D01*
G01*
X03628Y02095D02*
G03*
X03628Y02095I-00008J0D01*
G01*
X02988Y0169D02*
G03*
X02988Y0169I-00008J0D01*
G01*
X03268Y0174D02*
G03*
X03268Y0174I-00008J0D01*
G01*
X04243Y0242D02*
G03*
X04243Y0242I-00008J0D01*
G01*
X04283D02*
G03*
X04283Y0242I-00008J0D01*
G01*
X04173Y0259D02*
G03*
X04173Y0259I-00008J0D01*
G01*
X04313D02*
G03*
X04313Y0259I-00008J0D01*
G01*
X04208D02*
G03*
X04208Y0259I-00008J0D01*
G01*
X03513Y02285D02*
G03*
X03513Y02285I-00008J0D01*
G01*
X04633Y02485D02*
G03*
X04633Y02485I-00008J0D01*
G01*
X03598Y02015D02*
G03*
X03598Y02015I-00008J0D01*
G01*
X03743Y02995D02*
G03*
X03743Y02995I-00008J0D01*
G01*
X03928Y0164D02*
G03*
X03928Y0164I-00008J0D01*
G01*
X04333Y02295D02*
G03*
X04333Y02295I-00008J0D01*
G01*
X04418Y0209D02*
G03*
X04418Y0209I-00008J0D01*
G01*
X04463D02*
G03*
X04463Y0209I-00008J0D01*
G01*
X03403Y01515D02*
G03*
X03403Y01515I-00008J0D01*
G01*
X03448D02*
G03*
X03448Y01515I-00008J0D01*
G01*
X03938Y02605D02*
G03*
X03938Y02605I-00008J0D01*
G01*
X04848Y0282D02*
G03*
X04848Y0282I-00008J0D01*
G01*
X03378Y0201D02*
G03*
X03378Y0201I-00008J0D01*
G01*
X03163Y0192D02*
G03*
X03163Y0192I-00008J0D01*
G01*
X04633Y01765D02*
G03*
X04633Y01765I-00008J0D01*
G01*
X04543Y0196D02*
G03*
X04543Y0196I-00008J0D01*
G01*
X046708Y01955D02*
G03*
X046708Y01955I-00008J0D01*
G01*
X05308Y02975D02*
G03*
X05308Y02975I-00008J0D01*
G01*
X05253Y0292D02*
G03*
X05253Y0292I-00008J0D01*
G01*
X05068Y01465D02*
G03*
X05068Y01465I-00008J0D01*
G01*
X04263Y0221D02*
G03*
X04263Y0221I-00008J0D01*
G01*
X04238Y0219D02*
G03*
X04238Y0219I-00008J0D01*
G01*
X03293Y0226D02*
G03*
X03293Y0226I-00008J0D01*
G01*
X04653Y02725D02*
G03*
X04653Y02725I-00008J0D01*
G01*
X04368Y0278D02*
G03*
X04368Y0278I-00008J0D01*
G01*
X03688Y02455D02*
G03*
X03688Y02455I-00008J0D01*
G01*
X054533Y015147D02*
G03*
X054533Y015147I-00008J0D01*
G01*
X052475Y02675D02*
G03*
X052475Y02675I-00008J0D01*
G01*
X04568Y025959D02*
G03*
X04568Y025959I-00008J0D01*
G01*
X04528Y0253D02*
G03*
X04528Y0253I-00008J0D01*
G01*
X04623Y0255D02*
G03*
X04623Y0255I-00008J0D01*
G01*
X04299Y018986D02*
G03*
X04299Y018986I-00008J0D01*
G01*
X04413Y01865D02*
G03*
X04413Y01865I-00008J0D01*
G01*
X044105Y019989D02*
G03*
X044105Y019989I-00008J0D01*
G01*
X04413Y0203D02*
G03*
X04413Y0203I-00008J0D01*
G01*
X04278Y0201D02*
G03*
X04278Y0201I-00008J0D01*
G01*
X05393Y0248D02*
G03*
X05393Y0248I-00008J0D01*
G01*
X05333D02*
G03*
X05333Y0248I-00008J0D01*
G01*
X05248Y0225D02*
G03*
X05248Y0225I-00008J0D01*
G01*
X040778Y017652D02*
G03*
X040778Y017652I-00008J0D01*
G01*
X04941Y01986D02*
G03*
X04941Y01986I-00008J0D01*
G01*
X04902Y02918D02*
G03*
X04902Y02918I-00008J0D01*
G01*
X04478Y02695D02*
G03*
X04478Y02695I-00008J0D01*
G01*
X04633Y03035D02*
G03*
X04633Y03035I-00008J0D01*
G01*
X04585Y02996D02*
G03*
X04585Y02996I-00008J0D01*
G01*
X04518Y01925D02*
G03*
X04518Y01925I-00008J0D01*
G01*
X04258Y01665D02*
G03*
X04258Y01665I-00008J0D01*
G01*
X04068Y0221D02*
G03*
X04068Y0221I-00008J0D01*
G01*
X04163D02*
G03*
X04163Y0221I-00008J0D01*
G01*
X03959Y02441D02*
G03*
X03959Y02441I-00008J0D01*
G01*
X04108Y0221D02*
G03*
X04108Y0221I-00008J0D01*
G01*
X03591Y02995D02*
G03*
X03591Y02995I-00008J0D01*
G01*
X03701Y02932D02*
G03*
X03701Y02932I-00008J0D01*
G01*
X04404Y01701D02*
G03*
X04404Y01701I-00008J0D01*
G01*
X05671Y03015D02*
G03*
X05671Y03015I-00008J0D01*
G01*
X03518Y0162D02*
G03*
X03518Y0162I-00008J0D01*
G01*
X04088Y01975D02*
G03*
X04088Y01975I-00008J0D01*
G01*
X04713Y0214D02*
G03*
X04713Y0214I-00008J0D01*
G01*
X05173Y02165D02*
G03*
X05173Y02165I-00008J0D01*
G01*
X04953Y03065D02*
G03*
X04953Y03065I-00008J0D01*
G01*
X05108Y0282D02*
G03*
X05108Y0282I-00008J0D01*
G01*
X04848Y02885D02*
G03*
X04848Y02885I-00008J0D01*
G01*
X03303Y0289D02*
G03*
X03303Y0289I-00008J0D01*
G01*
X04988Y023D02*
G03*
X04988Y023I-00008J0D01*
G01*
X04738Y0242D02*
G03*
X04738Y0242I-00008J0D01*
G01*
X04633Y0261D02*
G03*
X04633Y0261I-00008J0D01*
G01*
M02*
