M48
;Layer_Color=9474304
;FILE_FORMAT=2:4
INCH,LZ
;TYPE=PLATED
T2F00S00C0.0118
T3F00S00C0.0984
;TYPE=NON_PLATED
T1F00S00C0.0661
%
T02
X03395Y01515
X0344
X044966Y015616
X0506Y01465
X05185Y01535
X054453Y015147
X0555Y01635
X05625Y0183
X05525Y0205
X0509Y0207
X05095Y0221
X05165Y02165
X0524Y0225
X0525Y0248
X05325
X05385
X05179Y02522
Y02566
X05134
Y02521
X05087
Y02566
Y02621
X05134
X05179
X052395Y02675
X05205Y0275
X05145Y0274
X05105Y0273
X051Y0282
X0528Y02805
X0537
X053Y02975
X0532Y03065
X05425
X05525
X05663Y03015
X05245Y0292
X04894Y02918
X0484Y02885
Y0282
X0476Y0264
X0479Y02555
X0483
X0473Y0242
X04705Y0214
X0479Y02035
X04933Y01986
X05115Y01915
Y0172
X0504
X05135Y01565
X04715Y0181
X0498Y023
X0505Y0244
X04945Y03065
X04625Y03035
X04577Y02996
X04625Y0291
X04645Y02725
X04625Y0261
X04615Y0255
X04625Y02485
X0452Y0253
X0456Y025959
X0447Y02695
X04435Y0268
X04385Y0271
X0436Y0278
X04235Y02785
X0426Y02855
X04295Y0295
X0437
X0422
X04145
X0407
X03995Y02955
X0392
X03845
X03735Y02995
X03693Y02932
X03583Y02995
X03585Y0272
Y0244
X03535Y02445
X0368Y02455
X03595Y02335
X03505Y02285
X03285Y0226
X03235Y02415
X0323Y02535
X0329
X03295Y0289
X0393Y02605
X0403Y0259
X04075
X04125
X04165
X042
X04235
X0427
X04305
X04315Y0242
X04275
X04235
X04325Y02295
X0431Y02215
X04255Y0221
X0423Y0219
X0421Y02225
X04155Y0221
X041
X0406
X0408Y01975
X0397Y01965
X03745Y0203
X0359Y02015
X0362Y02095
X0359Y01875
X03765Y0179
X0369Y017
X0351Y0162
X0326Y0174
X032Y0184
X03255Y0191
X03155Y0192
X0337Y0201
X03905Y02355
X03951Y02441
X0424Y02035
X0427Y0201
X04291Y018986
X04405Y01865
X044025Y019989
X04405Y0203
X0441Y0209
X04455
X04535Y0196
X0457Y01965
X0451Y01925
X046628Y01955
X04625Y01765
X04396Y01701
X0425Y01665
X0404Y0164
X0392
X040698Y017652
X0468Y0235
X0309Y0205
X0281Y0195
X0298Y0169
X031Y01645
X0272Y0295
X0247
X02505Y03025
T03
X032826Y031746
Y042672
X049657
X04965Y03165
T01
X0315Y015896
X0345
X0397Y0159
X0407
M30
