G04 Layer_Physical_Order=4*
G04 Layer_Color=16711680*
%FSTAX24Y24*%
%MOIN*%
G70*
G01*
G75*
%ADD10R,0.0335X0.0335*%
%ADD14R,0.0197X0.0118*%
%ADD15C,0.0100*%
%ADD16C,0.0120*%
%ADD17C,0.0080*%
%ADD18C,0.0661*%
%ADD19C,0.0236*%
%ADD20C,0.1575*%
%ADD21C,0.0197*%
%ADD22C,0.0200*%
%ADD23R,0.0276X0.0354*%
%ADD24R,0.0300X0.0600*%
%ADD25R,0.0354X0.0276*%
%ADD26R,0.0500X0.0550*%
%ADD27R,0.0335X0.0335*%
%ADD28R,0.1063X0.1063*%
%ADD29R,0.0098X0.0276*%
%ADD30R,0.0276X0.0098*%
%ADD31R,0.0146X0.0185*%
%ADD32R,0.1000X0.0400*%
%ADD33R,0.1000X0.0500*%
%ADD34O,0.0709X0.0118*%
%ADD35O,0.0118X0.0709*%
%ADD36R,0.0350X0.1000*%
%ADD37R,0.1000X0.0350*%
%ADD38R,0.0394X0.0354*%
G04:AMPARAMS|DCode=39|XSize=106.3mil|YSize=141.7mil|CornerRadius=13.3mil|HoleSize=0mil|Usage=FLASHONLY|Rotation=180.000|XOffset=0mil|YOffset=0mil|HoleType=Round|Shape=RoundedRectangle|*
%AMROUNDEDRECTD39*
21,1,0.1063,0.1152,0,0,180.0*
21,1,0.0797,0.1417,0,0,180.0*
1,1,0.0266,-0.0399,0.0576*
1,1,0.0266,0.0399,0.0576*
1,1,0.0266,0.0399,-0.0576*
1,1,0.0266,-0.0399,-0.0576*
%
%ADD39ROUNDEDRECTD39*%
G04:AMPARAMS|DCode=40|XSize=24mil|YSize=78.7mil|CornerRadius=3mil|HoleSize=0mil|Usage=FLASHONLY|Rotation=180.000|XOffset=0mil|YOffset=0mil|HoleType=Round|Shape=RoundedRectangle|*
%AMROUNDEDRECTD40*
21,1,0.0240,0.0727,0,0,180.0*
21,1,0.0180,0.0787,0,0,180.0*
1,1,0.0060,-0.0090,0.0364*
1,1,0.0060,0.0090,0.0364*
1,1,0.0060,0.0090,-0.0364*
1,1,0.0060,-0.0090,-0.0364*
%
%ADD40ROUNDEDRECTD40*%
%ADD41R,0.0394X0.0984*%
%ADD42R,0.0217X0.0315*%
%ADD43O,0.0157X0.0886*%
G36*
X041055Y021445D02*
X040946D01*
X040946Y021448D01*
X040947Y021455D01*
X040948Y021477D01*
X04095Y021622D01*
X04105D01*
X041055Y021445D01*
D02*
G37*
G36*
X033108Y021611D02*
X033113Y021598D01*
X033122Y021587D01*
X033134Y021577D01*
X033149Y021569D01*
X033168Y021562D01*
X03319Y021557D01*
X033216Y021553D01*
X033245Y021551D01*
X033278Y02155D01*
Y02145D01*
X033245Y021449D01*
X033216Y021447D01*
X03319Y021443D01*
X033168Y021438D01*
X033149Y021431D01*
X033134Y021423D01*
X033122Y021413D01*
X033113Y021402D01*
X033108Y021389D01*
X033106Y021375D01*
Y021625D01*
X033108Y021611D01*
D02*
G37*
G36*
X042236Y021445D02*
X042127D01*
X042127Y021448D01*
X042128Y021455D01*
X042129Y021477D01*
X042131Y021622D01*
X042231D01*
X042236Y021445D01*
D02*
G37*
G36*
X041448D02*
X041339D01*
X04134Y021448D01*
X041341Y021455D01*
X041342Y021477D01*
X041344Y021622D01*
X041444D01*
X041448Y021445D01*
D02*
G37*
G36*
X048967Y021216D02*
X048972Y021203D01*
X04898Y021192D01*
X048992Y021182D01*
X049008Y021174D01*
X049026Y021167D01*
X049049Y021162D01*
X049074Y021158D01*
X049103Y021156D01*
X049136Y021155D01*
Y021055D01*
X049103Y021054D01*
X049074Y021052D01*
X049049Y021048D01*
X049026Y021043D01*
X049008Y021036D01*
X048992Y021028D01*
X04898Y021018D01*
X048972Y021007D01*
X048967Y020994D01*
X048965Y02098D01*
Y02123D01*
X048967Y021216D01*
D02*
G37*
G36*
X048635Y02098D02*
X048633Y020994D01*
X048628Y021007D01*
X04862Y021018D01*
X048608Y021028D01*
X048592Y021036D01*
X048574Y021043D01*
X048551Y021048D01*
X048526Y021052D01*
X048496Y021054D01*
X048464Y021055D01*
Y021155D01*
X048496Y021156D01*
X048526Y021158D01*
X048551Y021162D01*
X048574Y021167D01*
X048592Y021174D01*
X048608Y021182D01*
X04862Y021192D01*
X048628Y021203D01*
X048633Y021216D01*
X048635Y02123D01*
Y02098D01*
D02*
G37*
G36*
X050116Y02164D02*
X05012Y021618D01*
X050126Y021596D01*
X050134Y021574D01*
X050145Y021552D01*
X050159Y021529D01*
X050174Y021506D01*
X050193Y021482D01*
X050213Y021459D01*
X050236Y021434D01*
Y021293D01*
X050223Y021306D01*
X050198Y021327D01*
X050185Y021335D01*
X050173Y021343D01*
X050161Y021348D01*
X05015Y021353D01*
X050138Y021356D01*
X050127Y021358D01*
X050116Y021359D01*
X050115Y021661D01*
X050116Y02164D01*
D02*
G37*
G36*
X047169Y021382D02*
X047175Y02137D01*
X047184Y021355D01*
X047197Y021337D01*
X047236Y021291D01*
X047324Y021197D01*
X047361Y021159D01*
X047291Y021089D01*
X047253Y021126D01*
X047095Y021266D01*
X04708Y021275D01*
X047068Y021281D01*
X047059Y021282D01*
X047168Y021391D01*
X047169Y021382D01*
D02*
G37*
G36*
X041072Y022003D02*
X041067Y021991D01*
X041063Y021974D01*
X04106Y021951D01*
X041054Y021891D01*
X04105Y021763D01*
X04105Y02171D01*
X04095D01*
X04095Y021763D01*
X040937Y021974D01*
X040933Y021991D01*
X040928Y022003D01*
X040923Y02201D01*
X041077D01*
X041072Y022003D01*
D02*
G37*
G36*
X042631Y022011D02*
X04263Y022002D01*
X042629Y021986D01*
X042625Y021827D01*
X042625Y021725D01*
X042525Y021701D01*
X042524Y021753D01*
X042513Y021912D01*
X042508Y02194D01*
X042502Y021964D01*
X042495Y021983D01*
X042487Y021997D01*
X042479Y022006D01*
X042633Y022016D01*
X042631Y022011D01*
D02*
G37*
G36*
X044293Y021988D02*
X0443Y021988D01*
X044322Y021986D01*
X044467Y021985D01*
Y021885D01*
X04429Y02188D01*
Y021989D01*
X044293Y021988D01*
D02*
G37*
G36*
X040676Y022007D02*
X040674Y021996D01*
X040672Y021981D01*
X040669Y021933D01*
X040666Y021719D01*
X040546Y021711D01*
X040546Y021765D01*
X040532Y021991D01*
X040529Y022003D01*
X040525Y022009D01*
X040678Y022012D01*
X040676Y022007D01*
D02*
G37*
G36*
X051747Y021722D02*
X051759Y021717D01*
X051776Y021713D01*
X051799Y02171D01*
X051859Y021704D01*
X051987Y0217D01*
X05204Y0217D01*
Y0216D01*
X051987Y0216D01*
X051776Y021587D01*
X051759Y021583D01*
X051747Y021578D01*
X05174Y021573D01*
Y021727D01*
X051747Y021722D01*
D02*
G37*
G36*
X042629Y021445D02*
X04252D01*
X042521Y021448D01*
X042522Y021455D01*
X042523Y021477D01*
X042525Y021622D01*
X042625D01*
X042629Y021445D01*
D02*
G37*
G36*
X050001Y021829D02*
X050003Y021799D01*
X050007Y021774D01*
X050012Y021752D01*
X050019Y021733D01*
X050027Y021717D01*
X050037Y021705D01*
X050048Y021697D01*
X050061Y021692D01*
X050075Y02169D01*
X049825D01*
X049839Y021692D01*
X049852Y021697D01*
X049863Y021705D01*
X049873Y021717D01*
X049881Y021733D01*
X049888Y021752D01*
X049893Y021774D01*
X049897Y021799D01*
X049899Y021829D01*
X0499Y021861D01*
X05D01*
X050001Y021829D01*
D02*
G37*
G36*
X03395Y021836D02*
X033937Y021831D01*
X033926Y021823D01*
X033916Y021811D01*
X033908Y021796D01*
X033901Y021777D01*
X033896Y021755D01*
X033892Y021729D01*
X03389Y0217D01*
X033889Y021668D01*
X033789D01*
X033789Y0217D01*
X033786Y021729D01*
X033783Y021755D01*
X033777Y021777D01*
X033771Y021796D01*
X033762Y021811D01*
X033753Y021823D01*
X033741Y021831D01*
X033729Y021836D01*
X033714Y021838D01*
X033964D01*
X03395Y021836D01*
D02*
G37*
G36*
X044411Y021141D02*
X044374Y021103D01*
X044234Y020945D01*
X044225Y02093D01*
X044219Y020918D01*
X044218Y020909D01*
X044109Y021018D01*
X044118Y021019D01*
X04413Y021025D01*
X044145Y021034D01*
X044163Y021047D01*
X044209Y021086D01*
X044303Y021174D01*
X044341Y021211D01*
X044411Y021141D01*
D02*
G37*
G36*
X044076Y019909D02*
X044078Y019886D01*
X044084D01*
X044082Y019884D01*
X044081Y019878D01*
X04408Y019871D01*
X044082Y019854D01*
X044087Y019832D01*
X044094Y019813D01*
X044102Y019798D01*
X044112Y019786D01*
X044123Y019777D01*
X044136Y019772D01*
X04415Y01977D01*
X044076Y01977D01*
X044075Y01973D01*
X043975D01*
X043975Y019759D01*
X043968Y019884D01*
X043967Y019886D01*
X043978D01*
X043975Y019941D01*
X044075D01*
X044076Y019909D01*
D02*
G37*
G36*
X050235Y019735D02*
X050233Y019749D01*
X050228Y019762D01*
X05022Y019773D01*
X050208Y019783D01*
X050192Y019791D01*
X050174Y019798D01*
X050151Y019803D01*
X050126Y019807D01*
X050097Y019809D01*
X050064Y01981D01*
Y01991D01*
X050097Y019911D01*
X050126Y019913D01*
X050151Y019917D01*
X050174Y019922D01*
X050192Y019929D01*
X050208Y019937D01*
X05022Y019947D01*
X050228Y019958D01*
X050233Y019971D01*
X050235Y019985D01*
Y019735D01*
D02*
G37*
G36*
X042607Y020078D02*
X042615Y020086D01*
X042735Y020065D01*
X042706Y020034D01*
X042681Y020004D01*
X042703Y019982D01*
X042691Y01998D01*
X042678Y019975D01*
X042662Y019967D01*
X042645Y019956D01*
X042644Y019956D01*
X042635Y019938D01*
X042629Y019921D01*
X042628Y019906D01*
X042632Y019894D01*
X042641Y019885D01*
X042654Y019879D01*
X042578Y019903D01*
X042526Y019854D01*
X042495Y019825D01*
X042425Y019895D01*
X042454Y019926D01*
X042467Y01994D01*
X04244Y019948D01*
X042266Y019809D01*
X042275Y019819D01*
X042279Y019833D01*
X042279Y019849D01*
X042274Y019867D01*
X042264Y019889D01*
X04225Y019913D01*
X042231Y019939D01*
X042207Y019968D01*
X042144Y020035D01*
X042235Y020086D01*
X042267Y020055D01*
X042326Y020005D01*
X042351Y019986D01*
X042375Y019972D01*
X042391Y019964D01*
X042406Y019961D01*
X042423Y019961D01*
X042443Y019965D01*
X042463Y019972D01*
X042485Y019982D01*
X042509Y019996D01*
X042529Y02001D01*
X042542Y020025D01*
X042556Y020045D01*
X042567Y020062D01*
X042575Y020078D01*
X04258Y020091D01*
X042582Y020103D01*
X042607Y020078D01*
D02*
G37*
G36*
X049427Y019932D02*
X049439Y019927D01*
X049456Y019923D01*
X049479Y01992D01*
X049539Y019914D01*
X049667Y01991D01*
X04972Y01991D01*
Y01981D01*
X049667Y01981D01*
X049456Y019797D01*
X049439Y019793D01*
X049427Y019788D01*
X04942Y019783D01*
Y019937D01*
X049427Y019932D01*
D02*
G37*
G36*
X039251Y019721D02*
X039255Y019673D01*
X03926Y019653D01*
X039265Y019636D01*
X039272Y019623D01*
X03928Y019612D01*
X039289Y019604D01*
X039299Y0196D01*
X039311Y019598D01*
X039089D01*
X039101Y0196D01*
X039111Y019604D01*
X03912Y019612D01*
X039128Y019623D01*
X039135Y019636D01*
X03914Y019653D01*
X039145Y019673D01*
X039148Y019695D01*
X039149Y019721D01*
X03915Y01975D01*
X03925D01*
X039251Y019721D01*
D02*
G37*
G36*
X0341Y019761D02*
X034108Y019668D01*
X034113Y019645D01*
X034118Y019627D01*
X034125Y019612D01*
X034132Y019602D01*
X034141Y019596D01*
X034151Y019594D01*
X033849D01*
X033859Y019596D01*
X033868Y019602D01*
X033875Y019612D01*
X033882Y019627D01*
X033887Y019645D01*
X033892Y019668D01*
X033895Y019695D01*
X033899Y019761D01*
X0339Y0198D01*
X0341D01*
X0341Y019761D01*
D02*
G37*
G36*
X045701Y020002D02*
X045711Y019879D01*
X045717Y019846D01*
X045724Y019818D01*
X045732Y019794D01*
X045742Y019774D01*
X045754Y019759D01*
X045766Y019748D01*
X045611Y019728D01*
X0456Y019996D01*
X0457Y020052D01*
X045701Y020002D01*
D02*
G37*
G36*
X0454Y019937D02*
X045413Y019726D01*
X045417Y019709D01*
X045422Y019697D01*
X045427Y01969D01*
X045273D01*
X045278Y019697D01*
X045283Y019709D01*
X045287Y019726D01*
X04529Y019749D01*
X045296Y019809D01*
X0453Y019937D01*
X0453Y01999D01*
X0454D01*
X0454Y019937D01*
D02*
G37*
G36*
X042628Y020807D02*
X042628Y0208D01*
X042626Y020778D01*
X042625Y020633D01*
X042525D01*
X04252Y02081D01*
X042629D01*
X042628Y020807D01*
D02*
G37*
G36*
X042038D02*
X042037Y0208D01*
X042036Y020778D01*
X042034Y020633D01*
X041934D01*
X04193Y02081D01*
X042039D01*
X042038Y020807D01*
D02*
G37*
G36*
X04481Y02109D02*
X044783Y021062D01*
X044704Y020971D01*
X044691Y020953D01*
X044681Y020937D01*
X044674Y020923D01*
X04467Y020911D01*
X044668Y0209D01*
X04455Y021018D01*
X044561Y02102D01*
X044573Y021024D01*
X044587Y021031D01*
X044603Y021041D01*
X044621Y021054D01*
X044663Y021088D01*
X044712Y021133D01*
X04474Y02116D01*
X04481Y02109D01*
D02*
G37*
G36*
X050697Y020974D02*
X050855Y020834D01*
X05087Y020825D01*
X050882Y020819D01*
X050891Y020818D01*
X050782Y020709D01*
X050781Y020718D01*
X050775Y02073D01*
X050766Y020745D01*
X050753Y020763D01*
X050714Y020809D01*
X050626Y020903D01*
X050589Y020941D01*
X050659Y021011D01*
X050697Y020974D01*
D02*
G37*
G36*
X048811Y020329D02*
X048799Y020337D01*
X048785Y020341D01*
X048768Y02034D01*
X048749Y020335D01*
X048728Y020325D01*
X048704Y020311D01*
X048678Y020292D01*
X048649Y020269D01*
X048584Y020209D01*
X048514Y020279D01*
X048546Y020313D01*
X048597Y020372D01*
X048616Y020399D01*
X04863Y020423D01*
X04864Y020444D01*
X048645Y020463D01*
X048646Y02048D01*
X048642Y020494D01*
X048634Y020506D01*
X048811Y020329D01*
D02*
G37*
G36*
X050971Y020606D02*
X050963Y020597D01*
X050955Y020582D01*
X050948Y020564D01*
X050942Y02054D01*
X050937Y020512D01*
X050932Y020479D01*
X050927Y0204D01*
X050925Y020301D01*
X050825Y020325D01*
X050817Y020616D01*
X050971Y020606D01*
D02*
G37*
G36*
X042432Y020807D02*
X042431Y0208D01*
X04243Y020778D01*
X042429Y020693D01*
X042439Y020537D01*
X042444Y020509D01*
X04245Y020485D01*
X042456Y020467D01*
X042464Y020453D01*
X042472Y020444D01*
X042318Y020435D01*
X04232Y02044D01*
X042322Y02045D01*
X042323Y020465D01*
X042326Y020545D01*
X042327Y020657D01*
X042323Y02081D01*
X042432D01*
X042432Y020807D01*
D02*
G37*
G36*
X030995Y020574D02*
X031006Y020571D01*
X031022Y020568D01*
X031044Y020566D01*
X031141Y020562D01*
X031285Y02056D01*
Y02044D01*
X031232Y02044D01*
X030995Y020426D01*
X03099Y020423D01*
Y020577D01*
X030995Y020574D01*
D02*
G37*
G36*
X052383Y024089D02*
X052429Y02405D01*
X052451Y024035D01*
X052472Y024021D01*
X052493Y02401D01*
X052514Y024002D01*
X052534Y023996D01*
X052553Y023992D01*
X052572Y023991D01*
X0525Y0239D01*
X052572Y023809D01*
X052553Y023808D01*
X052534Y023804D01*
X052514Y023798D01*
X052493Y02379D01*
X052472Y023779D01*
X052451Y023765D01*
X052429Y02375D01*
X052406Y023732D01*
X052359Y023689D01*
X052308Y023779D01*
X052331Y023803D01*
X05237Y023849D01*
X052385Y023871D01*
X052398Y023892D01*
X052402Y0239D01*
X052398Y023908D01*
X052385Y023929D01*
X05237Y023951D01*
X052352Y023974D01*
X052308Y024021D01*
X052359Y024111D01*
X052383Y024089D01*
D02*
G37*
G36*
X03771Y023652D02*
X037707Y023653D01*
X0377Y023653D01*
X037678Y023655D01*
X037533Y023656D01*
Y023756D01*
X03771Y023761D01*
Y023652D01*
D02*
G37*
G36*
X042822Y024103D02*
X042817Y024091D01*
X042813Y024074D01*
X04281Y024051D01*
X042804Y023991D01*
X0428Y023863D01*
X0428Y02381D01*
X0427D01*
X0427Y023863D01*
X042687Y024074D01*
X042683Y024091D01*
X042678Y024103D01*
X042673Y02411D01*
X042827D01*
X042822Y024103D01*
D02*
G37*
G36*
X042422D02*
X042417Y024091D01*
X042413Y024074D01*
X04241Y024051D01*
X042404Y023991D01*
X0424Y023863D01*
X0424Y02381D01*
X0423D01*
X0423Y023863D01*
X042287Y024074D01*
X042283Y024091D01*
X042278Y024103D01*
X042273Y02411D01*
X042427D01*
X042422Y024103D01*
D02*
G37*
G36*
X049618Y023649D02*
X049678Y023597D01*
X049704Y023578D01*
X049728Y023564D01*
X049749Y023554D01*
X049768Y023549D01*
X049785Y023548D01*
X049799Y023551D01*
X049811Y02356D01*
X049635Y023384D01*
X049643Y023396D01*
X049647Y02341D01*
X049646Y023427D01*
X049641Y023445D01*
X049631Y023467D01*
X049617Y023491D01*
X049598Y023517D01*
X049574Y023546D01*
X049514Y02361D01*
X049584Y023681D01*
X049618Y023649D01*
D02*
G37*
G36*
X036466Y023611D02*
X036519Y023566D01*
X036542Y023551D01*
X036562Y02354D01*
X036579Y023535D01*
X036593Y023534D01*
X036605Y023538D01*
X036614Y023546D01*
X036621Y02356D01*
X036535Y023294D01*
X036539Y023311D01*
X036539Y023329D01*
X036535Y023348D01*
X036528Y023369D01*
X036518Y023391D01*
X036504Y023414D01*
X036486Y023439D01*
X036466Y023465D01*
X036414Y023521D01*
X036435Y02364D01*
X036466Y023611D01*
D02*
G37*
G36*
X036986Y02361D02*
X036954Y023577D01*
X036902Y023517D01*
X036883Y023491D01*
X036869Y023467D01*
X036859Y023445D01*
X036854Y023427D01*
X036853Y02341D01*
X036857Y023396D01*
X036865Y023384D01*
X036689Y02356D01*
X036701Y023551D01*
X036715Y023548D01*
X036732Y023549D01*
X036751Y023554D01*
X036772Y023564D01*
X036796Y023578D01*
X036822Y023597D01*
X036851Y023621D01*
X036916Y023681D01*
X036986Y02361D01*
D02*
G37*
G36*
X052245Y02358D02*
X052249Y023522D01*
X05225Y023518D01*
X052251Y023516D01*
X052253Y023515D01*
X052137D01*
X052138Y023516D01*
X05214Y023518D01*
X052141Y023522D01*
X052142Y023528D01*
X052143Y023535D01*
X052144Y023554D01*
X052145Y023595D01*
X052245D01*
X052245Y02358D01*
D02*
G37*
G36*
X043269Y024182D02*
X043275Y02417D01*
X043284Y024155D01*
X043297Y024137D01*
X043336Y024091D01*
X043424Y023997D01*
X043461Y023959D01*
X043391Y023889D01*
X043353Y023926D01*
X043195Y024066D01*
X04318Y024075D01*
X043168Y024081D01*
X043159Y024082D01*
X043268Y024191D01*
X043269Y024182D01*
D02*
G37*
G36*
X050825Y02388D02*
X050824Y023894D01*
X050818Y023907D01*
X05081Y023918D01*
X050798Y023928D01*
X050783Y023936D01*
X050764Y023943D01*
X050741Y023948D01*
X050716Y023952D01*
X050687Y023954D01*
X050654Y023955D01*
Y024055D01*
X050687Y024056D01*
X050716Y024058D01*
X050741Y024062D01*
X050764Y024067D01*
X050783Y024074D01*
X050798Y024082D01*
X05081Y024092D01*
X050818Y024103D01*
X050824Y024116D01*
X050825Y02413D01*
Y02388D01*
D02*
G37*
G36*
X048755Y0242D02*
X048655Y02405D01*
X048654Y024069D01*
X04865Y024086D01*
X048644Y024101D01*
X048636Y024114D01*
X048625Y024125D01*
X048612Y024134D01*
X048596Y024141D01*
X048578Y024146D01*
X048558Y024149D01*
X048535Y02415D01*
Y02425D01*
X048558Y024251D01*
X048578Y024254D01*
X048596Y024259D01*
X048612Y024266D01*
X048625Y024275D01*
X048636Y024286D01*
X048644Y024299D01*
X04865Y024314D01*
X048654Y024331D01*
X048655Y02435D01*
X048755Y0242D01*
D02*
G37*
G36*
X044296Y024151D02*
X044304Y024148D01*
X044314Y024146D01*
X044326Y024143D01*
X044354Y02414D01*
X04439Y024138D01*
X044433Y024137D01*
Y024037D01*
X044403Y024037D01*
X044289Y024044D01*
X04429Y024046D01*
Y024155D01*
X044296Y024151D01*
D02*
G37*
G36*
X03771Y023849D02*
X037707Y02385D01*
X0377Y02385D01*
X037678Y023852D01*
X037533Y023853D01*
Y023953D01*
X03771Y023958D01*
Y023849D01*
D02*
G37*
G36*
X036867Y024014D02*
X036872Y024001D01*
X03688Y02399D01*
X036892Y02398D01*
X036908Y023972D01*
X036927Y023965D01*
X036949Y02396D01*
X036975Y023956D01*
X037004Y023954D01*
X037036Y023953D01*
Y023853D01*
X037004Y023853D01*
X036873Y023844D01*
X036868Y023842D01*
X036866Y023839D01*
X036865Y024028D01*
X036867Y024014D01*
D02*
G37*
G36*
X049967Y024116D02*
X049972Y024103D01*
X04998Y024092D01*
X049992Y024082D01*
X050008Y024074D01*
X050026Y024067D01*
X050049Y024062D01*
X050074Y024058D01*
X050103Y024056D01*
X050136Y024055D01*
Y023955D01*
X050103Y023954D01*
X050074Y023952D01*
X050049Y023948D01*
X050026Y023943D01*
X050008Y023936D01*
X049992Y023928D01*
X04998Y023918D01*
X049972Y023907D01*
X049967Y023894D01*
X049965Y02388D01*
Y02413D01*
X049967Y024116D01*
D02*
G37*
G36*
X043655Y023849D02*
X043652Y02385D01*
X043645Y02385D01*
X043623Y023852D01*
X043478Y023853D01*
Y023953D01*
X043655Y023958D01*
Y023849D01*
D02*
G37*
G36*
X05104Y023268D02*
X051026Y023274D01*
X05101Y023277D01*
X050993Y023275D01*
X050973Y023269D01*
X050951Y023259D01*
X050928Y023245D01*
X050902Y023227D01*
X050875Y023204D01*
X050814Y023148D01*
X050704Y023179D01*
X050738Y023215D01*
X050792Y023277D01*
X050812Y023304D01*
X050826Y023328D01*
X050836Y02335D01*
X050841Y023368D01*
X05084Y023383D01*
X050835Y023396D01*
X050824Y023406D01*
X05104Y023268D01*
D02*
G37*
G36*
X05231Y022423D02*
X052303Y022428D01*
X052291Y022433D01*
X052274Y022437D01*
X052251Y02244D01*
X052191Y022446D01*
X052063Y02245D01*
X05201Y02245D01*
Y02255D01*
X052063Y02255D01*
X052274Y022563D01*
X052291Y022567D01*
X052303Y022572D01*
X05231Y022577D01*
Y022423D01*
D02*
G37*
G36*
X043655Y022274D02*
X043652Y022275D01*
X043647Y022275D01*
X04364Y022276D01*
X043605Y022278D01*
X043526Y022278D01*
Y022378D01*
X043655Y022383D01*
Y022274D01*
D02*
G37*
G36*
X050085Y022419D02*
X050069Y022402D01*
X050054Y022384D01*
X050042Y022365D01*
X050031Y022345D01*
X050021Y022325D01*
X050014Y022304D01*
X050008Y022283D01*
X050003Y022261D01*
X050001Y022238D01*
X05Y022214D01*
X0499D01*
X049899Y022238D01*
X049897Y022261D01*
X049892Y022283D01*
X049886Y022304D01*
X049879Y022325D01*
X049869Y022345D01*
X049858Y022365D01*
X049846Y022384D01*
X049831Y022402D01*
X049815Y022419D01*
X049865Y02251D01*
X049882Y022495D01*
X049899Y022483D01*
X049916Y022475D01*
X049933Y02247D01*
X04995Y022468D01*
X049967Y02247D01*
X049984Y022475D01*
X050001Y022483D01*
X050018Y022495D01*
X050035Y02251D01*
X050085Y022419D01*
D02*
G37*
G36*
X044297Y022576D02*
X044306Y022573D01*
X044318Y022571D01*
X044333Y022569D01*
X044372Y022565D01*
X044451Y022563D01*
X044482Y022562D01*
X044494Y022462D01*
X04429Y022471D01*
Y02258D01*
X044297Y022576D01*
D02*
G37*
G36*
Y022183D02*
X044306Y02218D01*
X044318Y022177D01*
X044333Y022175D01*
X044372Y022171D01*
X044451Y022169D01*
X044482Y022169D01*
X044494Y022069D01*
X04429Y022077D01*
Y022186D01*
X044297Y022183D01*
D02*
G37*
G36*
X032985Y022136D02*
X032987Y022107D01*
X032991Y022081D01*
X032996Y022059D01*
X033003Y02204D01*
X033011Y022025D01*
X033021Y022013D01*
X033032Y022004D01*
X033045Y021999D01*
X033059Y021997D01*
X032809D01*
X032823Y021999D01*
X032836Y022004D01*
X032847Y022013D01*
X032857Y022025D01*
X032865Y02204D01*
X032872Y022059D01*
X032877Y022081D01*
X032881Y022107D01*
X032883Y022136D01*
X032884Y022169D01*
X032984D01*
X032985Y022136D01*
D02*
G37*
G36*
X044297Y02238D02*
X044306Y022377D01*
X044318Y022374D01*
X044333Y022372D01*
X044372Y022368D01*
X044451Y022366D01*
X044482Y022366D01*
X044494Y022266D01*
X04429Y022274D01*
Y022383D01*
X044297Y02238D01*
D02*
G37*
G36*
X051261Y022341D02*
X051224Y022303D01*
X051084Y022145D01*
X051075Y02213D01*
X051069Y022118D01*
X051068Y022109D01*
X050959Y022218D01*
X050968Y022219D01*
X05098Y022225D01*
X050995Y022234D01*
X051013Y022247D01*
X051059Y022286D01*
X051153Y022374D01*
X051191Y022411D01*
X051261Y022341D01*
D02*
G37*
G36*
X052916Y023182D02*
X052903Y023177D01*
X052892Y023169D01*
X052882Y023157D01*
X052874Y023141D01*
X052867Y023123D01*
X052862Y023101D01*
X052858Y023075D01*
X052856Y023046D01*
X052855Y023014D01*
X052755D01*
X052754Y023046D01*
X052752Y023075D01*
X052748Y023101D01*
X052743Y023123D01*
X052736Y023141D01*
X052728Y023157D01*
X052718Y023169D01*
X052707Y023177D01*
X052694Y023182D01*
X05268Y023184D01*
X05293D01*
X052916Y023182D01*
D02*
G37*
G36*
X043355Y02301D02*
X043369Y023002D01*
X043388Y022994D01*
X043412Y022987D01*
X04344Y022982D01*
X043473Y022977D01*
X043552Y022971D01*
X043556Y022971D01*
X043655Y022973D01*
Y022864D01*
X043652Y022865D01*
X043645Y022866D01*
X043623Y022867D01*
X043546Y022868D01*
X043333Y022866D01*
X043345Y02302D01*
X043355Y02301D01*
D02*
G37*
G36*
X052972Y023461D02*
X052977Y023448D01*
X052985Y023437D01*
X052997Y023427D01*
X053013Y023419D01*
X053032Y023412D01*
X053054Y023407D01*
X05308Y023403D01*
X053109Y023401D01*
X053141Y0234D01*
Y0233D01*
X053109Y023299D01*
X05308Y023297D01*
X053054Y023293D01*
X053032Y023288D01*
X053013Y023281D01*
X052997Y023273D01*
X052985Y023263D01*
X052977Y023252D01*
X052972Y023239D01*
X05297Y023225D01*
Y023475D01*
X052972Y023461D01*
D02*
G37*
G36*
X04985Y023338D02*
X049857Y023229D01*
X049925D01*
X049911Y023227D01*
X049898Y023222D01*
X049887Y023214D01*
X049877Y023202D01*
X049869Y023186D01*
X049862Y023168D01*
X049861Y023165D01*
X049864Y023126D01*
X049868Y023109D01*
X049873Y023096D01*
X049878Y023089D01*
X049851Y023089D01*
X04985Y023059D01*
X04975D01*
X049749Y023089D01*
X049722Y023089D01*
X049727Y023096D01*
X049732Y023109D01*
X049736Y023126D01*
X04974Y023149D01*
X049741Y023156D01*
X049738Y023168D01*
X049731Y023186D01*
X049723Y023202D01*
X049713Y023214D01*
X049702Y023222D01*
X049689Y023227D01*
X049675Y023229D01*
X049746D01*
X04975Y023338D01*
X04975Y02339D01*
X04985Y02339D01*
X04985Y023338D01*
D02*
G37*
G36*
X052711Y022741D02*
X052674Y022703D01*
X052534Y022545D01*
X052525Y02253D01*
X052519Y022518D01*
X052518Y022509D01*
X052409Y022618D01*
X052418Y022619D01*
X05243Y022625D01*
X052445Y022634D01*
X052463Y022647D01*
X052509Y022686D01*
X052603Y022774D01*
X052641Y022811D01*
X052711Y022741D01*
D02*
G37*
G36*
X043655Y022471D02*
X043652Y022472D01*
X043645Y022472D01*
X043623Y022474D01*
X043478Y022475D01*
Y022575D01*
X043655Y02258D01*
Y022471D01*
D02*
G37*
G36*
Y022668D02*
X043652Y022668D01*
X043645Y022669D01*
X043623Y02267D01*
X043478Y022672D01*
Y022772D01*
X043655Y022777D01*
Y022668D01*
D02*
G37*
G36*
X044297Y022773D02*
X044306Y02277D01*
X044318Y022768D01*
X044333Y022765D01*
X044372Y022762D01*
X044451Y022759D01*
X044482Y022759D01*
X044494Y022659D01*
X04429Y022668D01*
Y022777D01*
X044297Y022773D01*
D02*
G37*
G36*
X043486Y01976D02*
X043481Y019747D01*
X043482Y019731D01*
X043486Y019712D01*
X043496Y019691D01*
X043511Y019667D01*
X04353Y019641D01*
X043554Y019611D01*
X043616Y019545D01*
X043525Y019494D01*
X043493Y019525D01*
X043435Y019575D01*
X043409Y019593D01*
X043385Y019608D01*
X043364Y019618D01*
X043344Y019623D01*
X043327Y019624D01*
X043312Y019621D01*
X043299Y019614D01*
X043496Y019771D01*
X043486Y01976D01*
D02*
G37*
G36*
X040497Y016472D02*
X040509Y016467D01*
X040526Y016463D01*
X040549Y01646D01*
X040609Y016454D01*
X040737Y01645D01*
X04079Y01645D01*
Y01635D01*
X040737Y01635D01*
X040526Y016337D01*
X040509Y016333D01*
X040497Y016328D01*
X04049Y016323D01*
Y016477D01*
X040497Y016472D01*
D02*
G37*
G36*
X055017Y016466D02*
X055022Y016453D01*
X05503Y016442D01*
X055042Y016432D01*
X055058Y016424D01*
X055076Y016417D01*
X055099Y016412D01*
X055124Y016408D01*
X055153Y016406D01*
X055168Y016406D01*
X055393Y01642D01*
X055405Y016424D01*
X055411Y016428D01*
X055409Y016274D01*
X055402Y01628D01*
X055389Y016285D01*
X055371Y01629D01*
X055349Y016294D01*
X055321Y016297D01*
X055208Y016304D01*
X055159Y016304D01*
X055153Y016304D01*
X055124Y016302D01*
X055099Y016298D01*
X055076Y016293D01*
X055058Y016286D01*
X055042Y016278D01*
X05503Y016268D01*
X055022Y016257D01*
X055017Y016244D01*
X055015Y01623D01*
Y01648D01*
X055017Y016466D01*
D02*
G37*
G36*
X046841Y01665D02*
X046741Y0165D01*
X046739Y016519D01*
X046736Y016536D01*
X04673Y016551D01*
X046721Y016564D01*
X046711Y016575D01*
X046697Y016584D01*
X046682Y016591D01*
X046664Y016596D01*
X046643Y016599D01*
X046621Y0166D01*
Y0167D01*
X046643Y016701D01*
X046664Y016704D01*
X046682Y016709D01*
X046697Y016716D01*
X046711Y016725D01*
X046721Y016736D01*
X04673Y016749D01*
X046736Y016764D01*
X046739Y016781D01*
X046741Y0168D01*
X046841Y01665D01*
D02*
G37*
G36*
X03925Y016737D02*
X039263Y016526D01*
X039267Y016509D01*
X039272Y016497D01*
X039277Y01649D01*
X039123Y01649D01*
X039128Y016497D01*
X039133Y016509D01*
X039137Y016526D01*
X03914Y016549D01*
X039146Y016609D01*
X03915Y016737D01*
X03915Y01679D01*
X03925Y01679D01*
X03925Y016737D01*
D02*
G37*
G36*
X051694Y016032D02*
X05169Y016022D01*
X051686Y016008D01*
X051683Y015992D01*
X051679Y015952D01*
X051676Y015902D01*
X051675Y015841D01*
X051575D01*
X051575Y015873D01*
X051567Y015992D01*
X051564Y016008D01*
X05156Y016022D01*
X051556Y016032D01*
X051552Y016041D01*
X051698D01*
X051694Y016032D01*
D02*
G37*
G36*
X052696Y016035D02*
X052693Y016025D01*
X052691Y016012D01*
X052688Y015975D01*
X052685Y015856D01*
X052685Y015817D01*
X052565D01*
X052565Y015856D01*
X052554Y016035D01*
X052552Y016041D01*
X052698D01*
X052696Y016035D01*
D02*
G37*
G36*
X046841Y016162D02*
X046843Y016144D01*
X046847Y016126D01*
X046851Y016107D01*
X046857Y016088D01*
X046865Y016069D01*
X046873Y01605D01*
X046895Y016011D01*
X046908Y015991D01*
X046673D01*
X046686Y016011D01*
X046708Y01605D01*
X046716Y016069D01*
X046724Y016088D01*
X04673Y016107D01*
X046734Y016126D01*
X046738Y016144D01*
X04674Y016162D01*
X046741Y016179D01*
X046841D01*
X046841Y016162D01*
D02*
G37*
G36*
X051944Y016032D02*
X05194Y016022D01*
X051936Y016008D01*
X051933Y015992D01*
X051929Y015952D01*
X051926Y015902D01*
X051925Y015841D01*
X051825D01*
X051825Y015873D01*
X051817Y015992D01*
X051814Y016008D01*
X05181Y016022D01*
X051806Y016032D01*
X051802Y016041D01*
X051948D01*
X051944Y016032D01*
D02*
G37*
G36*
X045948Y01708D02*
X045944Y01707D01*
X045941Y017057D01*
X045938Y01704D01*
X045934Y016999D01*
X045975D01*
X045966Y016998D01*
X045959Y016994D01*
X045952Y016987D01*
X045946Y016978D01*
X045941Y016967D01*
X045937Y016953D01*
X045934Y016936D01*
X045932Y016916D01*
X04593Y016895D01*
X04593Y01687D01*
X04583D01*
X045829Y016895D01*
X045826Y016936D01*
X045823Y016953D01*
X045819Y016967D01*
X045814Y016978D01*
X045808Y016987D01*
X045801Y016994D01*
X045794Y016998D01*
X045785Y016999D01*
X045824D01*
X045822Y01704D01*
X045819Y017057D01*
X045816Y01707D01*
X045812Y01708D01*
X045807Y017086D01*
X045952D01*
X045948Y01708D01*
D02*
G37*
G36*
X051443Y017007D02*
X051448Y016829D01*
X051302D01*
X05131Y016843D01*
X051317Y016858D01*
X051323Y016874D01*
X051328Y016893D01*
X051333Y016913D01*
X051337Y016935D01*
X051341Y016985D01*
X051343Y017012D01*
X051343Y017041D01*
X051443Y017007D01*
D02*
G37*
G36*
X03516Y017154D02*
X035147Y017147D01*
X035136Y017135D01*
X035127Y017119D01*
X035119Y017098D01*
X035112Y017072D01*
X035107Y017041D01*
X035103Y017005D01*
X0351Y01692D01*
X0349D01*
X034899Y016965D01*
X034893Y017041D01*
X034888Y017072D01*
X034881Y017098D01*
X034873Y017119D01*
X034864Y017135D01*
X034853Y017147D01*
X03484Y017154D01*
X034826Y017157D01*
X035174D01*
X03516Y017154D01*
D02*
G37*
G36*
X034176Y017437D02*
X034167Y01741D01*
X034167Y017379D01*
X034176Y017341D01*
X034196Y017299D01*
X034225Y017251D01*
X034263Y017198D01*
X034311Y017139D01*
X034436Y017005D01*
X034242Y016916D01*
X034195Y016962D01*
X034102Y017039D01*
X034057Y01707D01*
X034013Y017097D01*
X033969Y017118D01*
X033927Y017135D01*
X033885Y017147D01*
X033844Y017154D01*
X033804Y017157D01*
X034196Y017458D01*
X034176Y017437D01*
D02*
G37*
G36*
X03105Y016787D02*
X031063Y016576D01*
X031067Y016559D01*
X031072Y016547D01*
X031077Y01654D01*
X030923Y01654D01*
X030928Y016547D01*
X030933Y016559D01*
X030937Y016576D01*
X03094Y016599D01*
X030946Y016659D01*
X03095Y016787D01*
X03095Y01684D01*
X03105Y01684D01*
X03105Y016787D01*
D02*
G37*
G36*
X052047Y01649D02*
X052062Y016488D01*
X052092Y016486D01*
X052124Y016485D01*
Y016385D01*
X052092Y016384D01*
X052062Y016382D01*
X052047Y01638D01*
Y01631D01*
X052045Y016324D01*
X05204Y016337D01*
X052032Y016348D01*
X05202Y016358D01*
X052004Y016366D01*
X052Y016368D01*
X051996Y016366D01*
X05198Y016358D01*
X051968Y016348D01*
X05196Y016337D01*
X051955Y016324D01*
X051953Y01631D01*
Y01638D01*
X051938Y016382D01*
X051908Y016384D01*
X051876Y016385D01*
Y016485D01*
X051908Y016486D01*
X051938Y016488D01*
X051953Y01649D01*
Y01656D01*
X051955Y016546D01*
X05196Y016533D01*
X051968Y016522D01*
X05198Y016512D01*
X051996Y016504D01*
X052Y016502D01*
X052004Y016504D01*
X05202Y016512D01*
X052032Y016522D01*
X05204Y016533D01*
X052045Y016546D01*
X052047Y01656D01*
Y01649D01*
D02*
G37*
G36*
X051221Y017106D02*
X051213Y017097D01*
X051205Y017082D01*
X051198Y017064D01*
X051192Y01704D01*
X051187Y017012D01*
X051182Y016979D01*
X051179Y016936D01*
X051183Y016878D01*
X051186Y016862D01*
X05119Y016848D01*
X051194Y016838D01*
X051198Y016829D01*
X051176D01*
X051175Y016801D01*
X051075Y016825D01*
X051075Y016829D01*
X051052D01*
X051056Y016838D01*
X05106Y016848D01*
X051064Y016862D01*
X051067Y016878D01*
X051071Y016918D01*
X051072Y016933D01*
X051067Y017116D01*
X051221Y017106D01*
D02*
G37*
G36*
X050471D02*
X050463Y017097D01*
X050455Y017082D01*
X050448Y017064D01*
X050442Y01704D01*
X050437Y017012D01*
X050432Y016979D01*
X050429Y016936D01*
X050433Y016878D01*
X050436Y016862D01*
X05044Y016848D01*
X050444Y016838D01*
X050448Y016829D01*
X050426D01*
X050425Y016801D01*
X050325Y016825D01*
X050325Y016829D01*
X050302D01*
X050306Y016838D01*
X05031Y016848D01*
X050314Y016862D01*
X050317Y016878D01*
X050321Y016918D01*
X050322Y016933D01*
X050317Y017116D01*
X050471Y017106D01*
D02*
G37*
G36*
X052446Y016035D02*
X052443Y016025D01*
X052441Y016012D01*
X052438Y015975D01*
X052435Y015856D01*
X052435Y015817D01*
X052315D01*
X052315Y015856D01*
X052304Y016035D01*
X052302Y016041D01*
X052448D01*
X052446Y016035D01*
D02*
G37*
G36*
X054444Y01503D02*
X054435Y015028D01*
X054423Y015023D01*
X054408Y015013D01*
X05439Y015D01*
X054343Y014961D01*
X054249Y014873D01*
X054234Y014858D01*
X054209Y014832D01*
X054157Y014772D01*
X054138Y014746D01*
X054124Y014722D01*
X054114Y014701D01*
X054109Y014682D01*
X054108Y014665D01*
X054112Y014651D01*
X05412Y014639D01*
X053944Y014815D01*
X053956Y014807D01*
X05397Y014803D01*
X053987Y014804D01*
X054006Y014809D01*
X054027Y014819D01*
X054051Y014833D01*
X054077Y014852D01*
X054106Y014876D01*
X054167Y014932D01*
X054178Y014944D01*
X054318Y015103D01*
X054328Y015118D01*
X054333Y01513D01*
X054335Y015138D01*
X054444Y01503D01*
D02*
G37*
G36*
X05318Y01453D02*
X053178Y014544D01*
X053173Y014557D01*
X053165Y014568D01*
X053153Y014578D01*
X053137Y014586D01*
X053118Y014593D01*
X053096Y014598D01*
X053077Y014601D01*
X053059Y014598D01*
X053036Y014593D01*
X053017Y014586D01*
X053002Y014578D01*
X05299Y014568D01*
X052982Y014557D01*
X052976Y014544D01*
X052975Y01453D01*
Y01478D01*
X052976Y014765D01*
X052982Y014753D01*
X05299Y014741D01*
X053002Y014732D01*
X053017Y014723D01*
X053036Y014717D01*
X053059Y014711D01*
X053077Y014709D01*
X053096Y014711D01*
X053118Y014717D01*
X053137Y014723D01*
X053153Y014732D01*
X053165Y014741D01*
X053173Y014753D01*
X053178Y014765D01*
X05318Y01478D01*
Y01453D01*
D02*
G37*
G36*
X046501Y015221D02*
X04648Y015182D01*
X046471Y015163D01*
X046464Y015144D01*
X046458Y015125D01*
X046453Y015107D01*
X04645Y015089D01*
X046448Y015071D01*
X046447Y015053D01*
X046347D01*
X046346Y015071D01*
X046344Y015089D01*
X046341Y015107D01*
X046336Y015125D01*
X04633Y015144D01*
X046323Y015163D01*
X046314Y015182D01*
X046292Y015221D01*
X04628Y015241D01*
X046514D01*
X046501Y015221D01*
D02*
G37*
G36*
X046108D02*
X046086Y015182D01*
X046077Y015163D01*
X04607Y015144D01*
X046064Y015125D01*
X046059Y015107D01*
X046056Y015089D01*
X046054Y015071D01*
X046053Y015053D01*
X045953D01*
X045952Y015071D01*
X04595Y015089D01*
X045947Y015107D01*
X045942Y015125D01*
X045936Y015144D01*
X045929Y015163D01*
X04592Y015182D01*
X045899Y015221D01*
X045886Y015241D01*
X04612D01*
X046108Y015221D01*
D02*
G37*
G36*
X05284Y014518D02*
X052826Y014524D01*
X05281Y014527D01*
X052793Y014525D01*
X052773Y014519D01*
X052751Y014509D01*
X052728Y014495D01*
X052702Y014477D01*
X052675Y014454D01*
X052614Y014398D01*
X052504Y014429D01*
X052538Y014465D01*
X052592Y014527D01*
X052612Y014554D01*
X052627Y014578D01*
X052636Y0146D01*
X052641Y014618D01*
X05264Y014633D01*
X052635Y014646D01*
X052624Y014656D01*
X05284Y014518D01*
D02*
G37*
G36*
X051716Y014484D02*
X051704Y014492D01*
X05169Y014496D01*
X051673Y014495D01*
X051654Y01449D01*
X051633Y01448D01*
X051609Y014466D01*
X051583Y014447D01*
X051554Y014424D01*
X05149Y014364D01*
X051419Y014434D01*
X051451Y014468D01*
X051502Y014528D01*
X051521Y014554D01*
X051536Y014578D01*
X051545Y014599D01*
X051551Y014618D01*
X051551Y014635D01*
X051547Y014649D01*
X051539Y014661D01*
X051716Y014484D01*
D02*
G37*
G36*
X052075Y014525D02*
X052074Y014539D01*
X052068Y014552D01*
X05206Y014563D01*
X052048Y014573D01*
X052033Y014581D01*
X052014Y014588D01*
X051991Y014593D01*
X051973Y014596D01*
X051954Y014593D01*
X051932Y014588D01*
X051913Y014581D01*
X051897Y014573D01*
X051885Y014563D01*
X051877Y014552D01*
X051872Y014539D01*
X05187Y014525D01*
Y014775D01*
X051872Y014761D01*
X051877Y014748D01*
X051885Y014737D01*
X051897Y014727D01*
X051913Y014719D01*
X051932Y014712D01*
X051954Y014707D01*
X051973Y014704D01*
X051991Y014707D01*
X052014Y014712D01*
X052033Y014719D01*
X052048Y014727D01*
X05206Y014737D01*
X052068Y014748D01*
X052074Y014761D01*
X052075Y014775D01*
Y014525D01*
D02*
G37*
G36*
X05093Y0147D02*
X050937Y0147D01*
X05099Y0147D01*
Y0146D01*
X050937Y0146D01*
X05093Y014599D01*
Y014525D01*
X050928Y014539D01*
X050923Y014552D01*
X050915Y014563D01*
X050903Y014573D01*
X050887Y014581D01*
X050868Y014588D01*
X050846Y014593D01*
X050842Y014594D01*
X050726Y014587D01*
X050709Y014583D01*
X050697Y014578D01*
X05069Y014573D01*
Y014727D01*
X050697Y014722D01*
X050709Y014717D01*
X050726Y014713D01*
X050749Y01471D01*
X050809Y014704D01*
X050826Y014704D01*
X050846Y014707D01*
X050868Y014712D01*
X050887Y014719D01*
X050903Y014727D01*
X050915Y014737D01*
X050923Y014748D01*
X050928Y014761D01*
X05093Y014775D01*
Y0147D01*
D02*
G37*
G36*
X04691Y015727D02*
X046916Y015714D01*
X046924Y015703D01*
X046936Y015693D01*
X046952Y015685D01*
X04697Y015678D01*
X046993Y015673D01*
X047018Y015669D01*
X047047Y015667D01*
X04708Y015666D01*
Y015566D01*
X047047Y015565D01*
X047018Y015563D01*
X046993Y015559D01*
X04697Y015554D01*
X046952Y015547D01*
X046936Y015539D01*
X046924Y015529D01*
X046916Y015518D01*
X04691Y015505D01*
X046909Y015491D01*
Y015741D01*
X04691Y015727D01*
D02*
G37*
G36*
X051925Y015725D02*
X051933Y015434D01*
X051779Y015444D01*
X051787Y015453D01*
X051795Y015468D01*
X051802Y015486D01*
X051808Y01551D01*
X051813Y015538D01*
X051818Y015571D01*
X051823Y01565D01*
X051825Y015749D01*
X051925Y015725D01*
D02*
G37*
G36*
X051359Y016041D02*
X051448D01*
X051444Y016032D01*
X05144Y016022D01*
X051436Y016008D01*
X051433Y015992D01*
X051429Y015952D01*
X051427Y01593D01*
X051433Y015734D01*
X051279Y015744D01*
X051287Y015753D01*
X051295Y015768D01*
X051302Y015786D01*
X051308Y01581D01*
X051313Y015838D01*
X051318Y015871D01*
X051321Y015924D01*
X051317Y015992D01*
X051314Y016008D01*
X05131Y016022D01*
X051306Y016032D01*
X051302Y016041D01*
X051325D01*
X051325Y016049D01*
X051359Y016041D01*
D02*
G37*
G36*
X045491Y015491D02*
X045489Y015505D01*
X045484Y015518D01*
X045476Y015529D01*
X045464Y015539D01*
X045448Y015547D01*
X04543Y015554D01*
X045407Y015559D01*
X045382Y015563D01*
X045353Y015565D01*
X045327Y015566D01*
X045304Y015566D01*
X045093Y015553D01*
X045075Y015549D01*
X045063Y015544D01*
X045056Y015539D01*
Y015693D01*
X045063Y015688D01*
X045075Y015683D01*
X045093Y015679D01*
X045115Y015676D01*
X045175Y01567D01*
X045304Y015666D01*
X045327Y015666D01*
X045353Y015667D01*
X045382Y015669D01*
X045407Y015673D01*
X04543Y015678D01*
X045448Y015685D01*
X045464Y015693D01*
X045476Y015703D01*
X045484Y015714D01*
X045489Y015727D01*
X045491Y015741D01*
Y015491D01*
D02*
G37*
G36*
X033747Y015424D02*
X033905Y015284D01*
X03392Y015275D01*
X033932Y015269D01*
X033941Y015268D01*
X033832Y015159D01*
X033831Y015168D01*
X033825Y01518D01*
X033816Y015195D01*
X033803Y015213D01*
X033764Y015259D01*
X033676Y015353D01*
X033639Y015391D01*
X033709Y015461D01*
X033747Y015424D01*
D02*
G37*
G36*
X054764Y015388D02*
X054727Y015351D01*
X054587Y015192D01*
X054577Y015177D01*
X054572Y015165D01*
X05457Y015156D01*
X054462Y015265D01*
X05447Y015267D01*
X054482Y015272D01*
X054497Y015281D01*
X054516Y015295D01*
X054562Y015334D01*
X054656Y015422D01*
X054693Y015459D01*
X054764Y015388D01*
D02*
G37*
G36*
X052426Y015382D02*
X052225Y015381D01*
X052242Y015383D01*
X052257Y015389D01*
X052271Y015399D01*
X052283Y015414D01*
X052292Y015432D01*
X052301Y015455D01*
X052307Y015481D01*
X052311Y015512D01*
X052314Y015547D01*
X052315Y015586D01*
X052435D01*
X052426Y015382D01*
D02*
G37*
G36*
X034197Y015424D02*
X034355Y015284D01*
X03437Y015275D01*
X034382Y015269D01*
X034391Y015268D01*
X034282Y015159D01*
X034281Y015168D01*
X034275Y01518D01*
X034266Y015195D01*
X034253Y015213D01*
X034214Y015259D01*
X034126Y015353D01*
X034089Y015391D01*
X034159Y015461D01*
X034197Y015424D01*
D02*
G37*
G36*
X050508Y019077D02*
X050493Y019071D01*
X050479Y01906D01*
X050467Y019046D01*
X050458Y019028D01*
X050449Y019005D01*
X050443Y018979D01*
X050439Y018948D01*
X050436Y018914D01*
X050435Y018883D01*
X050446Y018705D01*
X050448Y0187D01*
X050302D01*
X050304Y018705D01*
X050307Y018715D01*
X050309Y018728D01*
X050312Y018765D01*
X050315Y018883D01*
X050314Y018914D01*
X050308Y018979D01*
X050302Y019005D01*
X050295Y019028D01*
X050286Y019046D01*
X050275Y01906D01*
X050263Y019071D01*
X050249Y019077D01*
X050234Y019079D01*
X050525D01*
X050508Y019077D01*
D02*
G37*
G36*
X042988Y018895D02*
X042983Y018882D01*
X042977Y018866D01*
X042973Y018845D01*
X042969Y018821D01*
X042964Y018769D01*
X042967Y018749D01*
X042972Y018727D01*
X042979Y018708D01*
X042987Y018693D01*
X042997Y01868D01*
X043008Y018672D01*
X043021Y018667D01*
X043035Y018665D01*
X04296Y018665D01*
X04296Y018645D01*
X04286D01*
X04286Y018688D01*
X042851Y018821D01*
X042847Y018845D01*
X042843Y018866D01*
X042838Y018882D01*
X042832Y018895D01*
X042825Y018905D01*
X042995D01*
X042988Y018895D01*
D02*
G37*
G36*
X051221Y019056D02*
X051213Y019047D01*
X051205Y019032D01*
X051198Y019014D01*
X051192Y01899D01*
X051187Y018962D01*
X051182Y018929D01*
X051177Y01885D01*
X051177Y018845D01*
X051183Y018748D01*
X051186Y018732D01*
X05119Y018719D01*
X051194Y018708D01*
X051198Y0187D01*
X051052D01*
X051056Y018708D01*
X05106Y018719D01*
X051064Y018732D01*
X051067Y018748D01*
X051071Y018788D01*
X051074Y018829D01*
X051067Y019066D01*
X051221Y019056D01*
D02*
G37*
G36*
X050925Y018867D02*
X050933Y018748D01*
X050936Y018732D01*
X05094Y018719D01*
X050944Y018708D01*
X050948Y0187D01*
X050802D01*
X050806Y018708D01*
X05081Y018719D01*
X050814Y018732D01*
X050817Y018748D01*
X050821Y018788D01*
X050824Y018838D01*
X050825Y018899D01*
X050925D01*
X050925Y018867D01*
D02*
G37*
G36*
X05616Y018223D02*
X056153Y018228D01*
X056141Y018233D01*
X056124Y018237D01*
X056101Y01824D01*
X056041Y018246D01*
X055913Y01825D01*
X05586Y01825D01*
Y01835D01*
X055913Y01835D01*
X056124Y018363D01*
X056141Y018367D01*
X056153Y018372D01*
X05616Y018377D01*
Y018223D01*
D02*
G37*
G36*
X052705Y018411D02*
X05271Y018398D01*
X052718Y018387D01*
X05273Y018377D01*
X052746Y018369D01*
X052764Y018362D01*
X052787Y018357D01*
X052812Y018353D01*
X052842Y018351D01*
X052874Y01835D01*
Y01825D01*
X052842Y018249D01*
X052812Y018247D01*
X052787Y018243D01*
X052764Y018238D01*
X052746Y018231D01*
X05273Y018223D01*
X052718Y018213D01*
X05271Y018202D01*
X052705Y018189D01*
X052703Y018175D01*
Y018425D01*
X052705Y018411D01*
D02*
G37*
G36*
X041391Y018865D02*
X041391Y018847D01*
X041394Y018828D01*
X041401Y018807D01*
X041411Y018786D01*
X041425Y018762D01*
X041443Y018737D01*
X041464Y018711D01*
X041516Y018655D01*
X041505Y018525D01*
X041472Y018557D01*
X041414Y018606D01*
X04139Y018623D01*
X041368Y018635D01*
X04135Y018642D01*
X041334Y018643D01*
X041322Y01864D01*
X041312Y018632D01*
X041305Y018619D01*
X041394Y018881D01*
X041391Y018865D01*
D02*
G37*
G36*
X04226Y018771D02*
X042331Y01871D01*
X042363Y018687D01*
X042392Y01867D01*
X042417Y018658D01*
X04244Y018651D01*
X04246Y01865D01*
X042477Y018655D01*
X042491Y018665D01*
X04228Y018454D01*
X04229Y018468D01*
X042294Y018485D01*
X042293Y018505D01*
X042287Y018528D01*
X042275Y018553D01*
X042258Y018582D01*
X042235Y018613D01*
X042207Y018648D01*
X042135Y018725D01*
X042219Y01881D01*
X04226Y018771D01*
D02*
G37*
G36*
X045172Y019153D02*
X045167Y019141D01*
X045163Y019124D01*
X04516Y019101D01*
X045154Y019041D01*
X04515Y018913D01*
X04515Y01886D01*
X04505D01*
X04505Y018913D01*
X045037Y019124D01*
X045033Y019141D01*
X045028Y019153D01*
X045023Y01916D01*
X045177D01*
X045172Y019153D01*
D02*
G37*
G36*
X044206Y018828D02*
X044205Y018826D01*
X044204Y018822D01*
X044203Y018816D01*
X044202Y018809D01*
X044201Y01879D01*
X0442Y01875D01*
X0441D01*
X0441Y018765D01*
X044096Y018822D01*
X044095Y018826D01*
X044094Y018828D01*
X044092Y018829D01*
X044208D01*
X044206Y018828D01*
D02*
G37*
G36*
X031196Y019311D02*
X031201Y019298D01*
X03121Y019287D01*
X031222Y019277D01*
X031237Y019269D01*
X031256Y019262D01*
X031278Y019257D01*
X03129Y019255D01*
X031424Y019263D01*
X031441Y019267D01*
X031453Y019272D01*
X03146Y019277D01*
Y019123D01*
X031453Y019128D01*
X031441Y019133D01*
X031424Y019137D01*
X031401Y01914D01*
X031341Y019146D01*
X031303Y019147D01*
X031278Y019143D01*
X031256Y019138D01*
X031237Y019131D01*
X031222Y019123D01*
X03121Y019113D01*
X031201Y019102D01*
X031196Y019089D01*
X031194Y019075D01*
Y01915D01*
X03116Y01915D01*
Y01925D01*
X031194Y01925D01*
Y019325D01*
X031196Y019311D01*
D02*
G37*
G36*
X032196Y019211D02*
X032201Y019198D01*
X03221Y019187D01*
X032222Y019177D01*
X032237Y019169D01*
X032256Y019162D01*
X032278Y019157D01*
X03229Y019155D01*
X032424Y019163D01*
X032441Y019167D01*
X032453Y019172D01*
X03246Y019177D01*
Y019023D01*
X032453Y019028D01*
X032441Y019033D01*
X032424Y019037D01*
X032401Y01904D01*
X032341Y019046D01*
X032303Y019047D01*
X032278Y019043D01*
X032256Y019038D01*
X032237Y019031D01*
X032222Y019023D01*
X03221Y019013D01*
X032201Y019002D01*
X032196Y018989D01*
X032194Y018975D01*
Y01905D01*
X03216Y01905D01*
Y01915D01*
X032194Y01915D01*
Y019225D01*
X032196Y019211D01*
D02*
G37*
G36*
X033196Y019064D02*
X033199Y019043D01*
X033205Y019021D01*
X033214Y018999D01*
X033225Y018977D01*
X033238Y018954D01*
X033254Y018931D01*
X033272Y018907D01*
X033293Y018883D01*
X033316Y018859D01*
Y018718D01*
X033293Y01874D01*
X033272Y018757D01*
X033254Y01877D01*
X033238Y018778D01*
X033225Y018782D01*
X033214Y018781D01*
X033205Y018776D01*
X033199Y018766D01*
X033196Y018751D01*
X033194Y018732D01*
Y019086D01*
X033196Y019064D01*
D02*
G37*
G36*
X051675Y018867D02*
X051683Y018748D01*
X051686Y018732D01*
X05169Y018719D01*
X051694Y018708D01*
X051698Y0187D01*
X051552D01*
X051556Y018708D01*
X05156Y018719D01*
X051564Y018732D01*
X051567Y018748D01*
X051571Y018788D01*
X051574Y018838D01*
X051575Y018899D01*
X051675D01*
X051675Y018867D01*
D02*
G37*
G36*
X040006Y018736D02*
X040004Y018756D01*
X040001Y01877D01*
X039995Y01878D01*
X039986Y018786D01*
X039975Y018786D01*
X039962Y018783D01*
X039946Y018774D01*
X039928Y018762D01*
X039907Y018744D01*
X039884Y018722D01*
Y018864D01*
X039907Y018888D01*
X039946Y018935D01*
X039962Y018958D01*
X039975Y018981D01*
X039986Y019003D01*
X039995Y019025D01*
X040001Y019047D01*
X040004Y019069D01*
X040006Y01909D01*
Y018736D01*
D02*
G37*
G36*
X031806Y018732D02*
X031804Y018751D01*
X031801Y018766D01*
X031795Y018776D01*
X031786Y018781D01*
X031775Y018782D01*
X031762Y018778D01*
X031746Y01877D01*
X031728Y018757D01*
X031707Y01874D01*
X031684Y018718D01*
Y018859D01*
X031707Y018883D01*
X031746Y018931D01*
X031762Y018954D01*
X031775Y018977D01*
X031786Y018999D01*
X031795Y019021D01*
X031801Y019043D01*
X031804Y019064D01*
X031806Y019086D01*
Y018732D01*
D02*
G37*
G36*
X035177Y01861D02*
X035161Y0186D01*
X035147Y018583D01*
X035134Y018559D01*
X035124Y018528D01*
X035115Y018491D01*
X035109Y018447D01*
X035104Y018396D01*
X035103Y01838D01*
X035109Y018305D01*
X035115Y018261D01*
X035124Y018223D01*
X035134Y018193D01*
X035147Y018169D01*
X035161Y018152D01*
X035177Y018142D01*
X035196Y018138D01*
X034804D01*
X034823Y018142D01*
X034839Y018152D01*
X034853Y018169D01*
X034866Y018193D01*
X034876Y018223D01*
X034885Y018261D01*
X034891Y018305D01*
X034896Y018356D01*
X034897Y018372D01*
X034891Y018447D01*
X034885Y018491D01*
X034876Y018528D01*
X034866Y018559D01*
X034853Y018583D01*
X034839Y0186D01*
X034823Y01861D01*
X034804Y018614D01*
X035196D01*
X035177Y01861D01*
D02*
G37*
G36*
X03696Y017332D02*
X036974Y017095D01*
X036977Y01709D01*
X036823D01*
X036826Y017095D01*
X036829Y017106D01*
X036832Y017122D01*
X036834Y017144D01*
X036838Y017241D01*
X03684Y017385D01*
X03696D01*
X03696Y017332D01*
D02*
G37*
G36*
X045773Y016999D02*
X04577Y01701D01*
X045759Y017019D01*
X045742Y017028D01*
X045719Y017035D01*
X045688Y017041D01*
X045651Y017046D01*
X045555Y017053D01*
X045433Y017055D01*
Y017255D01*
X045498Y017256D01*
X045688Y017269D01*
X045719Y017275D01*
X045742Y017283D01*
X045759Y017291D01*
X04577Y017301D01*
X045773Y017311D01*
Y016999D01*
D02*
G37*
G36*
X046323Y017554D02*
X046319Y017542D01*
X046316Y017525D01*
X046313Y017503D01*
X046308Y017443D01*
X046307Y017417D01*
X046309Y017395D01*
X046313Y017372D01*
X046318Y017354D01*
X046324Y017339D01*
X046332Y017327D01*
X04634Y017318D01*
X04635Y017313D01*
X046361Y017311D01*
X046305D01*
X046304Y017261D01*
X046204Y017258D01*
X046204Y017311D01*
X046204Y017311D01*
X046147D01*
X046158Y017313D01*
X046167Y017318D01*
X046176Y017327D01*
X046183Y017339D01*
X04619Y017354D01*
X046195Y017372D01*
X046198Y017391D01*
X046189Y017522D01*
X046185Y017539D01*
X04618Y017552D01*
X046174Y01756D01*
X046328Y017561D01*
X046323Y017554D01*
D02*
G37*
G36*
X046852Y017432D02*
X046817Y017395D01*
X046762Y017332D01*
X046742Y017305D01*
X046728Y017281D01*
X046719Y01726D01*
X046715Y017243D01*
X046716Y017228D01*
X046722Y017217D01*
X046734Y017208D01*
X046521Y017311D01*
X046536Y017313D01*
X046552Y017318D01*
X04657Y017325D01*
X04659Y017336D01*
X046612Y01735D01*
X046635Y017367D01*
X046687Y017411D01*
X046746Y017467D01*
X046852Y017432D01*
D02*
G37*
G36*
X031111Y017155D02*
X031098Y01715D01*
X031087Y017142D01*
X031077Y01713D01*
X031069Y017114D01*
X031062Y017096D01*
X031057Y017074D01*
X031053Y017048D01*
X031051Y017019D01*
X03105Y016987D01*
X03095D01*
X030949Y017019D01*
X030947Y017048D01*
X030943Y017074D01*
X030938Y017096D01*
X030931Y017114D01*
X030923Y01713D01*
X030913Y017142D01*
X030902Y01715D01*
X030889Y017155D01*
X030875Y017157D01*
X031125D01*
X031111Y017155D01*
D02*
G37*
G36*
X046734Y017127D02*
X046737Y017123D01*
X046741Y017117D01*
X046756Y0171D01*
X046808Y017046D01*
X046826Y017028D01*
X046755Y016957D01*
X046745Y016967D01*
X046708Y017D01*
X046705Y017001D01*
X046703Y017001D01*
X046702Y017D01*
X046734Y01713D01*
X046734Y017127D01*
D02*
G37*
G36*
X039311Y017159D02*
X039298Y017154D01*
X039287Y017146D01*
X039277Y017134D01*
X039269Y017119D01*
X039262Y0171D01*
X039257Y017078D01*
X039253Y017052D01*
X039251Y017023D01*
X03925Y016991D01*
X03915D01*
X039149Y017023D01*
X039147Y017052D01*
X039143Y017078D01*
X039138Y0171D01*
X039131Y017119D01*
X039123Y017134D01*
X039113Y017146D01*
X039102Y017154D01*
X039089Y017159D01*
X039075Y017161D01*
X039325D01*
X039311Y017159D01*
D02*
G37*
G36*
X033111Y017155D02*
X033098Y01715D01*
X033087Y017142D01*
X033077Y01713D01*
X033069Y017114D01*
X033062Y017096D01*
X033057Y017074D01*
X033053Y017048D01*
X033051Y017019D01*
X03305Y016987D01*
X03295D01*
X032949Y017019D01*
X032947Y017048D01*
X032943Y017074D01*
X032938Y017096D01*
X032931Y017114D01*
X032923Y01713D01*
X032913Y017142D01*
X032902Y01715D01*
X032889Y017155D01*
X032875Y017157D01*
X033125D01*
X033111Y017155D01*
D02*
G37*
G36*
X043262Y018125D02*
X043232Y018094D01*
X043184Y018038D01*
X043166Y018012D01*
X043152Y017989D01*
X043142Y017967D01*
X043136Y017947D01*
X043133Y017929D01*
X043135Y017913D01*
X043141Y017898D01*
X043016Y018125D01*
X043025Y018114D01*
X043037Y018108D01*
X043052Y018107D01*
X04307Y018112D01*
X043091Y018121D01*
X043115Y018136D01*
X043142Y018156D01*
X043172Y018181D01*
X043242Y018246D01*
X043262Y018125D01*
D02*
G37*
G36*
X046735Y018211D02*
X046741Y018198D01*
X046749Y018187D01*
X046761Y018177D01*
X046777Y018169D01*
X046795Y018162D01*
X046818Y018157D01*
X046843Y018153D01*
X046849Y018153D01*
X047024Y018163D01*
X047041Y018167D01*
X047053Y018172D01*
X04706Y018177D01*
Y018023D01*
X047053Y018028D01*
X047041Y018033D01*
X047024Y018037D01*
X047001Y01804D01*
X046941Y018046D01*
X04686Y018048D01*
X046843Y018047D01*
X046818Y018043D01*
X046795Y018038D01*
X046777Y018031D01*
X046761Y018023D01*
X046749Y018013D01*
X046741Y018002D01*
X046735Y017989D01*
X046734Y017975D01*
Y018225D01*
X046735Y018211D01*
D02*
G37*
G36*
X034177Y01861D02*
X034161Y0186D01*
X034147Y018583D01*
X034134Y018559D01*
X034124Y018528D01*
X034115Y018491D01*
X034109Y018447D01*
X034104Y018396D01*
X034103Y01838D01*
X034109Y018305D01*
X034115Y018261D01*
X034124Y018223D01*
X034134Y018193D01*
X034147Y018169D01*
X034161Y018152D01*
X034177Y018142D01*
X034196Y018138D01*
X033804D01*
X033823Y018142D01*
X033839Y018152D01*
X033853Y018169D01*
X033866Y018193D01*
X033876Y018223D01*
X033885Y018261D01*
X033891Y018305D01*
X033896Y018356D01*
X033897Y018372D01*
X033891Y018447D01*
X033885Y018491D01*
X033876Y018528D01*
X033866Y018559D01*
X033853Y018583D01*
X033839Y0186D01*
X033823Y01861D01*
X033804Y018614D01*
X034196D01*
X034177Y01861D01*
D02*
G37*
G36*
X042578Y018332D02*
X042562Y018326D01*
X042549Y018316D01*
X042537Y018301D01*
X042527Y018283D01*
X042519Y018261D01*
X042513Y018234D01*
X042511Y018219D01*
X042512Y018199D01*
X042516Y018177D01*
X042522Y018159D01*
X042528Y018144D01*
X042535Y018134D01*
X042542Y018128D01*
X042551Y018126D01*
X042295Y018125D01*
X042312Y018127D01*
X042327Y018133D01*
X042341Y018143D01*
X042352Y018158D01*
X042362Y018176D01*
X04237Y018199D01*
X042377Y018225D01*
X042377Y01823D01*
X042377Y018234D01*
X04237Y018261D01*
X042362Y018283D01*
X042352Y018301D01*
X042341Y018316D01*
X042327Y018326D01*
X042312Y018332D01*
X042295Y018334D01*
X042595D01*
X042578Y018332D01*
D02*
G37*
G36*
X051694Y017902D02*
X05169Y017892D01*
X051686Y017878D01*
X051683Y017862D01*
X051679Y017822D01*
X051676Y017772D01*
X051675Y017711D01*
X051575D01*
X051575Y017743D01*
X051567Y017862D01*
X051564Y017878D01*
X05156Y017892D01*
X051556Y017902D01*
X051552Y017911D01*
X051698D01*
X051694Y017902D01*
D02*
G37*
G36*
X041006Y017703D02*
X041035Y017702D01*
X041089Y017702D01*
Y017602D01*
X041035Y017602D01*
X041006Y0176D01*
Y017527D01*
X041004Y017541D01*
X040999Y017554D01*
X04099Y017565D01*
X040978Y017575D01*
X040963Y017583D01*
X040944Y01759D01*
X040923Y017595D01*
X040824Y017589D01*
X040807Y017585D01*
X040795Y01758D01*
X040788Y017575D01*
Y017729D01*
X040795Y017724D01*
X040807Y017719D01*
X040824Y017715D01*
X040847Y017712D01*
X040906Y017706D01*
X040922Y017709D01*
X040944Y017714D01*
X040963Y017721D01*
X040978Y017729D01*
X04099Y017739D01*
X040999Y01775D01*
X041004Y017763D01*
X041006Y017777D01*
Y017703D01*
D02*
G37*
G36*
X032072Y018303D02*
X032067Y018291D01*
X032063Y018274D01*
X03206Y018251D01*
X032057Y01822D01*
X032062Y018199D01*
X032069Y01818D01*
X032077Y018165D01*
X032087Y018153D01*
X032098Y018144D01*
X032111Y018139D01*
X032125Y018137D01*
X032053D01*
X03205Y018063D01*
X03205Y01801D01*
X03195D01*
X03195Y018063D01*
X031945Y018137D01*
X031875D01*
X031889Y018139D01*
X031902Y018144D01*
X031913Y018153D01*
X031923Y018165D01*
X031931Y01818D01*
X031938Y018199D01*
X031941Y01821D01*
X031937Y018274D01*
X031933Y018291D01*
X031928Y018303D01*
X031923Y01831D01*
X032077D01*
X032072Y018303D01*
D02*
G37*
G36*
X040748Y017989D02*
X040761Y017778D01*
X040765Y017761D01*
X04077Y017749D01*
X040775Y017742D01*
X040621D01*
X040626Y017749D01*
X040631Y017761D01*
X040635Y017778D01*
X040638Y017801D01*
X040644Y017861D01*
X040648Y017989D01*
X040648Y018042D01*
X040748D01*
X040748Y017989D01*
D02*
G37*
G36*
X047397Y024272D02*
X047409Y024267D01*
X047426Y024263D01*
X047449Y02426D01*
X047509Y024254D01*
X047637Y02425D01*
X04769Y02425D01*
Y02415D01*
X047637Y02415D01*
X047426Y024137D01*
X047409Y024133D01*
X047397Y024128D01*
X04739Y024123D01*
Y024277D01*
X047397Y024272D01*
D02*
G37*
G36*
X05153Y028075D02*
X051528Y028089D01*
X051523Y028102D01*
X051515Y028113D01*
X051503Y028123D01*
X051487Y028131D01*
X051468Y028138D01*
X051446Y028143D01*
X05142Y028147D01*
X051391Y028149D01*
X051365Y02815D01*
X051337Y02815D01*
X051126Y028137D01*
X051109Y028133D01*
X051097Y028128D01*
X05109Y028123D01*
Y028277D01*
X051097Y028272D01*
X051109Y028267D01*
X051126Y028263D01*
X051149Y02826D01*
X051209Y028254D01*
X051337Y02825D01*
X051365Y02825D01*
X051391Y028251D01*
X05142Y028253D01*
X051446Y028257D01*
X051468Y028262D01*
X051487Y028269D01*
X051503Y028277D01*
X051515Y028287D01*
X051523Y028298D01*
X051528Y028311D01*
X05153Y028325D01*
Y028075D01*
D02*
G37*
G36*
X042672Y028453D02*
X042667Y028441D01*
X042663Y028424D01*
X04266Y028401D01*
X042654Y028341D01*
X04265Y028213D01*
X04265Y02816D01*
X04255D01*
X04255Y028213D01*
X042537Y028424D01*
X042533Y028441D01*
X042528Y028453D01*
X042523Y02846D01*
X042677D01*
X042672Y028453D01*
D02*
G37*
G36*
X051745Y02843D02*
X051749Y028372D01*
X05175Y028368D01*
X051751Y028366D01*
X051753Y028365D01*
X051637D01*
X051638Y028366D01*
X05164Y028368D01*
X051641Y028372D01*
X051642Y028378D01*
X051643Y028385D01*
X051644Y028404D01*
X051645Y028445D01*
X051745D01*
X051745Y02843D01*
D02*
G37*
G36*
X048474Y028755D02*
X048471Y028744D01*
X048468Y028728D01*
X048466Y028706D01*
X048462Y028609D01*
X048461Y028524D01*
X048474Y028295D01*
X048477Y02829D01*
X048323D01*
X048326Y028295D01*
X048329Y028306D01*
X048332Y028322D01*
X048334Y028344D01*
X048338Y028441D01*
X048339Y028526D01*
X048326Y028755D01*
X048323Y02876D01*
X048477D01*
X048474Y028755D01*
D02*
G37*
G36*
X051806Y028032D02*
X051793Y028027D01*
X051782Y028019D01*
X051772Y028007D01*
X051764Y027991D01*
X051757Y027973D01*
X051752Y027951D01*
X051748Y027925D01*
X051746Y027896D01*
X051745Y027864D01*
X051645D01*
X051644Y027896D01*
X051642Y027925D01*
X051638Y027951D01*
X051633Y027973D01*
X051626Y027991D01*
X051618Y028007D01*
X051608Y028019D01*
X051597Y028027D01*
X051584Y028032D01*
X05157Y028034D01*
X05182D01*
X051806Y028032D01*
D02*
G37*
G36*
X053647Y027976D02*
X053691Y027971D01*
X053672Y027951D01*
X053691Y027932D01*
X053682Y027931D01*
X05367Y027925D01*
X053655Y027916D01*
X053637Y027903D01*
X053606Y027877D01*
X0536Y02787D01*
X053581Y027843D01*
X053566Y027819D01*
X053556Y027798D01*
X053552Y02778D01*
X053553Y027765D01*
X053559Y027753D01*
X05357Y027744D01*
X053501Y02778D01*
X053497Y027776D01*
X053459Y027739D01*
X053389Y027809D01*
X053408Y027829D01*
X053339Y027865D01*
X053354Y02786D01*
X05337Y027858D01*
X053389Y027861D01*
X053409Y027867D01*
X05343Y027877D01*
X053454Y027891D01*
X053479Y027909D01*
X053486Y027914D01*
X053566Y028005D01*
X053575Y02802D01*
X053581Y028032D01*
X053582Y028041D01*
X053647Y027976D01*
D02*
G37*
G36*
X039349Y028407D02*
X039352Y028385D01*
X039359Y028364D01*
X039367Y028341D01*
X039378Y028319D01*
X039391Y028296D01*
X039407Y028273D01*
X039425Y02825D01*
X039446Y028226D01*
X039469Y028202D01*
Y02806D01*
X03946Y028068D01*
X039451Y028075D01*
X039441Y028081D01*
X03943Y028087D01*
X039418Y028091D01*
X039406Y028095D01*
X039393Y028098D01*
X039379Y0281D01*
X039364Y028101D01*
X039349Y028101D01*
X039348Y028428D01*
X039349Y028407D01*
D02*
G37*
G36*
X050991Y028082D02*
X050982Y028081D01*
X05097Y028075D01*
X050955Y028066D01*
X050937Y028053D01*
X050891Y028014D01*
X050797Y027926D01*
X050759Y027889D01*
X050689Y027959D01*
X050726Y027997D01*
X050866Y028155D01*
X050875Y02817D01*
X050881Y028182D01*
X050882Y028191D01*
X050991Y028082D01*
D02*
G37*
G36*
X042251Y028836D02*
X042253Y028807D01*
X042257Y028781D01*
X042262Y028759D01*
X042269Y02874D01*
X042277Y028725D01*
X042287Y028713D01*
X042298Y028704D01*
X042311Y028699D01*
X042325Y028698D01*
X042075D01*
X042089Y028699D01*
X042102Y028704D01*
X042113Y028713D01*
X042123Y028725D01*
X042131Y02874D01*
X042138Y028759D01*
X042143Y028781D01*
X042147Y028807D01*
X042149Y028836D01*
X04215Y028869D01*
X04225D01*
X042251Y028836D01*
D02*
G37*
G36*
X041501D02*
X041503Y028807D01*
X041507Y028781D01*
X041512Y028759D01*
X041519Y02874D01*
X041527Y028725D01*
X041537Y028713D01*
X041548Y028704D01*
X041561Y028699D01*
X041575Y028698D01*
X041325D01*
X041339Y028699D01*
X041352Y028704D01*
X041363Y028713D01*
X041373Y028725D01*
X041381Y02874D01*
X041388Y028759D01*
X041393Y028781D01*
X041397Y028807D01*
X041399Y028836D01*
X0414Y028869D01*
X0415D01*
X041501Y028836D01*
D02*
G37*
G36*
X043761Y028864D02*
X043764Y028829D01*
X043768Y028799D01*
X043774Y028772D01*
X043782Y02875D01*
X043792Y028731D01*
X043803Y028717D01*
X043817Y028707D01*
X043832Y028701D01*
X043849Y028699D01*
X043551D01*
X043568Y028701D01*
X043583Y028707D01*
X043597Y028717D01*
X043608Y028731D01*
X043618Y02875D01*
X043626Y028772D01*
X043632Y028799D01*
X043636Y028829D01*
X043639Y028864D01*
X04364Y028903D01*
X04376D01*
X043761Y028864D01*
D02*
G37*
G36*
X043001Y028836D02*
X043003Y028807D01*
X043007Y028781D01*
X043012Y028759D01*
X043019Y02874D01*
X043027Y028725D01*
X043037Y028713D01*
X043048Y028704D01*
X043061Y028699D01*
X043075Y028698D01*
X042825D01*
X042839Y028699D01*
X042852Y028704D01*
X042863Y028713D01*
X042873Y028725D01*
X042881Y02874D01*
X042888Y028759D01*
X042893Y028781D01*
X042897Y028807D01*
X042899Y028836D01*
X0429Y028869D01*
X043D01*
X043001Y028836D01*
D02*
G37*
G36*
X039251D02*
X039253Y028807D01*
X039257Y028781D01*
X039262Y028759D01*
X039269Y02874D01*
X039277Y028725D01*
X039287Y028713D01*
X039298Y028704D01*
X039311Y028699D01*
X039325Y028698D01*
X039075D01*
X039089Y028699D01*
X039102Y028704D01*
X039113Y028713D01*
X039123Y028725D01*
X039131Y02874D01*
X039138Y028759D01*
X039143Y028781D01*
X039147Y028807D01*
X039149Y028836D01*
X03915Y028869D01*
X03925D01*
X039251Y028836D01*
D02*
G37*
G36*
X038501D02*
X038503Y028807D01*
X038507Y028781D01*
X038512Y028759D01*
X038519Y02874D01*
X038527Y028725D01*
X038537Y028713D01*
X038548Y028704D01*
X038561Y028699D01*
X038575Y028698D01*
X038325D01*
X038339Y028699D01*
X038352Y028704D01*
X038363Y028713D01*
X038373Y028725D01*
X038381Y02874D01*
X038388Y028759D01*
X038393Y028781D01*
X038397Y028807D01*
X038399Y028836D01*
X0384Y028869D01*
X0385D01*
X038501Y028836D01*
D02*
G37*
G36*
X040751D02*
X040753Y028807D01*
X040757Y028781D01*
X040762Y028759D01*
X040769Y02874D01*
X040777Y028725D01*
X040787Y028713D01*
X040798Y028704D01*
X040811Y028699D01*
X040825Y028698D01*
X040575D01*
X040589Y028699D01*
X040602Y028704D01*
X040613Y028713D01*
X040623Y028725D01*
X040631Y02874D01*
X040638Y028759D01*
X040643Y028781D01*
X040647Y028807D01*
X040649Y028836D01*
X04065Y028869D01*
X04075D01*
X040751Y028836D01*
D02*
G37*
G36*
X040001D02*
X040003Y028807D01*
X040007Y028781D01*
X040012Y028759D01*
X040019Y02874D01*
X040027Y028725D01*
X040037Y028713D01*
X040048Y028704D01*
X040061Y028699D01*
X040075Y028698D01*
X039825D01*
X039839Y028699D01*
X039852Y028704D01*
X039863Y028713D01*
X039873Y028725D01*
X039881Y02874D01*
X039888Y028759D01*
X039893Y028781D01*
X039897Y028807D01*
X039899Y028836D01*
X0399Y028869D01*
X04D01*
X040001Y028836D01*
D02*
G37*
G36*
X043495Y027745D02*
X043494Y027746D01*
X043489Y027747D01*
X043481Y027748D01*
X043442Y027749D01*
X04335Y02775D01*
Y02785D01*
X043495Y027855D01*
Y027745D01*
D02*
G37*
G36*
X054775Y027603D02*
X054785Y027592D01*
X054802Y027582D01*
X054826Y027574D01*
X054856Y027567D01*
X054894Y027561D01*
X054938Y027556D01*
X055047Y027551D01*
X055111Y02755D01*
Y02735D01*
X055047Y027349D01*
X054894Y027339D01*
X054856Y027333D01*
X054826Y027326D01*
X054802Y027318D01*
X054785Y027308D01*
X054775Y027297D01*
X054771Y027284D01*
Y027616D01*
X054775Y027603D01*
D02*
G37*
G36*
X045767Y027516D02*
X045772Y027503D01*
X04578Y027492D01*
X045792Y027482D01*
X045808Y027474D01*
X045826Y027467D01*
X045849Y027462D01*
X045874Y027458D01*
X045903Y027456D01*
X045936Y027455D01*
Y027355D01*
X045903Y027354D01*
X045874Y027352D01*
X045849Y027348D01*
X045826Y027343D01*
X045808Y027336D01*
X045792Y027328D01*
X04578Y027318D01*
X045772Y027307D01*
X045767Y027294D01*
X045765Y02728D01*
Y02753D01*
X045767Y027516D01*
D02*
G37*
G36*
X03948Y02739D02*
X039371D01*
X039372Y027393D01*
X039372Y0274D01*
X039374Y027422D01*
X039375Y027567D01*
X039475D01*
X03948Y02739D01*
D02*
G37*
G36*
X05383Y0273D02*
X053828Y027314D01*
X053823Y027327D01*
X053815Y027338D01*
X053803Y027348D01*
X053787Y027356D01*
X053768Y027363D01*
X053746Y027368D01*
X05372Y027372D01*
X053691Y027374D01*
X053659Y027375D01*
Y027475D01*
X053691Y027476D01*
X05372Y027478D01*
X053746Y027482D01*
X053768Y027487D01*
X053787Y027494D01*
X053803Y027502D01*
X053815Y027512D01*
X053823Y027523D01*
X053828Y027536D01*
X05383Y02755D01*
Y0273D01*
D02*
G37*
G36*
X035647Y027474D02*
X035805Y027334D01*
X03582Y027325D01*
X035832Y027319D01*
X035841Y027318D01*
X035732Y027209D01*
X035731Y027218D01*
X035725Y02723D01*
X035716Y027245D01*
X035703Y027263D01*
X035664Y027309D01*
X035576Y027403D01*
X035539Y027441D01*
X035609Y027511D01*
X035647Y027474D01*
D02*
G37*
G36*
X046547Y027322D02*
X046559Y027317D01*
X046576Y027313D01*
X046599Y02731D01*
X046659Y027304D01*
X046787Y0273D01*
X04684Y0273D01*
Y0272D01*
X046787Y0272D01*
X046576Y027187D01*
X046559Y027183D01*
X046547Y027178D01*
X04654Y027173D01*
Y027327D01*
X046547Y027322D01*
D02*
G37*
G36*
X053456Y027556D02*
X05346Y027539D01*
X053462Y027534D01*
X053485D01*
X05348Y027533D01*
X053474Y02753D01*
X05347Y027524D01*
X053468Y027521D01*
X053474Y027511D01*
X053485Y0275D01*
X053498Y027491D01*
X053514Y027484D01*
X053532Y027479D01*
X053552Y027476D01*
X053575Y027475D01*
Y027375D01*
X053552Y027374D01*
X053532Y027371D01*
X053514Y027366D01*
X053498Y027359D01*
X053485Y02735D01*
X053474Y027339D01*
X053468Y027329D01*
X05347Y027325D01*
X053474Y027319D01*
X05348Y027316D01*
X053485Y027315D01*
X053461D01*
X05346Y027311D01*
X053456Y027294D01*
X053455Y027275D01*
X053429Y027315D01*
X053325D01*
X053331Y027316D01*
X053336Y027319D01*
X05334Y027325D01*
X053344Y027332D01*
X053348Y027342D01*
X05335Y027354D01*
X053352Y027369D01*
X053354Y027385D01*
X053355Y027425D01*
X053355Y027446D01*
X053352Y027481D01*
X05335Y027495D01*
X053348Y027507D01*
X053344Y027517D01*
X05334Y027524D01*
X053336Y02753D01*
X053331Y027533D01*
X053325Y027534D01*
X053428D01*
X053455Y027575D01*
X053456Y027556D01*
D02*
G37*
G36*
X055601Y027251D02*
X055598Y02727D01*
X055588Y027287D01*
X055571Y027302D01*
X055547Y027314D01*
X055516Y027325D01*
X055479Y027334D01*
X055435Y027341D01*
X055384Y027346D01*
X055261Y02735D01*
Y02755D01*
X055326Y027551D01*
X055435Y027559D01*
X055479Y027566D01*
X055516Y027575D01*
X055547Y027586D01*
X055571Y027598D01*
X055588Y027613D01*
X055598Y02763D01*
X055601Y027649D01*
Y027251D01*
D02*
G37*
G36*
X052103Y027641D02*
X052097Y027638D01*
X052092Y027632D01*
X052087Y027624D01*
X052083Y027613D01*
X05208Y0276D01*
X052078Y027585D01*
X052076Y027568D01*
X052074Y027526D01*
X051974D01*
X051974Y027548D01*
X051971Y027585D01*
X051969Y0276D01*
X051965Y027613D01*
X051962Y027624D01*
X051957Y027632D01*
X051952Y027638D01*
X051945Y027641D01*
X051939Y027642D01*
X05211D01*
X052103Y027641D01*
D02*
G37*
G36*
X037029Y027818D02*
X037197Y02767D01*
X037202Y02767D01*
X037196Y027665D01*
X037201Y027662D01*
X037215Y027658D01*
X037232Y027659D01*
X037251Y027664D01*
X037272Y027674D01*
X037296Y027688D01*
X037322Y027707D01*
X037351Y027731D01*
X037415Y027791D01*
X037486Y027721D01*
X037454Y027687D01*
X037402Y027627D01*
X037383Y027601D01*
X037369Y027577D01*
X037359Y027556D01*
X037354Y027537D01*
X037353Y02752D01*
X037357Y027506D01*
X037365Y027494D01*
X037195Y027664D01*
X037041Y027509D01*
X037211Y027339D01*
X037199Y027347D01*
X037185Y027351D01*
X037168Y027351D01*
X037149Y027345D01*
X037128Y027336D01*
X037104Y027321D01*
X037078Y027302D01*
X037049Y027279D01*
X036984Y027219D01*
X036914Y02729D01*
X036946Y027323D01*
X036997Y027383D01*
X037016Y027409D01*
X03703Y027433D01*
X03704Y027454D01*
X037045Y027473D01*
X037046Y02749D01*
X037042Y027504D01*
X03704Y027508D01*
X037035Y027504D01*
X037036Y027508D01*
X037032Y027516D01*
X037024Y027528D01*
X037011Y027543D01*
X036974Y027585D01*
X036849Y027714D01*
X036991Y027856D01*
X037029Y027818D01*
D02*
G37*
G36*
X052463Y028199D02*
X052459Y028185D01*
X05246Y028168D01*
X052465Y028149D01*
X052475Y028128D01*
X052489Y028104D01*
X052508Y028078D01*
X052531Y028049D01*
X052591Y027985D01*
X052623Y027954D01*
X052682Y027904D01*
X052708Y027885D01*
X052711Y027883D01*
X052718Y027892D01*
X052726Y027908D01*
X052731Y027922D01*
X052729Y027932D01*
X052725Y027948D01*
X052719Y027961D01*
X052713Y02797D01*
X052741Y027969D01*
X052742Y027974D01*
X052744Y028003D01*
X052745Y028036D01*
X052845D01*
X052846Y028003D01*
X052848Y027974D01*
X052849Y027968D01*
X052884Y027967D01*
X052877Y027957D01*
X05287Y027944D01*
X052864Y027927D01*
X052861Y027915D01*
X052864Y027908D01*
X052872Y027892D01*
X052882Y02788D01*
X052893Y027872D01*
X052906Y027867D01*
X05292Y027865D01*
X052853D01*
X052848Y027825D01*
X052845Y027752D01*
X052845Y02771D01*
X052745D01*
X052745Y027753D01*
X052741Y027799D01*
X05263Y027699D01*
X052639Y027711D01*
X052643Y027724D01*
X052642Y027741D01*
X052637Y027759D01*
X05263Y027775D01*
Y027575D01*
X052628Y027589D01*
X052623Y027602D01*
X052615Y027613D01*
X052603Y027623D01*
X052587Y027631D01*
X052568Y027638D01*
X052546Y027643D01*
X05252Y027647D01*
X052513Y027648D01*
X052397Y027642D01*
Y027758D01*
X052399Y027756D01*
X052404Y027755D01*
X052412Y027754D01*
X05244Y027752D01*
X052496Y027751D01*
X05252Y027753D01*
X052546Y027757D01*
X052568Y027762D01*
X052587Y027769D01*
X052603Y027777D01*
X052615Y027787D01*
X05262Y027793D01*
X052613Y027805D01*
X052594Y027831D01*
X05257Y02786D01*
X052512Y027922D01*
X052487Y027946D01*
X052428Y027997D01*
X052401Y028016D01*
X052377Y02803D01*
X052356Y02804D01*
X052337Y028045D01*
X05232Y028046D01*
X052306Y028042D01*
X052294Y028034D01*
X052471Y028211D01*
X052463Y028199D01*
D02*
G37*
G36*
X04247Y027842D02*
X042474Y027832D01*
X042481Y027819D01*
X042492Y027805D01*
X042522Y027768D01*
X042564Y027723D01*
X042617Y027668D01*
X042532Y027583D01*
X042504Y027611D01*
X042381Y027719D01*
X042368Y027726D01*
X042358Y02773D01*
X04235Y027732D01*
X042468Y02785D01*
X04247Y027842D01*
D02*
G37*
G36*
X042236Y02739D02*
X042127D01*
X042127Y027393D01*
X042128Y027398D01*
X042129Y027405D01*
X04213Y02744D01*
X042131Y027519D01*
X042231D01*
X042236Y02739D01*
D02*
G37*
G36*
X039677D02*
X039568D01*
X039568Y027393D01*
X039569Y0274D01*
X03957Y027422D01*
X039572Y027567D01*
X039672D01*
X039677Y02739D01*
D02*
G37*
G36*
X04322D02*
X043111D01*
X043112Y027393D01*
X043112Y0274D01*
X043114Y027422D01*
X043115Y027567D01*
X043215D01*
X04322Y02739D01*
D02*
G37*
G36*
X042826D02*
X042717D01*
X042718Y027393D01*
X042719Y0274D01*
X04272Y027422D01*
X042722Y027567D01*
X042822D01*
X042826Y02739D01*
D02*
G37*
G36*
X046241Y028982D02*
X046232Y028981D01*
X04622Y028975D01*
X046205Y028966D01*
X046187Y028953D01*
X046141Y028914D01*
X046047Y028826D01*
X046009Y028789D01*
X045939Y028859D01*
X045976Y028897D01*
X046116Y029055D01*
X046125Y02907D01*
X046131Y029082D01*
X046132Y029091D01*
X046241Y028982D01*
D02*
G37*
G36*
X054926Y030265D02*
X054932Y030253D01*
X05494Y030241D01*
X054952Y030232D01*
X054967Y030223D01*
X054986Y030217D01*
X055009Y030211D01*
X055034Y030208D01*
X055063Y030205D01*
X055096Y030205D01*
Y030105D01*
X055063Y030104D01*
X055034Y030102D01*
X055009Y030098D01*
X054986Y030093D01*
X054967Y030086D01*
X054952Y030078D01*
X05494Y030068D01*
X054932Y030057D01*
X054926Y030044D01*
X054925Y03003D01*
Y03028D01*
X054926Y030265D01*
D02*
G37*
G36*
X054575Y03003D02*
X054574Y030044D01*
X054568Y030057D01*
X05456Y030068D01*
X054548Y030078D01*
X054533Y030086D01*
X054514Y030093D01*
X054491Y030098D01*
X054466Y030102D01*
X054437Y030104D01*
X054404Y030105D01*
Y030205D01*
X054437Y030205D01*
X054466Y030208D01*
X054491Y030211D01*
X054514Y030217D01*
X054533Y030223D01*
X054548Y030232D01*
X05456Y030241D01*
X054568Y030253D01*
X054574Y030265D01*
X054575Y03028D01*
Y03003D01*
D02*
G37*
G36*
X055926Y030265D02*
X055932Y030253D01*
X05594Y030241D01*
X055952Y030232D01*
X055967Y030223D01*
X055986Y030217D01*
X056009Y030211D01*
X056034Y030208D01*
X056063Y030205D01*
X056096Y030205D01*
Y030105D01*
X056063Y030104D01*
X056034Y030102D01*
X056009Y030098D01*
X055986Y030093D01*
X055967Y030086D01*
X055952Y030078D01*
X05594Y030068D01*
X055932Y030057D01*
X055926Y030044D01*
X055925Y03003D01*
Y03028D01*
X055926Y030265D01*
D02*
G37*
G36*
X055575Y03003D02*
X055574Y030044D01*
X055568Y030057D01*
X05556Y030068D01*
X055548Y030078D01*
X055533Y030086D01*
X055514Y030093D01*
X055491Y030098D01*
X055466Y030102D01*
X055437Y030104D01*
X055404Y030105D01*
Y030205D01*
X055437Y030205D01*
X055466Y030208D01*
X055491Y030211D01*
X055514Y030217D01*
X055533Y030223D01*
X055548Y030232D01*
X05556Y030241D01*
X055568Y030253D01*
X055574Y030265D01*
X055575Y03028D01*
Y03003D01*
D02*
G37*
G36*
X037752Y02995D02*
X037702Y029949D01*
X037579Y029939D01*
X037546Y029933D01*
X037518Y029926D01*
X037494Y029918D01*
X037474Y029908D01*
X037459Y029896D01*
X037448Y029884D01*
X037428Y030039D01*
X037696Y03005D01*
X037752Y02995D01*
D02*
G37*
G36*
X049075Y030221D02*
X049069Y030211D01*
X049063Y030194D01*
X049058Y03017D01*
X049054Y030139D01*
X049049Y030058D01*
X049048Y03002D01*
X049063Y029806D01*
X049069Y029789D01*
X049075Y029779D01*
X049082Y029776D01*
X048809D01*
X048816Y029779D01*
X048822Y029789D01*
X048827Y029806D01*
X048832Y02983D01*
X048836Y029861D01*
X048842Y029942D01*
X048843Y02998D01*
X048827Y030194D01*
X048822Y030211D01*
X048816Y030221D01*
X048809Y030224D01*
X049082D01*
X049075Y030221D01*
D02*
G37*
G36*
X053876Y030265D02*
X053882Y030253D01*
X05389Y030241D01*
X053902Y030232D01*
X053917Y030223D01*
X053936Y030217D01*
X053959Y030211D01*
X053984Y030208D01*
X054013Y030205D01*
X054046Y030205D01*
Y030105D01*
X054013Y030104D01*
X053984Y030102D01*
X053959Y030098D01*
X053936Y030093D01*
X053917Y030086D01*
X053902Y030078D01*
X05389Y030068D01*
X053882Y030057D01*
X053876Y030044D01*
X053875Y03003D01*
Y03028D01*
X053876Y030265D01*
D02*
G37*
G36*
X053525Y03003D02*
X053524Y030044D01*
X053518Y030057D01*
X05351Y030068D01*
X053498Y030078D01*
X053483Y030086D01*
X053464Y030093D01*
X053441Y030098D01*
X053416Y030102D01*
X053387Y030104D01*
X053354Y030105D01*
Y030205D01*
X053387Y030205D01*
X053416Y030208D01*
X053441Y030211D01*
X053464Y030217D01*
X053483Y030223D01*
X053498Y030232D01*
X05351Y030241D01*
X053518Y030253D01*
X053524Y030265D01*
X053525Y03028D01*
Y03003D01*
D02*
G37*
G36*
Y03062D02*
X053524Y030635D01*
X053518Y030647D01*
X05351Y030659D01*
X053498Y030668D01*
X053483Y030677D01*
X053464Y030683D01*
X053441Y030689D01*
X053416Y030692D01*
X053387Y030695D01*
X053354Y030695D01*
Y030795D01*
X053387Y030796D01*
X053416Y030798D01*
X053441Y030802D01*
X053464Y030807D01*
X053483Y030814D01*
X053498Y030822D01*
X05351Y030832D01*
X053518Y030843D01*
X053524Y030856D01*
X053525Y03087D01*
Y03062D01*
D02*
G37*
G36*
X048219Y030275D02*
X048218Y030289D01*
X048213Y030302D01*
X048204Y030313D01*
X048192Y030323D01*
X048177Y030331D01*
X048158Y030338D01*
X048136Y030343D01*
X04811Y030347D01*
X048083Y030349D01*
X048057Y030347D01*
X048031Y030343D01*
X048009Y030338D01*
X04799Y030331D01*
X047975Y030323D01*
X047963Y030313D01*
X047954Y030302D01*
X047949Y030289D01*
X047948Y030275D01*
Y030525D01*
X047949Y030511D01*
X047954Y030498D01*
X047963Y030487D01*
X047975Y030477D01*
X04799Y030469D01*
X048009Y030462D01*
X048031Y030457D01*
X048057Y030453D01*
X048083Y030451D01*
X04811Y030453D01*
X048136Y030457D01*
X048158Y030462D01*
X048177Y030469D01*
X048192Y030477D01*
X048204Y030487D01*
X048213Y030498D01*
X048218Y030511D01*
X048219Y030525D01*
Y030275D01*
D02*
G37*
G36*
X055575Y03062D02*
X055574Y030635D01*
X055568Y030647D01*
X05556Y030659D01*
X055548Y030668D01*
X055533Y030677D01*
X055514Y030683D01*
X055491Y030689D01*
X055466Y030692D01*
X055437Y030695D01*
X055404Y030695D01*
Y030795D01*
X055437Y030796D01*
X055466Y030798D01*
X055491Y030802D01*
X055514Y030807D01*
X055533Y030814D01*
X055548Y030822D01*
X05556Y030832D01*
X055568Y030843D01*
X055574Y030856D01*
X055575Y03087D01*
Y03062D01*
D02*
G37*
G36*
X054575D02*
X054574Y030635D01*
X054568Y030647D01*
X05456Y030659D01*
X054548Y030668D01*
X054533Y030677D01*
X054514Y030683D01*
X054491Y030689D01*
X054466Y030692D01*
X054437Y030695D01*
X054404Y030695D01*
Y030795D01*
X054437Y030796D01*
X054466Y030798D01*
X054491Y030802D01*
X054514Y030807D01*
X054533Y030814D01*
X054548Y030822D01*
X05456Y030832D01*
X054568Y030843D01*
X054574Y030856D01*
X054575Y03087D01*
Y03062D01*
D02*
G37*
G36*
X024699Y030361D02*
X024704Y030348D01*
X024713Y030337D01*
X024725Y030327D01*
X02474Y030319D01*
X024759Y030312D01*
X024781Y030307D01*
X024792Y030305D01*
X024924Y030313D01*
X024941Y030317D01*
X024953Y030322D01*
X02496Y030327D01*
Y030173D01*
X024953Y030178D01*
X024941Y030183D01*
X024924Y030187D01*
X024901Y03019D01*
X024841Y030196D01*
X024806Y030197D01*
X024781Y030193D01*
X024759Y030188D01*
X02474Y030181D01*
X024725Y030173D01*
X024713Y030163D01*
X024704Y030152D01*
X024699Y030139D01*
X024697Y030125D01*
Y0302D01*
X02466Y0302D01*
Y0303D01*
X024697Y0303D01*
Y030375D01*
X024699Y030361D01*
D02*
G37*
G36*
X056539Y030074D02*
X056532Y03008D01*
X056519Y030085D01*
X056502Y03009D01*
X056479Y030094D01*
X056451Y030097D01*
X056338Y030103D01*
X056237Y030105D01*
X056242Y030205D01*
X056295Y030205D01*
X056523Y03022D01*
X056535Y030224D01*
X056541Y030228D01*
X056539Y030074D01*
D02*
G37*
G36*
X049566Y030617D02*
X04957Y0306D01*
X049578Y03058D01*
X04959Y030559D01*
X049606Y030534D01*
X049625Y030508D01*
X049677Y030447D01*
X049744Y030377D01*
X049648Y030331D01*
X049448Y030532D01*
X049567Y030631D01*
X049566Y030617D01*
D02*
G37*
G36*
X046553Y030448D02*
X046596Y03045D01*
X046652Y03035D01*
X046602Y030349D01*
X046553Y030345D01*
Y030275D01*
X046551Y030289D01*
X046546Y030302D01*
X046537Y030313D01*
X046525Y030323D01*
X04651Y030331D01*
X046491Y030338D01*
X046483Y03034D01*
X046479Y030339D01*
X046446Y030333D01*
X046418Y030326D01*
X046394Y030318D01*
X046374Y030308D01*
X046359Y030296D01*
X046348Y030284D01*
X046328Y030439D01*
X046381Y030441D01*
Y03045D01*
X046414Y030451D01*
X046443Y030453D01*
X046469Y030457D01*
X046491Y030462D01*
X04651Y030469D01*
X046525Y030477D01*
X046537Y030487D01*
X046546Y030498D01*
X046551Y030511D01*
X046553Y030525D01*
Y030448D01*
D02*
G37*
G36*
X048219Y029475D02*
X048218Y029489D01*
X048213Y029502D01*
X048204Y029513D01*
X048192Y029523D01*
X048177Y029531D01*
X048158Y029538D01*
X048136Y029543D01*
X04811Y029547D01*
X048083Y029549D01*
X048057Y029547D01*
X048031Y029543D01*
X048009Y029538D01*
X04799Y029531D01*
X047975Y029523D01*
X047963Y029513D01*
X047954Y029502D01*
X047949Y029489D01*
X047948Y029475D01*
Y029725D01*
X047949Y029711D01*
X047954Y029698D01*
X047963Y029687D01*
X047975Y029677D01*
X04799Y029669D01*
X048009Y029662D01*
X048031Y029657D01*
X048057Y029653D01*
X048083Y029651D01*
X04811Y029653D01*
X048136Y029657D01*
X048158Y029662D01*
X048177Y029669D01*
X048192Y029677D01*
X048204Y029687D01*
X048213Y029698D01*
X048218Y029711D01*
X048219Y029725D01*
Y029475D01*
D02*
G37*
G36*
X042272Y029403D02*
X042267Y029391D01*
X042263Y029374D01*
X04226Y029351D01*
X042254Y029291D01*
X04225Y029163D01*
X04225Y02911D01*
X04215D01*
X04215Y029163D01*
X042137Y029374D01*
X042133Y029391D01*
X042128Y029403D01*
X042123Y02941D01*
X042277D01*
X042272Y029403D01*
D02*
G37*
G36*
X041522D02*
X041517Y029391D01*
X041513Y029374D01*
X04151Y029351D01*
X041504Y029291D01*
X0415Y029163D01*
X0415Y02911D01*
X0414D01*
X0414Y029163D01*
X041387Y029374D01*
X041383Y029391D01*
X041378Y029403D01*
X041373Y02941D01*
X041527D01*
X041522Y029403D01*
D02*
G37*
G36*
X043774Y029405D02*
X043771Y029394D01*
X043768Y029378D01*
X043766Y029356D01*
X043762Y029259D01*
X04376Y029115D01*
X04364D01*
X04364Y029168D01*
X043626Y029405D01*
X043623Y02941D01*
X043777D01*
X043774Y029405D01*
D02*
G37*
G36*
X043022Y029403D02*
X043017Y029391D01*
X043013Y029374D01*
X04301Y029351D01*
X043004Y029291D01*
X043Y029163D01*
X043Y02911D01*
X0429D01*
X0429Y029163D01*
X042887Y029374D01*
X042883Y029391D01*
X042878Y029403D01*
X042873Y02941D01*
X043027D01*
X043022Y029403D01*
D02*
G37*
G36*
X052441Y029082D02*
X052432Y029081D01*
X05242Y029075D01*
X052405Y029066D01*
X052387Y029053D01*
X052341Y029014D01*
X052247Y028926D01*
X052209Y028889D01*
X052139Y028959D01*
X052176Y028997D01*
X052316Y029155D01*
X052325Y02917D01*
X052331Y029182D01*
X052332Y029191D01*
X052441Y029082D01*
D02*
G37*
G36*
X027251Y028936D02*
X027253Y028907D01*
X027257Y028881D01*
X027262Y028859D01*
X027269Y02884D01*
X027277Y028825D01*
X027287Y028813D01*
X027298Y028804D01*
X027306Y028801D01*
X027315Y028802D01*
X027336Y028808D01*
X027358Y028817D01*
X027381Y028828D01*
X027404Y028841D01*
X027427Y028857D01*
X02745Y028875D01*
X027474Y028896D01*
X027498Y028919D01*
X02764D01*
X027618Y028896D01*
X0276Y028875D01*
X027587Y028857D01*
X027579Y028841D01*
X027575Y028828D01*
X027576Y028817D01*
X027582Y028808D01*
X027592Y028802D01*
X027606Y028799D01*
X027625Y028798D01*
X027075D01*
X027089Y028799D01*
X027102Y028804D01*
X027113Y028813D01*
X027123Y028825D01*
X027131Y02884D01*
X027138Y028859D01*
X027143Y028881D01*
X027147Y028907D01*
X027149Y028936D01*
X02715Y028969D01*
X02725D01*
X027251Y028936D01*
D02*
G37*
G36*
X040772Y029403D02*
X040767Y029391D01*
X040763Y029374D01*
X04076Y029351D01*
X040754Y029291D01*
X04075Y029163D01*
X04075Y02911D01*
X04065D01*
X04065Y029163D01*
X040637Y029374D01*
X040633Y029391D01*
X040628Y029403D01*
X040623Y02941D01*
X040777D01*
X040772Y029403D01*
D02*
G37*
G36*
X027272D02*
X027267Y029391D01*
X027263Y029374D01*
X02726Y029351D01*
X027254Y029291D01*
X02725Y029163D01*
X02725Y02911D01*
X02715D01*
X02715Y029163D01*
X027137Y029374D01*
X027133Y029391D01*
X027128Y029403D01*
X027123Y02941D01*
X027277D01*
X027272Y029403D01*
D02*
G37*
G36*
X028969Y029375D02*
X028968Y029389D01*
X028963Y029402D01*
X028954Y029413D01*
X028942Y029423D01*
X028927Y029431D01*
X028908Y029438D01*
X028886Y029443D01*
X02886Y029447D01*
X028831Y029449D01*
X028798Y02945D01*
Y02955D01*
X028831Y029551D01*
X02886Y029553D01*
X028886Y029557D01*
X028908Y029562D01*
X028927Y029569D01*
X028942Y029577D01*
X028954Y029587D01*
X028963Y029598D01*
X028968Y029611D01*
X028969Y029625D01*
Y029375D01*
D02*
G37*
G36*
X052991Y029632D02*
X052982Y029631D01*
X05297Y029625D01*
X052955Y029616D01*
X052937Y029603D01*
X052891Y029564D01*
X052797Y029476D01*
X05276Y02944D01*
X052724Y029403D01*
X052584Y029245D01*
X052575Y02923D01*
X052569Y029218D01*
X052568Y029209D01*
X052459Y029318D01*
X052468Y029319D01*
X05248Y029325D01*
X052495Y029334D01*
X052513Y029347D01*
X052559Y029386D01*
X052653Y029474D01*
X05269Y02951D01*
X052726Y029547D01*
X052866Y029705D01*
X052875Y02972D01*
X052881Y029732D01*
X052882Y029741D01*
X052991Y029632D01*
D02*
G37*
G36*
X046553Y029493D02*
X046551Y029504D01*
X046547Y029514D01*
X046539Y029522D01*
X046529Y02953D01*
X046516Y029536D01*
X0465Y029541D01*
X046481Y029545D01*
X046459Y029548D01*
X046434Y029549D01*
X046406Y02955D01*
Y02965D01*
X046434Y029651D01*
X046481Y029655D01*
X0465Y029659D01*
X046516Y029664D01*
X046529Y02967D01*
X046539Y029678D01*
X046547Y029686D01*
X046551Y029696D01*
X046553Y029707D01*
Y029493D01*
D02*
G37*
G36*
X029832Y029611D02*
X029837Y029598D01*
X029846Y029587D01*
X029858Y029577D01*
X029873Y029569D01*
X029892Y029562D01*
X029914Y029557D01*
X02994Y029553D01*
X029969Y029551D01*
X030002Y02955D01*
Y02945D01*
X029969Y029449D01*
X02994Y029447D01*
X029914Y029443D01*
X029892Y029438D01*
X029873Y029431D01*
X029858Y029423D01*
X029846Y029413D01*
X029837Y029402D01*
X029832Y029389D01*
X029831Y029375D01*
Y029625D01*
X029832Y029611D01*
D02*
G37*
G36*
X039272Y029453D02*
X039267Y029441D01*
X039263Y029424D01*
X03926Y029401D01*
X039254Y029341D01*
X03925Y029213D01*
X03925Y02916D01*
X03915D01*
X03915Y029213D01*
X039137Y029424D01*
X039133Y029441D01*
X039128Y029453D01*
X039123Y02946D01*
X039277D01*
X039272Y029453D01*
D02*
G37*
G36*
X038522D02*
X038517Y029441D01*
X038513Y029424D01*
X03851Y029401D01*
X038504Y029341D01*
X0385Y029213D01*
X0385Y02916D01*
X0384D01*
X0384Y029213D01*
X038387Y029424D01*
X038383Y029441D01*
X038378Y029453D01*
X038373Y02946D01*
X038527D01*
X038522Y029453D01*
D02*
G37*
G36*
X049075Y029422D02*
X049069Y029415D01*
X049063Y029403D01*
X049058Y029386D01*
X049054Y029364D01*
X049051Y029338D01*
X049047Y029271D01*
X049045Y029185D01*
X048845D01*
X048845Y029231D01*
X048836Y029364D01*
X048832Y029386D01*
X048827Y029403D01*
X048822Y029415D01*
X048816Y029422D01*
X048809Y029424D01*
X049082D01*
X049075Y029422D01*
D02*
G37*
G36*
X040022Y029453D02*
X040017Y029441D01*
X040013Y029424D01*
X04001Y029401D01*
X040004Y029341D01*
X04Y029213D01*
X04Y02916D01*
X0399D01*
X0399Y029213D01*
X039887Y029424D01*
X039883Y029441D01*
X039878Y029453D01*
X039873Y02946D01*
X040027D01*
X040022Y029453D01*
D02*
G37*
G36*
X032968Y02573D02*
X032981Y025436D01*
X032827Y025443D01*
X032835Y025452D01*
X032842Y025466D01*
X032848Y025484D01*
X032854Y025507D01*
X032858Y025535D01*
X032865Y025606D01*
X032868Y025695D01*
X032868Y025747D01*
X032968Y02573D01*
D02*
G37*
G36*
X053905Y025584D02*
X05398D01*
X053966Y025582D01*
X053953Y025577D01*
X053942Y025569D01*
X053932Y025557D01*
X053924Y025541D01*
X053917Y025523D01*
X053912Y025501D01*
X053912Y0255D01*
X053912Y025499D01*
X053917Y025476D01*
X053924Y025458D01*
X053932Y025442D01*
X053942Y02543D01*
X053953Y025422D01*
X053966Y025417D01*
X05398Y025415D01*
X053905D01*
X053905Y025414D01*
X053805D01*
X053805Y025415D01*
X05373D01*
X053744Y025417D01*
X053757Y025422D01*
X053768Y02543D01*
X053778Y025442D01*
X053786Y025458D01*
X053793Y025476D01*
X053798Y025499D01*
X053798Y0255D01*
X053798Y025501D01*
X053793Y025523D01*
X053786Y025541D01*
X053778Y025557D01*
X053768Y025569D01*
X053757Y025577D01*
X053744Y025582D01*
X05373Y025584D01*
X053805D01*
X053805Y025586D01*
X053905D01*
X053905Y025584D01*
D02*
G37*
G36*
X046461Y025741D02*
X046424Y025703D01*
X046284Y025545D01*
X046275Y02553D01*
X046269Y025518D01*
X046268Y025509D01*
X046159Y025618D01*
X046168Y025619D01*
X04618Y025625D01*
X046195Y025634D01*
X046213Y025647D01*
X046259Y025686D01*
X046353Y025774D01*
X046391Y025811D01*
X046461Y025741D01*
D02*
G37*
G36*
X048397Y025622D02*
X048409Y025617D01*
X048426Y025613D01*
X048449Y02561D01*
X048509Y025604D01*
X048637Y0256D01*
X04869Y0256D01*
Y0255D01*
X048637Y0255D01*
X048426Y025487D01*
X048409Y025483D01*
X048397Y025478D01*
X04839Y025473D01*
Y025627D01*
X048397Y025622D01*
D02*
G37*
G36*
X045114Y025219D02*
X045109Y025221D01*
X045099Y025223D01*
X045083Y025225D01*
X045035Y025228D01*
X044821Y025231D01*
X044803Y025331D01*
X044855Y025332D01*
X045015Y025342D01*
X045043Y025346D01*
X045066Y025352D01*
X045084Y025358D01*
X045098Y025365D01*
X045107Y025373D01*
X045114Y025219D01*
D02*
G37*
G36*
X048872Y025261D02*
X048877Y025248D01*
X048885Y025237D01*
X048897Y025227D01*
X048913Y025219D01*
X048932Y025212D01*
X048954Y025207D01*
X048979Y025203D01*
X049009Y025201D01*
X049041Y0252D01*
Y0251D01*
X049009Y025099D01*
X048979Y025097D01*
X048954Y025093D01*
X048932Y025088D01*
X048913Y025081D01*
X048897Y025073D01*
X048885Y025063D01*
X048877Y025052D01*
X048872Y025039D01*
X04887Y025025D01*
Y025275D01*
X048872Y025261D01*
D02*
G37*
G36*
X053295Y025584D02*
X05337D01*
X053356Y025582D01*
X053343Y025577D01*
X053332Y025569D01*
X053322Y025557D01*
X053314Y025541D01*
X053307Y025523D01*
X053302Y025501D01*
X053301Y0255D01*
X053302Y025499D01*
X053307Y025476D01*
X053314Y025458D01*
X053322Y025442D01*
X053332Y02543D01*
X053343Y025422D01*
X053356Y025417D01*
X05337Y025415D01*
X053295D01*
X053295Y025414D01*
X053195D01*
X053195Y025415D01*
X05312D01*
X053134Y025417D01*
X053147Y025422D01*
X053158Y02543D01*
X053168Y025442D01*
X053176Y025458D01*
X053183Y025476D01*
X053188Y025499D01*
X053188Y0255D01*
X053188Y025501D01*
X053183Y025523D01*
X053176Y025541D01*
X053168Y025557D01*
X053158Y025569D01*
X053147Y025577D01*
X053134Y025582D01*
X05312Y025584D01*
X053195D01*
X053195Y025586D01*
X053295D01*
X053295Y025584D01*
D02*
G37*
G36*
X044293Y025335D02*
X0443Y025334D01*
X044322Y025333D01*
X044467Y025331D01*
Y025231D01*
X04429Y025227D01*
Y025336D01*
X044293Y025335D01*
D02*
G37*
G36*
X032464Y026155D02*
X032451Y026145D01*
X03244Y026128D01*
X03243Y026104D01*
X032422Y026074D01*
X032416Y026036D01*
X032411Y025992D01*
X032405Y025883D01*
X032404Y025819D01*
X032204D01*
X032203Y025883D01*
X032192Y026036D01*
X032186Y026074D01*
X032177Y026104D01*
X032168Y026128D01*
X032157Y026145D01*
X032144Y026155D01*
X03213Y026159D01*
X032478D01*
X032464Y026155D01*
D02*
G37*
G36*
X044293Y025925D02*
X0443Y025925D01*
X044322Y025923D01*
X044467Y025922D01*
Y025822D01*
X04429Y025817D01*
Y025926D01*
X044293Y025925D01*
D02*
G37*
G36*
X048632Y026105D02*
X048637Y026092D01*
X048646Y026081D01*
X048658Y026071D01*
X048673Y026063D01*
X048692Y026056D01*
X048714Y026051D01*
X04874Y026047D01*
X048769Y026045D01*
X048802Y026044D01*
Y025944D01*
X048769Y025944D01*
X04874Y025941D01*
X048714Y025938D01*
X048692Y025932D01*
X048673Y025926D01*
X048658Y025917D01*
X048646Y025907D01*
X048637Y025896D01*
X048632Y025884D01*
X048631Y025869D01*
Y026119D01*
X048632Y026105D01*
D02*
G37*
G36*
X053906Y026054D02*
X053907Y026034D01*
X05398D01*
X053966Y026032D01*
X053953Y026027D01*
X053942Y026019D01*
X053932Y026007D01*
X053924Y025991D01*
X053918Y025975D01*
X053924Y025958D01*
X053932Y025942D01*
X053942Y02593D01*
X053953Y025922D01*
X053966Y025917D01*
X05398Y025915D01*
X053907D01*
X053906Y025896D01*
X053905Y025864D01*
X053805D01*
X053804Y025896D01*
X053803Y025915D01*
X05373D01*
X053744Y025917D01*
X053757Y025922D01*
X053768Y02593D01*
X053778Y025942D01*
X053786Y025958D01*
X053792Y025975D01*
X053786Y025991D01*
X053778Y026007D01*
X053768Y026019D01*
X053757Y026027D01*
X053744Y026032D01*
X05373Y026034D01*
X053803D01*
X053804Y026054D01*
X053805Y026086D01*
X053905D01*
X053906Y026054D01*
D02*
G37*
G36*
X044482Y025638D02*
X044451Y025637D01*
X044318Y025629D01*
X044306Y025627D01*
X044297Y025624D01*
X04429Y02562D01*
Y025729D01*
X04429Y025731D01*
X044294Y025732D01*
X044303Y025734D01*
X044317Y025735D01*
X044417Y025737D01*
X044494Y025738D01*
X044482Y025638D01*
D02*
G37*
G36*
X045672Y025863D02*
X045667Y02585D01*
X045663Y025833D01*
X04566Y025811D01*
X045654Y02575D01*
X04565Y025622D01*
X04565Y025569D01*
X04555D01*
X04555Y025622D01*
X045537Y025833D01*
X045533Y02585D01*
X045528Y025863D01*
X045523Y02587D01*
X045677D01*
X045672Y025863D01*
D02*
G37*
G36*
X05308Y025692D02*
X053079Y025694D01*
X053077Y025695D01*
X053073Y025696D01*
X053067Y025697D01*
X05306Y025698D01*
X053041Y025699D01*
X053Y0257D01*
Y0258D01*
X053015Y0258D01*
X053073Y025804D01*
X053077Y025805D01*
X053079Y025806D01*
X05308Y025808D01*
Y025692D01*
D02*
G37*
G36*
X047955Y025938D02*
X047955Y025885D01*
X047959Y025824D01*
X04803D01*
X048015Y025822D01*
X048003Y025817D01*
X047991Y025809D01*
X047982Y025797D01*
X047973Y025782D01*
X047967Y025763D01*
X047964Y02575D01*
X04797Y025657D01*
X047974Y025645D01*
X047978Y025639D01*
X047824Y025641D01*
X04783Y025648D01*
X047835Y025661D01*
X04784Y025678D01*
X047844Y025701D01*
X047847Y025729D01*
X047848Y025742D01*
X047843Y025763D01*
X047836Y025782D01*
X047828Y025797D01*
X047818Y025809D01*
X047807Y025817D01*
X047794Y025822D01*
X04778Y025824D01*
X047852D01*
X047853Y025842D01*
X047855Y025943D01*
X047955Y025938D01*
D02*
G37*
G36*
X052342Y025157D02*
X052329Y025152D01*
X052318Y025144D01*
X052308Y025132D01*
X0523Y025116D01*
X052293Y025098D01*
X052288Y025076D01*
X052284Y02505D01*
X052282Y025021D01*
X052281Y024989D01*
X052181D01*
X05218Y025021D01*
X052178Y02505D01*
X052174Y025076D01*
X052169Y025098D01*
X052162Y025116D01*
X052154Y025132D01*
X052144Y025144D01*
X052133Y025152D01*
X05212Y025157D01*
X052106Y025159D01*
X052356D01*
X052342Y025157D01*
D02*
G37*
G36*
X052828Y024579D02*
X052835Y024502D01*
X052839Y024484D01*
X052843Y024468D01*
X052849Y024457D01*
X052856Y024448D01*
X052863Y024443D01*
X052872Y024441D01*
X052728D01*
X052728Y024611D01*
X052828D01*
X052828Y024579D01*
D02*
G37*
G36*
X044293Y024547D02*
X0443Y024547D01*
X044322Y024545D01*
X044467Y024544D01*
Y024444D01*
X04429Y024439D01*
Y024548D01*
X044293Y024547D01*
D02*
G37*
G36*
X050899Y024675D02*
X050898Y024672D01*
X050897Y024666D01*
X050896Y024657D01*
X050894Y024632D01*
X050893Y024553D01*
X050813D01*
X050813Y024576D01*
X050807Y024675D01*
X050805Y024677D01*
X050901D01*
X050899Y024675D01*
D02*
G37*
G36*
X046241Y024732D02*
X046232Y024731D01*
X04622Y024725D01*
X046205Y024716D01*
X046187Y024703D01*
X046141Y024664D01*
X046047Y024576D01*
X046009Y024539D01*
X045939Y024609D01*
X045976Y024647D01*
X046116Y024805D01*
X046125Y02482D01*
X046131Y024832D01*
X046132Y024841D01*
X046241Y024732D01*
D02*
G37*
G36*
X036751Y024309D02*
X036753Y02428D01*
X036757Y024254D01*
X036762Y024232D01*
X036769Y024213D01*
X036777Y024197D01*
X036787Y024185D01*
X036798Y024177D01*
X036811Y024172D01*
X036825Y02417D01*
X036575D01*
X036589Y024172D01*
X036602Y024177D01*
X036613Y024185D01*
X036623Y024197D01*
X036631Y024213D01*
X036638Y024232D01*
X036643Y024254D01*
X036647Y02428D01*
X036649Y024309D01*
X03665Y024341D01*
X03675D01*
X036751Y024309D01*
D02*
G37*
G36*
X051101Y024269D02*
X051103Y02424D01*
X051107Y024214D01*
X051112Y024192D01*
X051119Y024173D01*
X051127Y024158D01*
X051137Y024146D01*
X051148Y024137D01*
X051161Y024132D01*
X051175Y024131D01*
X050925D01*
X050939Y024132D01*
X050952Y024137D01*
X050963Y024146D01*
X050973Y024158D01*
X050981Y024173D01*
X050988Y024192D01*
X050993Y024214D01*
X050997Y02424D01*
X050999Y024269D01*
X051Y024302D01*
X0511D01*
X051101Y024269D01*
D02*
G37*
G36*
X052873Y024433D02*
X052878Y024426D01*
X052887Y02442D01*
X052899Y024415D01*
X052914Y02441D01*
X052933Y024407D01*
X052955Y024404D01*
X053009Y0244D01*
X053042Y0244D01*
Y0243D01*
X053009Y0243D01*
X052933Y024293D01*
X052914Y02429D01*
X052899Y024285D01*
X052887Y02428D01*
X052878Y024274D01*
X052873Y024267D01*
X052872Y024259D01*
Y024441D01*
X052873Y024433D01*
D02*
G37*
G36*
X044292Y024351D02*
X044298Y024351D01*
X044462Y02435D01*
X044467Y02425D01*
X04429Y024242D01*
Y024351D01*
X044292Y024351D01*
D02*
G37*
G36*
X053905Y025188D02*
X053905Y025135D01*
X053909Y025084D01*
X05398D01*
X053966Y025082D01*
X053953Y025077D01*
X053942Y025069D01*
X053932Y025057D01*
X053924Y025041D01*
X053917Y025023D01*
X053913Y025007D01*
X05392Y024907D01*
X053924Y024895D01*
X053928Y024889D01*
X053774Y024891D01*
X05378Y024898D01*
X053785Y024911D01*
X05379Y024929D01*
X053794Y024951D01*
X053797Y024979D01*
X053799Y024999D01*
X053798Y025001D01*
X053793Y025023D01*
X053786Y025041D01*
X053778Y025057D01*
X053768Y025069D01*
X053757Y025077D01*
X053744Y025082D01*
X05373Y025084D01*
X053803D01*
X053804Y025092D01*
X053805Y025193D01*
X053905Y025188D01*
D02*
G37*
G36*
X053295Y02514D02*
X053299Y025084D01*
X05337D01*
X053356Y025082D01*
X053343Y025077D01*
X053332Y025069D01*
X053322Y025057D01*
X053314Y025041D01*
X053307Y025023D01*
X053304Y025011D01*
X05331Y024929D01*
X053315Y024911D01*
X05332Y024898D01*
X053326Y024891D01*
X053172Y024889D01*
X053176Y024895D01*
X05318Y024907D01*
X053184Y024924D01*
X053187Y024946D01*
X05319Y024989D01*
X053188Y025001D01*
X053183Y025023D01*
X053176Y025041D01*
X053168Y025057D01*
X053158Y025069D01*
X053147Y025077D01*
X053134Y025082D01*
X05312Y025084D01*
X053193D01*
X053195Y025188D01*
X053295Y025193D01*
X053295Y02514D01*
D02*
G37*
G36*
X048106Y024984D02*
X048094Y024992D01*
X04808Y024996D01*
X048063Y024995D01*
X048044Y02499D01*
X048023Y02498D01*
X047999Y024966D01*
X047972Y024947D01*
X047944Y024924D01*
X047879Y024864D01*
X047809Y024934D01*
X047841Y024968D01*
X047892Y025028D01*
X047911Y025054D01*
X047925Y025078D01*
X047935Y025099D01*
X04794Y025118D01*
X047941Y025135D01*
X047937Y025149D01*
X047929Y025161D01*
X048106Y024984D01*
D02*
G37*
G36*
X05255Y025137D02*
X052563Y024926D01*
X052567Y024909D01*
X052572Y024897D01*
X052577Y02489D01*
X052423D01*
X052428Y024897D01*
X052433Y024909D01*
X052437Y024926D01*
X05244Y024949D01*
X052446Y025009D01*
X05245Y025137D01*
X05245Y02519D01*
X05255D01*
X05255Y025137D01*
D02*
G37*
G36*
X03685Y024887D02*
X036863Y024676D01*
X036867Y024659D01*
X036872Y024647D01*
X036877Y02464D01*
X036723D01*
X036728Y024647D01*
X036733Y024659D01*
X036737Y024676D01*
X03674Y024699D01*
X036746Y024759D01*
X03675Y024887D01*
X03675Y02494D01*
X03685D01*
X03685Y024887D01*
D02*
G37*
G36*
X044293Y024744D02*
X0443Y024743D01*
X044322Y024742D01*
X044467Y024741D01*
Y024641D01*
X04429Y024636D01*
Y024745D01*
X044293Y024744D01*
D02*
G37*
G36*
X048816Y024982D02*
X048803Y024977D01*
X048792Y024969D01*
X048782Y024957D01*
X048774Y024941D01*
X048767Y024923D01*
X048762Y024901D01*
X048758Y024875D01*
X048756Y024846D01*
X048755Y024814D01*
X048655D01*
X048654Y024846D01*
X048652Y024875D01*
X048648Y024901D01*
X048643Y024923D01*
X048636Y024941D01*
X048628Y024957D01*
X048618Y024969D01*
X048607Y024977D01*
X048594Y024982D01*
X04858Y024984D01*
X04883D01*
X048816Y024982D01*
D02*
G37*
G36*
X046347Y024922D02*
X046359Y024917D01*
X046376Y024913D01*
X046399Y02491D01*
X046459Y024904D01*
X046587Y0249D01*
X04664Y0249D01*
Y0248D01*
X046587Y0248D01*
X046376Y024787D01*
X046359Y024783D01*
X046347Y024778D01*
X04634Y024773D01*
Y024927D01*
X046347Y024922D01*
D02*
G37*
G36*
X041042Y026108D02*
X041009Y026074D01*
X040884Y025933D01*
X040875Y025919D01*
X04087Y025908D01*
X040868Y0259D01*
X04075Y026018D01*
X040758Y02602D01*
X040769Y026025D01*
X040783Y026034D01*
X040799Y026046D01*
X040841Y026081D01*
X040924Y026159D01*
X040958Y026192D01*
X041042Y026108D01*
D02*
G37*
G36*
X041447Y026752D02*
X041447Y026745D01*
X041445Y026723D01*
X041444Y026578D01*
X041344D01*
X041339Y026755D01*
X041448D01*
X041447Y026752D01*
D02*
G37*
G36*
X04447Y026791D02*
X044474Y026778D01*
X044481Y026763D01*
X044492Y026747D01*
X044505Y026728D01*
X044539Y026686D01*
X044586Y026636D01*
X044613Y026608D01*
X044542Y026537D01*
X044514Y026564D01*
X044422Y026645D01*
X044403Y026658D01*
X044387Y026669D01*
X044372Y026676D01*
X044359Y02668D01*
X044348Y026682D01*
X044468Y026802D01*
X04447Y026791D01*
D02*
G37*
G36*
X041841Y026752D02*
X04184Y026745D01*
X041839Y026723D01*
X041837Y026578D01*
X041737D01*
X041733Y026755D01*
X041842D01*
X041841Y026752D01*
D02*
G37*
G36*
X041644D02*
X041643Y026745D01*
X041642Y026723D01*
X041641Y026578D01*
X041541D01*
X041536Y026755D01*
X041645D01*
X041644Y026752D01*
D02*
G37*
G36*
X051886Y026696D02*
X051891Y026683D01*
X051899Y026672D01*
X051911Y026662D01*
X051927Y026654D01*
X051946Y026647D01*
X051968Y026642D01*
X051994Y026638D01*
X052023Y026636D01*
X052055Y026635D01*
Y026535D01*
X052023Y026534D01*
X051994Y026532D01*
X051968Y026528D01*
X051946Y026523D01*
X051927Y026516D01*
X051911Y026508D01*
X051899Y026498D01*
X051891Y026487D01*
X051886Y026474D01*
X051884Y02646D01*
Y02671D01*
X051886Y026696D01*
D02*
G37*
G36*
X045711Y026627D02*
X045698Y026622D01*
X045687Y026614D01*
X045677Y026602D01*
X045669Y026586D01*
X045662Y026568D01*
X045657Y026546D01*
X045653Y02652D01*
X045651Y026491D01*
X04565Y026459D01*
X04555D01*
X045549Y026491D01*
X045547Y02652D01*
X045543Y026546D01*
X045538Y026568D01*
X045531Y026586D01*
X045523Y026602D01*
X045513Y026614D01*
X045502Y026622D01*
X045489Y026627D01*
X045475Y026629D01*
X045725D01*
X045711Y026627D01*
D02*
G37*
G36*
X033093Y026772D02*
X033098Y026759D01*
X033106Y026748D01*
X033118Y026738D01*
X033134Y02673D01*
X033153Y026723D01*
X033175Y026718D01*
X033201Y026714D01*
X03323Y026712D01*
X033262Y026711D01*
Y026611D01*
X03323Y026611D01*
X033201Y026608D01*
X033175Y026605D01*
X033153Y026599D01*
X033134Y026593D01*
X033118Y026584D01*
X033106Y026575D01*
X033098Y026563D01*
X033093Y026551D01*
X033091Y026536D01*
Y026786D01*
X033093Y026772D01*
D02*
G37*
G36*
X050779Y026729D02*
X050789Y026721D01*
X050794Y026718D01*
X050797Y026716D01*
X0508Y026715D01*
X050802Y026715D01*
X050804Y026716D01*
X050805Y026718D01*
X050805Y026721D01*
X050806Y026534D01*
X050805Y02654D01*
X050802Y026548D01*
X050797Y026557D01*
X05079Y026568D01*
X05078Y02658D01*
X050755Y026609D01*
X050702Y026665D01*
X050773Y026735D01*
X050779Y026729D01*
D02*
G37*
G36*
X052806Y026984D02*
X052794Y026992D01*
X05278Y026996D01*
X052763Y026995D01*
X052744Y02699D01*
X052723Y02698D01*
X052699Y026966D01*
X052672Y026947D01*
X052644Y026924D01*
X052641Y026921D01*
X052529Y026795D01*
X05252Y02678D01*
X052514Y026768D01*
X052513Y026759D01*
X052404Y026868D01*
X052413Y026869D01*
X052424Y026875D01*
X05244Y026884D01*
X052458Y026897D01*
X052504Y026936D01*
X052553Y026982D01*
X052592Y027028D01*
X052611Y027054D01*
X052625Y027078D01*
X052635Y027099D01*
X05264Y027118D01*
X052641Y027135D01*
X052637Y027149D01*
X052629Y027161D01*
X052806Y026984D01*
D02*
G37*
G36*
X051127Y02721D02*
X051122Y027203D01*
X051117Y027191D01*
X051113Y027174D01*
X05111Y027151D01*
X051104Y027091D01*
X0511Y026962D01*
X0511Y026909D01*
X051Y02691D01*
X051Y026963D01*
X050987Y027174D01*
X050983Y027191D01*
X050978Y027203D01*
X050973Y02721D01*
X051127Y02721D01*
D02*
G37*
G36*
X043422Y027183D02*
X043427Y02717D01*
X043435Y027159D01*
X043447Y027149D01*
X043463Y027141D01*
X043482Y027134D01*
X043504Y027129D01*
X04353Y027125D01*
X043533Y027125D01*
X043661Y027135D01*
X043689Y02714D01*
X043713Y027146D01*
X043732Y027153D01*
X043746Y027162D01*
X043756Y027171D01*
X043766Y027017D01*
X043762Y027018D01*
X043753Y027019D01*
X043717Y02702D01*
X04356Y027022D01*
X043559Y027022D01*
X04353Y027019D01*
X043504Y027016D01*
X043482Y02701D01*
X043463Y027004D01*
X043447Y026995D01*
X043435Y026986D01*
X043427Y026974D01*
X043422Y026962D01*
X04342Y026947D01*
Y027197D01*
X043422Y027183D01*
D02*
G37*
G36*
X051525Y027309D02*
X051519Y027301D01*
X051514Y027289D01*
X051509Y027271D01*
X051505Y027248D01*
X051502Y02722D01*
X051496Y02715D01*
X051494Y027007D01*
X051394Y027013D01*
X051393Y027066D01*
X05138Y027293D01*
X051376Y027305D01*
X051372Y027312D01*
X051525Y027309D01*
D02*
G37*
G36*
X0512Y026637D02*
X051218Y026635D01*
X051247Y026635D01*
Y026535D01*
X051218Y026534D01*
X0512Y026532D01*
Y026475D01*
X051198Y026487D01*
X051194Y026497D01*
X051186Y026506D01*
X051176Y026513D01*
X051162Y02652D01*
X051148Y026525D01*
X051134Y02652D01*
X051121Y026513D01*
X05111Y026506D01*
X051103Y026497D01*
X051098Y026487D01*
X051097Y026475D01*
Y026533D01*
X051078Y026534D01*
X05105Y026535D01*
Y026635D01*
X051078Y026635D01*
X051097Y026637D01*
Y026694D01*
X051098Y026683D01*
X051103Y026673D01*
X05111Y026664D01*
X051121Y026656D01*
X051134Y02665D01*
X051148Y026645D01*
X051162Y02665D01*
X051176Y026656D01*
X051186Y026664D01*
X051194Y026673D01*
X051198Y026683D01*
X0512Y026694D01*
Y026637D01*
D02*
G37*
G36*
X042432Y026752D02*
X042431Y026745D01*
X04243Y026723D01*
X042428Y026578D01*
X042328D01*
X042323Y026755D01*
X042432D01*
X042432Y026752D01*
D02*
G37*
G36*
X037211Y026729D02*
X037199Y026737D01*
X037185Y026741D01*
X037168Y02674D01*
X037149Y026735D01*
X037128Y026725D01*
X037104Y026711D01*
X037078Y026692D01*
X037049Y026669D01*
X036984Y026609D01*
X036914Y026679D01*
X036946Y026713D01*
X036997Y026772D01*
X037016Y026799D01*
X03703Y026823D01*
X03704Y026844D01*
X037045Y026863D01*
X037046Y02688D01*
X037042Y026894D01*
X037034Y026906D01*
X037211Y026729D01*
D02*
G37*
G36*
X051791Y026637D02*
X051809Y026635D01*
X051837Y026635D01*
Y026535D01*
X051809Y026534D01*
X051791Y026532D01*
Y026475D01*
X051789Y026487D01*
X051785Y026497D01*
X051777Y026506D01*
X051767Y026513D01*
X051753Y02652D01*
X051739Y026525D01*
X051725Y02652D01*
X051711Y026513D01*
X051701Y026506D01*
X051693Y026497D01*
X051689Y026487D01*
X051687Y026475D01*
Y026533D01*
X051669Y026534D01*
X05164Y026535D01*
Y026635D01*
X051669Y026635D01*
X051687Y026637D01*
Y026694D01*
X051689Y026683D01*
X051693Y026673D01*
X051701Y026664D01*
X051711Y026656D01*
X051725Y02665D01*
X051739Y026645D01*
X051753Y02665D01*
X051767Y026656D01*
X051777Y026664D01*
X051785Y026673D01*
X051789Y026683D01*
X051791Y026694D01*
Y026637D01*
D02*
G37*
G36*
X041257Y026251D02*
X041266Y026126D01*
X041272Y026094D01*
X041278Y026066D01*
X041286Y026042D01*
X041294Y026023D01*
X041304Y026008D01*
X041316Y025998D01*
X04116Y025977D01*
X041137Y026289D01*
X041257Y026301D01*
X041257Y026251D01*
D02*
G37*
G36*
X042702Y026018D02*
X042583Y025919D01*
X042583Y025931D01*
X042579Y025946D01*
X042571Y025964D01*
X042558Y025984D01*
X042542Y026007D01*
X042497Y026062D01*
X042437Y026128D01*
X0424Y026165D01*
X042518Y026217D01*
X042702Y026018D01*
D02*
G37*
G36*
X025929Y026161D02*
X025917Y026156D01*
X025905Y026147D01*
X025896Y026136D01*
X025887Y02612D01*
X02588Y026102D01*
X025875Y026079D01*
X025872Y026054D01*
X025869Y026025D01*
X025868Y025993D01*
X025768D01*
X025768Y026025D01*
X025766Y026054D01*
X025762Y026079D01*
X025756Y026102D01*
X02575Y02612D01*
X025742Y026136D01*
X025732Y026147D01*
X025721Y026156D01*
X025708Y026161D01*
X025694Y026163D01*
X025944D01*
X025929Y026161D01*
D02*
G37*
G36*
X026509Y026157D02*
X026496Y026152D01*
X026485Y026143D01*
X026475Y026132D01*
X026467Y026116D01*
X02646Y026098D01*
X026455Y026075D01*
X026451Y02605D01*
X026449Y026021D01*
X026448Y025989D01*
X026348D01*
X026348Y026021D01*
X026345Y02605D01*
X026342Y026075D01*
X026336Y026098D01*
X02633Y026116D01*
X026321Y026132D01*
X026312Y026143D01*
X0263Y026152D01*
X026288Y026157D01*
X026273Y026159D01*
X026523D01*
X026509Y026157D01*
D02*
G37*
G36*
X041652Y026018D02*
X041533Y025919D01*
X041534Y025933D01*
X04153Y02595D01*
X041522Y025969D01*
X04151Y025991D01*
X041495Y026015D01*
X041475Y026041D01*
X041425Y026101D01*
X041358Y026171D01*
X041452Y026219D01*
X041652Y026018D01*
D02*
G37*
G36*
X040615Y02613D02*
X040577Y026092D01*
X040419Y025915D01*
X040418Y025909D01*
X040309Y026018D01*
X040315Y026019D01*
X040325Y026025D01*
X040338Y026035D01*
X040355Y026048D01*
X040427Y026114D01*
X04053Y026215D01*
X040615Y02613D01*
D02*
G37*
G36*
X042352Y026018D02*
X042233Y025919D01*
X042234Y025933D01*
X04223Y02595D01*
X042222Y02597D01*
X04221Y025991D01*
X042194Y026016D01*
X042175Y026042D01*
X042123Y026103D01*
X042056Y026173D01*
X042152Y026219D01*
X042352Y026018D01*
D02*
G37*
G36*
X042002D02*
X041883Y025919D01*
X041884Y025933D01*
X04188Y02595D01*
X041872Y02597D01*
X04186Y025991D01*
X041844Y026016D01*
X041825Y026042D01*
X041773Y026103D01*
X041706Y026173D01*
X041802Y026219D01*
X042002Y026018D01*
D02*
G37*
G36*
X044293Y026319D02*
X044299Y026318D01*
X044322Y026317D01*
X044465Y026315D01*
Y026215D01*
X04429Y026211D01*
Y02632D01*
X044293Y026319D01*
D02*
G37*
G36*
X050391Y026331D02*
X050444Y026286D01*
X050469Y026269D01*
X050492Y026255D01*
X050514Y026245D01*
X050535Y026238D01*
X050554Y026234D01*
X050572Y026234D01*
X050588Y026238D01*
X050324Y026151D01*
X050337Y026158D01*
X050345Y026167D01*
X050348Y02618D01*
X050345Y026197D01*
X050338Y026216D01*
X050325Y026238D01*
X050306Y026264D01*
X050283Y026293D01*
X05022Y026359D01*
X050362D01*
X050391Y026331D01*
D02*
G37*
G36*
X047697Y026472D02*
X047709Y026467D01*
X047726Y026463D01*
X047749Y02646D01*
X047809Y026454D01*
X047937Y02645D01*
X04799Y02645D01*
Y02635D01*
X047937Y02635D01*
X047726Y026337D01*
X047709Y026333D01*
X047697Y026328D01*
X04769Y026323D01*
Y026477D01*
X047697Y026472D01*
D02*
G37*
G36*
X03389Y026457D02*
X033892Y026428D01*
X033896Y026402D01*
X033901Y02638D01*
X033908Y026361D01*
X033916Y026346D01*
X033926Y026334D01*
X033937Y026325D01*
X03395Y02632D01*
X033964Y026318D01*
X033714D01*
X033729Y02632D01*
X033741Y026325D01*
X033753Y026334D01*
X033762Y026346D01*
X033771Y026361D01*
X033777Y02638D01*
X033783Y026402D01*
X033786Y026428D01*
X033789Y026457D01*
X033789Y026489D01*
X033889D01*
X03389Y026457D01*
D02*
G37*
G36*
X05308Y026066D02*
X053078Y02608D01*
X053073Y026093D01*
X053065Y026104D01*
X053053Y026114D01*
X053037Y026122D01*
X053018Y026129D01*
X052996Y026134D01*
X05297Y026138D01*
X052941Y02614D01*
X052909Y026141D01*
Y026241D01*
X052941Y026242D01*
X05297Y026244D01*
X052996Y026248D01*
X053018Y026253D01*
X053037Y02626D01*
X053053Y026268D01*
X053065Y026278D01*
X053073Y026289D01*
X053078Y026302D01*
X05308Y026316D01*
Y026066D01*
D02*
G37*
G36*
X033029Y026161D02*
X033017Y026156D01*
X033005Y026147D01*
X032996Y026136D01*
X032987Y02612D01*
X03298Y026102D01*
X032975Y026079D01*
X032971Y026054D01*
X032969Y026025D01*
X032968Y025993D01*
X032868D01*
X032868Y026025D01*
X032866Y026054D01*
X032862Y026079D01*
X032857Y026102D01*
X03285Y02612D01*
X032841Y026136D01*
X032832Y026147D01*
X03282Y026156D01*
X032808Y026161D01*
X032794Y026163D01*
X033043D01*
X033029Y026161D01*
D02*
G37*
G36*
X044293Y026122D02*
X0443Y026121D01*
X044322Y02612D01*
X044467Y026119D01*
Y026019D01*
X04429Y026014D01*
Y026123D01*
X044293Y026122D01*
D02*
G37*
G36*
X04565Y026297D02*
X045663Y026086D01*
X045667Y026068D01*
X045672Y026056D01*
X045677Y026049D01*
X045523D01*
X045528Y026056D01*
X045533Y026068D01*
X045537Y026086D01*
X04554Y026108D01*
X045546Y026168D01*
X04555Y026297D01*
X04555Y02635D01*
X04565D01*
X04565Y026297D01*
D02*
G37*
%LPC*%
G36*
X042394Y019963D02*
X042397Y019962D01*
X042412Y019957D01*
X042394Y019963D01*
D02*
G37*
%LPD*%
D10*
X052795Y0277D02*
D03*
X053405D02*
D03*
X053995Y02745D02*
D03*
X054605D02*
D03*
X053405Y02715D02*
D03*
X052795D02*
D03*
X052305Y0282D02*
D03*
X051695D02*
D03*
X048705Y02515D02*
D03*
X048095D02*
D03*
X053855Y02525D02*
D03*
X053245D02*
D03*
X053855Y0262D02*
D03*
X053245D02*
D03*
Y02575D02*
D03*
X053855D02*
D03*
X053955Y01465D02*
D03*
X053345D02*
D03*
X051095D02*
D03*
X051705D02*
D03*
X052805Y02335D02*
D03*
X052195D02*
D03*
X042445Y0185D02*
D03*
X043055D02*
D03*
D14*
X0523Y0277D02*
D03*
X052024D02*
D03*
D15*
X0493Y02515D02*
X049751Y025601D01*
X048495Y026D02*
X048501Y025994D01*
X050459D01*
X04935Y025797D02*
X050459D01*
X0483Y02555D02*
X049103D01*
X04935Y025797D01*
X05025Y0264D02*
X050459Y026191D01*
X0476Y0264D02*
X05025D01*
X050738Y0267D02*
X050853Y026585D01*
X04735Y0267D02*
X050738D01*
X04615Y0255D02*
X04735Y0267D01*
X0479Y02555D02*
X047905Y025555D01*
Y026D01*
X04305Y02245D02*
X0434D01*
X04235Y02315D02*
X04305Y02245D01*
X0441Y0209D02*
X0446Y0214D01*
Y02185D01*
X044775Y021125D02*
Y021922D01*
X04495Y02045D02*
Y021995D01*
X045125Y020378D02*
Y022067D01*
X0453Y020305D02*
Y02214D01*
X045475Y020233D02*
Y023045D01*
X04565Y0197D02*
Y023117D01*
X044579Y022119D02*
X044775Y021922D01*
X044629Y022316D02*
X04495Y021995D01*
X04468Y022512D02*
X045125Y022067D01*
X044731Y022709D02*
X0453Y02214D01*
X044433Y024087D02*
X045475Y023045D01*
X044467Y0243D02*
X04565Y023117D01*
X044515Y021935D02*
X0446Y02185D01*
X043475Y022525D02*
X043972D01*
X043985Y022512D01*
X04468D01*
X04455Y0209D02*
X044775Y021125D01*
X043526Y022328D02*
X043972D01*
X043472Y022275D02*
X043526Y022328D01*
X043225Y022275D02*
X043472D01*
X0374Y03D02*
X0414D01*
X04185Y02785D02*
Y02955D01*
X0414Y03D02*
X04185Y02955D01*
X0272Y02855D02*
X02815Y0295D01*
X029105D01*
X0272Y02855D02*
Y0295D01*
X053295Y030745D02*
X0537D01*
X0532Y03065D02*
X053295Y030745D01*
X054345D02*
X05475D01*
X05425Y03065D02*
X054345Y030745D01*
X055345D02*
X05575D01*
X05525Y03065D02*
X055345Y030745D01*
X0537Y030155D02*
X05475D01*
X05575D01*
X0477Y0304D02*
X048355D01*
X0477Y0304D02*
X0477Y0304D01*
Y0296D02*
X048355D01*
X0477Y0296D02*
X0477Y0296D01*
X03845Y0284D02*
Y02955D01*
X0392Y0284D02*
Y02955D01*
X04145Y0284D02*
Y0295D01*
X04295Y0284D02*
Y0295D01*
X0422Y0284D02*
Y0295D01*
X0407Y0284D02*
Y0295D01*
X03995Y0284D02*
Y02955D01*
X053405Y027425D02*
X05397D01*
X053995Y02745D01*
X053405Y02715D02*
Y027425D01*
Y0277D01*
X052231Y026191D02*
X053236D01*
X053245Y0262D01*
X052231Y025994D02*
X052756D01*
X053Y02575D01*
X053245D01*
Y02525D02*
Y02575D01*
X052231Y025797D02*
X052653D01*
X052953Y025497D01*
X052231Y025601D02*
X052602D01*
X052778Y025425D01*
Y024372D02*
X0528Y02435D01*
X052024Y027526D02*
Y0277D01*
Y027526D02*
X05205Y0275D01*
X0523Y0277D02*
X052795D01*
X052305Y0282D02*
X052795Y02771D01*
X051444Y026585D02*
Y027394D01*
X05145Y0274D01*
X052795Y028045D02*
X0528Y02805D01*
X052795Y0277D02*
Y02771D01*
Y028045D01*
X053405Y0277D02*
Y027755D01*
X0537Y02805D01*
X043972Y025675D02*
X043985Y025688D01*
X044735D01*
X031Y01645D02*
Y017648D01*
Y01645D02*
X031Y01645D01*
X0242Y03025D02*
X02505D01*
X0528Y014655D02*
X05334D01*
X053345Y01465D01*
X046628Y017155D02*
X046791Y016993D01*
X04588Y01687D02*
Y017155D01*
Y01687D02*
X0461Y01665D01*
X046791D01*
Y016993D01*
X037011Y023706D02*
X038028D01*
X0367Y023395D02*
X037011Y023706D01*
X036802Y023903D02*
X038028D01*
X0367Y024005D02*
X036802Y023903D01*
X042378Y020372D02*
X0424Y02035D01*
X042575Y020575D02*
X043Y02015D01*
X041394Y021128D02*
Y022094D01*
X043362Y027072D02*
X043822D01*
X04385Y0271D01*
X043447Y023903D02*
X043972D01*
X04315Y0242D02*
X043447Y023903D01*
X043972Y022132D02*
X043985Y022119D01*
X043972Y022328D02*
X043985Y022316D01*
X043972Y022722D02*
X043985Y022709D01*
X044731D01*
X043281Y022919D02*
X043972D01*
X05263Y0183D02*
X05625D01*
X052625Y018305D02*
X05263Y0183D01*
X051125Y017175D02*
X05115Y0172D01*
X051875Y016435D02*
X052125D01*
X05185Y01535D02*
X051875Y015375D01*
Y016435D01*
X051375Y015675D02*
Y016435D01*
X05135Y01565D02*
X051375Y015675D01*
X051625Y015525D02*
Y016435D01*
X0514Y0153D02*
X051625Y015525D01*
X029695Y0295D02*
X03085D01*
X051Y023995D02*
X05105Y024045D01*
X05099Y024005D02*
X051Y023995D01*
X049751Y025601D02*
X050459D01*
X048705Y02515D02*
X0493D01*
X053245Y024805D02*
Y02525D01*
X053855D02*
Y02575D01*
Y0262D01*
X051837Y026585D02*
X05223D01*
X05105D02*
Y0273D01*
X05105Y0273D01*
X05164Y026585D02*
X051837D01*
Y022987D02*
Y024813D01*
X04995Y021525D02*
Y022355D01*
X05485Y016355D02*
X055495D01*
X0555Y01635D01*
X0402Y017652D02*
X04025Y017702D01*
X0392Y0164D02*
Y017652D01*
X041394Y022094D02*
X0414Y0221D01*
X032919Y025368D02*
Y026661D01*
X0329Y02535D02*
X032919Y025368D01*
Y026661D02*
X033689D01*
X033839Y026511D01*
Y026146D02*
Y026511D01*
X050075Y021525D02*
X0509Y0207D01*
X04995Y021525D02*
X050075D01*
X05105Y024045D02*
Y024813D01*
X0498Y024005D02*
X05099D01*
X050875Y020675D02*
X0509Y0207D01*
X050875Y018305D02*
Y020675D01*
X050375Y016435D02*
Y017175D01*
X0504Y0172D01*
X049234Y015616D02*
X04955Y0153D01*
X0514D01*
X047353Y0135D02*
X051645D01*
X046003Y01485D02*
X047353Y0135D01*
X046003Y01485D02*
Y015616D01*
X051645Y0135D02*
X0528Y014655D01*
X046397Y014704D02*
Y015616D01*
Y014704D02*
X047426Y013675D01*
X05073D01*
X051705Y01465D01*
X052245D01*
X05225Y014655D01*
X046628Y0181D02*
X04715D01*
X052231Y024169D02*
Y025207D01*
Y024169D02*
X0525Y0239D01*
X05095Y0221D02*
X051837Y022987D01*
X03845Y0284D02*
X0385D01*
X039622Y027072D02*
Y027978D01*
X0392Y0284D02*
X039622Y027978D01*
X043422Y022722D02*
X043972D01*
X04335Y02265D02*
X043422Y022722D01*
X042772Y027072D02*
Y027878D01*
X0426Y02805D02*
X042772Y027878D01*
X0426Y02805D02*
Y02855D01*
X0254Y0232D02*
X026398Y024198D01*
Y026657D01*
X043972Y0241D02*
X043985Y024087D01*
X032Y0184D02*
X032Y0184D01*
Y017648D02*
X032Y017648D01*
X025819Y023866D02*
Y026661D01*
X032Y017648D02*
Y01785D01*
Y0184D02*
X032Y0184D01*
Y017648D02*
Y0184D01*
X043972Y024297D02*
X043976Y0243D01*
X043972Y021935D02*
X044515D01*
X043985Y022119D02*
X044579D01*
X043985Y022316D02*
X044629D01*
X04565Y0197D02*
X0457Y01965D01*
X041591Y026359D02*
Y027072D01*
X041394Y026206D02*
X04165Y02595D01*
X041394Y026206D02*
Y027072D01*
X041591Y026359D02*
X042Y02595D01*
X04435Y0268D02*
X044578Y026572D01*
X04235Y0259D02*
Y02595D01*
X03545Y0276D02*
X03585Y0272D01*
X0321Y0276D02*
X03545D01*
X031724Y027224D02*
X0321Y0276D01*
X031724Y026661D02*
Y027224D01*
X043972Y026265D02*
X044465D01*
X044578Y026378D01*
Y026572D01*
X043972Y026068D02*
X044621D01*
X044753Y0262D01*
Y026897D01*
X04275Y023D02*
X0431Y02265D01*
X04335D01*
X0434Y02245D02*
X043475Y022525D01*
X0431Y02215D02*
X043225Y022275D01*
X052778Y024372D02*
Y025425D01*
X052231Y025404D02*
X052398D01*
X0525Y025302D01*
Y0248D02*
Y025302D01*
X053855Y024805D02*
Y02525D01*
X033Y0161D02*
Y017648D01*
X051125Y018305D02*
Y019125D01*
X05115Y01915D01*
X046791Y015616D02*
X049234D01*
X046791D02*
Y01665D01*
X032Y019104D02*
X032004Y0191D01*
X03255D01*
X044966Y015616D02*
X045609D01*
X04235Y02315D02*
Y0242D01*
X04275Y023D02*
Y0242D01*
X04165Y0259D02*
Y02595D01*
X042Y0259D02*
Y02595D01*
X045894Y024494D02*
X04625Y02485D01*
X042943Y025957D02*
Y026001D01*
X041787Y026513D02*
Y027072D01*
X042378Y026566D02*
X042943Y026001D01*
X041787Y026513D02*
X04235Y02595D01*
X042378Y026566D02*
Y027072D01*
X042181D02*
Y027519D01*
X04185Y02785D02*
X042181Y027519D01*
X03735Y02995D02*
X0374Y03D01*
X051125Y016435D02*
Y017175D01*
X046628Y017155D02*
Y017278D01*
X04705Y0177D01*
X04735D01*
X04805Y0184D01*
X0392Y0164D02*
X0392Y0164D01*
X04805Y019745D02*
X0488Y020495D01*
X04805Y0184D02*
Y019745D01*
X04325Y02295D02*
X043281Y022919D01*
X031Y019104D02*
X031096Y0192D01*
X03155D01*
X046254Y017155D02*
Y017646D01*
X04625Y01765D02*
X046254Y017646D01*
X051695Y0282D02*
Y028445D01*
X05245Y0292D01*
X053Y02975D01*
X04945Y023745D02*
X0498Y023395D01*
X0506Y01465D02*
X051095D01*
X05485Y015545D02*
Y015745D01*
X04255Y0221D02*
X042575Y022075D01*
Y021128D02*
Y022075D01*
X041984Y020266D02*
X04246Y01979D01*
X042575Y020575D02*
Y021128D01*
X042378Y020372D02*
Y021128D01*
X041984Y020266D02*
Y021128D01*
X042181D02*
Y021781D01*
X0423Y0219D01*
X032934Y0215D02*
X0337D01*
X033839Y021639D01*
Y022012D01*
X032934Y0215D02*
Y022516D01*
X03285Y0226D02*
X032934Y022516D01*
X0456Y027405D02*
X046295D01*
X04645Y02725D01*
X043165Y027072D02*
Y027615D01*
X04335Y0278D01*
X0436D01*
X04625Y02485D02*
X047795D01*
X048095Y02515D01*
X0367Y024005D02*
Y02445D01*
X0368Y02455D01*
X053955Y01465D02*
X054453Y015147D01*
X05485Y015545D01*
X05105Y026585D02*
X051247D01*
X05223D02*
X052395Y02675D01*
X052795Y02715D01*
X043972Y025872D02*
X044672D01*
X043972Y024494D02*
X045894D01*
X0456Y025959D02*
Y026795D01*
X043972Y024691D02*
X045241D01*
X0456Y02505D01*
X0456Y02505D02*
X0456Y02505D01*
X0456Y02505D02*
Y025959D01*
X043972Y025281D02*
X045181D01*
X0452Y0253D01*
X04294Y0164D02*
X0451Y01856D01*
X043Y02015D02*
X043491D01*
X0433Y01979D02*
X043622Y019468D01*
X043491Y02015D02*
X0438Y019841D01*
X04415Y01875D02*
Y018995D01*
X04405Y01865D02*
X04415Y01875D01*
X044025Y01973D02*
X04415Y019605D01*
X044025Y01973D02*
Y019989D01*
X04246Y01979D02*
Y01986D01*
X0427Y0201D01*
X05385Y0248D02*
X053855Y024805D01*
X053245Y024805D02*
X05325Y0248D01*
X052953Y024754D02*
X053149Y024557D01*
X052953Y024754D02*
Y025497D01*
X053149Y024557D02*
X053543D01*
X0528Y02435D02*
X053205D01*
X0534Y024155D01*
X052805Y02335D02*
X053205D01*
X0534Y023545D01*
X052805Y022905D02*
Y02335D01*
X0524Y0225D02*
X052805Y022905D01*
X052195Y023595D02*
X0525Y0239D01*
X052195Y02335D02*
Y023595D01*
X040698Y017652D02*
X0412D01*
Y0189D02*
Y019109D01*
X04291Y018645D02*
X043055Y0185D01*
X04291Y018645D02*
Y018986D01*
X042995Y01795D02*
X043005D01*
X043622Y018555D02*
Y019468D01*
X043017Y01795D02*
X043622Y018555D01*
X043005Y01795D02*
X043017D01*
X0412Y0189D02*
X04154Y01856D01*
X043242Y017445D02*
X0445Y018703D01*
X043315Y01727D02*
X044675Y01863D01*
X043387Y017095D02*
X04485Y018558D01*
X0254Y02107D02*
Y0232D01*
X043985Y024087D02*
X044433D01*
X043976Y0243D02*
X044467D01*
X0398Y01705D02*
X04015Y0167D01*
X0398Y01705D02*
Y018709D01*
X0402Y019109D01*
X050395Y01986D02*
X0504Y019855D01*
X04933Y01986D02*
X050395D01*
X043167Y01762D02*
X0438Y018253D01*
Y019841D01*
X04174Y018133D02*
X042253Y01762D01*
X04174Y018133D02*
Y01961D01*
X042253Y01762D02*
X043167D01*
X042181Y017445D02*
X043242D01*
X04154Y018086D02*
Y01856D01*
Y018086D02*
X042181Y017445D01*
X04015Y0167D02*
X04188D01*
X042275Y017095D01*
X043387D01*
X04212Y01727D02*
X043315D01*
X0418Y01695D02*
X04212Y01727D01*
X044735Y025688D02*
X045175Y026128D01*
X044672Y025872D02*
X045Y0262D01*
X0447Y02695D02*
X044753Y026897D01*
X039425Y027072D02*
Y027725D01*
X03919Y02796D02*
X039425Y027725D01*
X037655Y02796D02*
X03919D01*
X0372Y027505D02*
X037655Y02796D01*
X0364Y026705D02*
X0372Y027505D01*
X0364Y023605D02*
Y026705D01*
X036655Y02335D02*
X0367Y023395D01*
X0368Y026495D02*
X0372Y026895D01*
X0368Y02455D02*
Y026495D01*
X0463Y0304D02*
X0468D01*
X04625Y03035D02*
X0463Y0304D01*
X044675Y019928D02*
X045125Y020378D01*
X04485Y019855D02*
X0453Y020305D01*
X0445Y018703D02*
Y02D01*
X044675Y01863D02*
Y019928D01*
X04485Y018558D02*
Y019855D01*
X0451Y01856D02*
Y01925D01*
X0404Y0164D02*
X04294D01*
X0414Y0221D02*
X04155D01*
X041Y021128D02*
Y0221D01*
X03085Y0295D02*
X03085Y0295D01*
X0369D01*
X03692Y02948D01*
X05575Y030155D02*
X056625D01*
X05663Y03015D01*
X045175Y028025D02*
X04625Y0291D01*
X045175Y026128D02*
Y028025D01*
X045Y028194D02*
X046406Y0296D01*
X0468D01*
X045Y0262D02*
Y028194D01*
X0445Y02D02*
X04495Y02045D01*
X04535Y0196D02*
Y020108D01*
X045475Y020233D01*
X05375Y02325D02*
Y02435D01*
X053543Y024557D02*
X05375Y02435D01*
X0252Y021023D02*
Y023247D01*
X025819Y023866D01*
X0317Y0183D02*
X0318Y0184D01*
X027923Y0183D02*
X0317D01*
X0318Y0184D02*
X032D01*
X0252Y021023D02*
X027923Y0183D01*
X027995Y018475D02*
X031371D01*
X032Y019104D01*
X0254Y02107D02*
X027995Y018475D01*
X033Y019104D02*
X0335Y018604D01*
X051375Y016435D02*
X051393Y016453D01*
Y017168D02*
X051625Y0174D01*
X051393Y016453D02*
Y017168D01*
X051625Y0174D02*
Y018305D01*
X0392Y019109D02*
Y01975D01*
X0402Y0171D02*
Y017652D01*
Y0171D02*
X04035Y01695D01*
X0418D01*
X033Y0161D02*
X03395Y01515D01*
X0335Y01605D02*
Y018604D01*
Y01605D02*
X0344Y01515D01*
X0413Y02005D02*
X04174Y01961D01*
X0392Y01975D02*
X0395Y02005D01*
X0413D01*
X040698Y017652D02*
Y019648D01*
X0408Y01975D01*
X050197Y025207D02*
X050459D01*
X04945Y02446D02*
X050197Y025207D01*
X04945Y023745D02*
Y02446D01*
X048705Y0236D02*
X04995Y022355D01*
X04976Y021105D02*
X04995Y020915D01*
X0488Y021105D02*
X04976D01*
X047345D02*
X0488D01*
X04705Y0214D02*
X047345Y021105D01*
X05215Y02165D02*
X05375Y02325D01*
X05165Y02165D02*
X05215D01*
X05195Y0225D02*
X0524D01*
X05135Y0219D02*
X05195Y0225D01*
X05135Y02065D02*
Y0219D01*
Y02065D02*
X051625Y020375D01*
Y018305D02*
Y020375D01*
X049895Y030155D02*
X0537D01*
X04945Y0306D02*
X049895Y030155D01*
X04945Y0306D02*
Y03065D01*
X051Y0282D02*
X051695D01*
X05164Y026585D02*
Y02699D01*
X051695Y027045D02*
Y0282D01*
X05164Y02699D02*
X051695Y027045D01*
X05005Y02725D02*
X051Y0282D01*
X04645Y02725D02*
X05005D01*
X04995Y022355D02*
X051Y023405D01*
X0498Y023D02*
Y023395D01*
Y023D02*
X0498Y023D01*
X0473Y0242D02*
X048705D01*
Y0236D02*
Y0242D01*
Y02515D01*
X0364Y023605D02*
X036655Y02335D01*
D16*
X0437Y0284D02*
Y0295D01*
X052375Y01537D02*
Y016435D01*
X05225Y015245D02*
X052375Y01537D01*
X052625Y01542D02*
Y016435D01*
Y01542D02*
X0528Y015245D01*
X050375Y018305D02*
Y01922D01*
X0504Y019245D01*
X042575Y027072D02*
Y027625D01*
X04235Y02785D02*
X042575Y027625D01*
X040606Y021128D02*
Y022094D01*
X04075Y0259D02*
X041Y02615D01*
X0403Y0259D02*
X040803Y026403D01*
Y027072D01*
X041Y02615D02*
Y027072D01*
X041197Y025953D02*
Y027072D01*
Y025953D02*
X04125Y0259D01*
X0427D02*
Y02595D01*
X041984Y026666D02*
Y027072D01*
Y026666D02*
X0427Y02595D01*
X041787Y019963D02*
X04205Y0197D01*
X041787Y019963D02*
Y021128D01*
X042445Y01799D02*
Y0185D01*
X04205Y018895D02*
X042445Y0185D01*
X04205Y018895D02*
Y0197D01*
X0309Y0205D02*
X03453D01*
X0369Y01813D01*
Y017D02*
Y01813D01*
X0406Y0221D02*
X040606Y022094D01*
X0484Y0282D02*
Y02885D01*
X042405Y01795D02*
X042445Y01799D01*
D17*
X050853Y024553D02*
Y024813D01*
X0505Y0244D02*
X0507D01*
X050853Y024553D01*
D18*
X0407Y0159D02*
D03*
X0397D02*
D03*
X0345Y015896D02*
D03*
X0315D02*
D03*
D19*
X0476Y0264D02*
D03*
X0479Y02555D02*
D03*
X0483D02*
D03*
X0272Y0295D02*
D03*
X05425Y03065D02*
D03*
X0532D02*
D03*
X05525D02*
D03*
X03845Y02955D02*
D03*
X0392D02*
D03*
X04145Y0295D02*
D03*
X04295D02*
D03*
X0437D02*
D03*
X0422D02*
D03*
X0407D02*
D03*
X03995Y02955D02*
D03*
X05205Y0275D02*
D03*
X05145Y0274D02*
D03*
X0528Y02805D02*
D03*
X0537D02*
D03*
X04625Y0291D02*
D03*
X031Y01645D02*
D03*
X0247Y0295D02*
D03*
X02505Y03025D02*
D03*
X0424Y02035D02*
D03*
X0403Y0259D02*
D03*
X04385Y0271D02*
D03*
X04315Y0242D02*
D03*
X05625Y0183D02*
D03*
X05115Y0172D02*
D03*
X05185Y01535D02*
D03*
X05135Y01565D02*
D03*
X0505Y0244D02*
D03*
X05105Y0273D02*
D03*
X0555Y01635D02*
D03*
X0281Y0195D02*
D03*
X04075Y0259D02*
D03*
X04235Y02785D02*
D03*
X0359Y01875D02*
D03*
X03745Y0203D02*
D03*
X03905Y02355D02*
D03*
X03585Y0244D02*
D03*
X03235Y02415D02*
D03*
X0323Y02535D02*
D03*
X0329D02*
D03*
X0509Y0207D02*
D03*
X05525Y0205D02*
D03*
X0468Y0235D02*
D03*
X0404Y0164D02*
D03*
X03535Y02445D02*
D03*
X03595Y02335D02*
D03*
X0309Y0205D02*
D03*
X0504Y0172D02*
D03*
X04715Y0181D02*
D03*
X05095Y0221D02*
D03*
X0479Y02035D02*
D03*
X03765Y0179D02*
D03*
X0397Y01965D02*
D03*
X0421Y02225D02*
D03*
X0426Y02855D02*
D03*
X032Y0184D02*
D03*
X0457Y01965D02*
D03*
X04125Y0259D02*
D03*
X04435Y0268D02*
D03*
X04235Y0259D02*
D03*
X0427D02*
D03*
X03585Y0272D02*
D03*
X0431Y02215D02*
D03*
X0525Y0248D02*
D03*
X05115Y01915D02*
D03*
X03255Y0191D02*
D03*
X0369Y017D02*
D03*
X044966Y015616D02*
D03*
X0362Y02095D02*
D03*
X0298Y0169D02*
D03*
X0326Y0174D02*
D03*
X04235Y0242D02*
D03*
X04275D02*
D03*
X04165Y0259D02*
D03*
X04305D02*
D03*
X042D02*
D03*
X03505Y02285D02*
D03*
X04625Y02485D02*
D03*
X0359Y02015D02*
D03*
X03735Y02995D02*
D03*
X0392Y0164D02*
D03*
X04325Y02295D02*
D03*
X0441Y0209D02*
D03*
X04455D02*
D03*
X03395Y01515D02*
D03*
X0344D02*
D03*
X0393Y02605D02*
D03*
X0484Y0282D02*
D03*
X0337Y0201D02*
D03*
X03155Y0192D02*
D03*
X04625Y01765D02*
D03*
X04535Y0196D02*
D03*
X046628Y01955D02*
D03*
X053Y02975D02*
D03*
X05245Y0292D02*
D03*
X0506Y01465D02*
D03*
X04255Y0221D02*
D03*
X0423Y0219D02*
D03*
X03285Y0226D02*
D03*
X04645Y02725D02*
D03*
X0436Y0278D02*
D03*
X0368Y02455D02*
D03*
X054453Y015147D02*
D03*
X052395Y02675D02*
D03*
X0456Y025959D02*
D03*
X0452Y0253D02*
D03*
X04615Y0255D02*
D03*
X04291Y018986D02*
D03*
X04405Y01865D02*
D03*
X044025Y019989D02*
D03*
X04405Y0203D02*
D03*
X0427Y0201D02*
D03*
X05385Y0248D02*
D03*
X05325D02*
D03*
X0524Y0225D02*
D03*
X040698Y017652D02*
D03*
X04933Y01986D02*
D03*
X04894Y02918D02*
D03*
X0447Y02695D02*
D03*
X04625Y03035D02*
D03*
X04577Y02996D02*
D03*
X0451Y01925D02*
D03*
X0425Y01665D02*
D03*
X0406Y0221D02*
D03*
X04155D02*
D03*
X03951Y02441D02*
D03*
X041Y0221D02*
D03*
X03583Y02995D02*
D03*
X03693Y02932D02*
D03*
X04396Y01701D02*
D03*
X05663Y03015D02*
D03*
X0351Y0162D02*
D03*
X0408Y01975D02*
D03*
X04705Y0214D02*
D03*
X05165Y02165D02*
D03*
X04945Y03065D02*
D03*
X051Y0282D02*
D03*
X0484Y02885D02*
D03*
X03295Y0289D02*
D03*
X0498Y023D02*
D03*
X0473Y0242D02*
D03*
X04625Y0261D02*
D03*
D20*
X04965Y03165D02*
D03*
X049657Y042672D02*
D03*
X032826D02*
D03*
Y031746D02*
D03*
D21*
X05179Y02566D02*
D03*
X05134D02*
D03*
Y02521D02*
D03*
X05087D02*
D03*
X05134Y02621D02*
D03*
X05179D02*
D03*
X05087Y02566D02*
D03*
Y02621D02*
D03*
X05179Y02522D02*
D03*
D22*
X034Y017648D02*
Y019104D01*
X035Y017648D02*
Y019104D01*
X032304Y025354D02*
Y026657D01*
X0323Y02535D02*
X032304Y025354D01*
X054605Y02745D02*
X0561D01*
X034Y019104D02*
Y0198D01*
X0337Y0201D02*
X034Y0198D01*
X048945Y0296D02*
Y0304D01*
Y029185D02*
Y0296D01*
X04894Y02918D02*
X048945Y029185D01*
X03692Y027785D02*
X0372Y027505D01*
X03692Y03D02*
X0373Y03038D01*
X04535D01*
X04577Y02996D01*
X03692Y02933D02*
X03693Y02932D01*
X03692Y02933D02*
Y02948D01*
Y03D01*
X044105Y017155D02*
X04588D01*
X0423Y01535D02*
X04396Y01701D01*
X044105Y017155D01*
X035Y01692D02*
Y017648D01*
X03657Y01535D02*
X0423D01*
X035Y01692D02*
X03657Y01535D01*
X034Y0173D02*
Y017648D01*
Y0173D02*
X0351Y0162D01*
X03692Y027785D02*
Y02932D01*
D23*
X047905Y026D02*
D03*
X048495D02*
D03*
X048945Y0304D02*
D03*
X048355D02*
D03*
X048945Y0296D02*
D03*
X048355D02*
D03*
X043005Y01795D02*
D03*
X042415D02*
D03*
X029105Y0295D02*
D03*
X029695D02*
D03*
D24*
X03845Y0284D02*
D03*
X0392D02*
D03*
X03995D02*
D03*
X0407D02*
D03*
X04145D02*
D03*
X0422D02*
D03*
X04295D02*
D03*
X0437D02*
D03*
D25*
X0537Y030745D02*
D03*
Y030155D02*
D03*
X051Y023405D02*
D03*
Y023995D02*
D03*
X0528Y014655D02*
D03*
Y015245D02*
D03*
X05225Y014655D02*
D03*
Y015245D02*
D03*
X05475Y030155D02*
D03*
Y030745D02*
D03*
X05575Y030155D02*
D03*
Y030745D02*
D03*
D26*
X0468Y0304D02*
D03*
X0477D02*
D03*
Y0296D02*
D03*
X0468D02*
D03*
D27*
X04995Y020915D02*
D03*
Y021525D02*
D03*
X0488Y020495D02*
D03*
Y021105D02*
D03*
X0498Y024005D02*
D03*
Y023395D02*
D03*
X0456Y027405D02*
D03*
Y026795D02*
D03*
X0372Y026895D02*
D03*
Y027505D02*
D03*
X0367Y024005D02*
D03*
Y023395D02*
D03*
X0504Y019855D02*
D03*
Y019245D02*
D03*
X0534Y023545D02*
D03*
Y024155D02*
D03*
X04415Y019605D02*
D03*
Y018995D02*
D03*
X05485Y016355D02*
D03*
Y015745D02*
D03*
D28*
X05135Y0257D02*
D03*
D29*
X051837Y026585D02*
D03*
X05164D02*
D03*
X051444D02*
D03*
X051247D02*
D03*
X05105D02*
D03*
X050853D02*
D03*
Y024813D02*
D03*
X05105D02*
D03*
X051247D02*
D03*
X051444D02*
D03*
X05164D02*
D03*
X051837D02*
D03*
D30*
X050459Y026191D02*
D03*
Y025994D02*
D03*
Y025797D02*
D03*
Y025601D02*
D03*
Y025404D02*
D03*
Y025207D02*
D03*
X052231D02*
D03*
Y025404D02*
D03*
Y025601D02*
D03*
Y025797D02*
D03*
Y025994D02*
D03*
Y026191D02*
D03*
D31*
X0528Y0239D02*
D03*
Y02435D02*
D03*
X0525D02*
D03*
Y0239D02*
D03*
D32*
X0561Y02745D02*
D03*
D33*
X0242Y02855D02*
D03*
X0272D02*
D03*
X0242Y03025D02*
D03*
X0272D02*
D03*
D34*
X043972Y026462D02*
D03*
Y026265D02*
D03*
Y026068D02*
D03*
Y025872D02*
D03*
Y025675D02*
D03*
Y025478D02*
D03*
Y025281D02*
D03*
Y025084D02*
D03*
Y024887D02*
D03*
Y024691D02*
D03*
Y024494D02*
D03*
Y024297D02*
D03*
Y0241D02*
D03*
Y023903D02*
D03*
Y023706D02*
D03*
Y023509D02*
D03*
Y023313D02*
D03*
Y023116D02*
D03*
Y022919D02*
D03*
Y022722D02*
D03*
Y022525D02*
D03*
Y022328D02*
D03*
Y022132D02*
D03*
Y021935D02*
D03*
Y021738D02*
D03*
X038028D02*
D03*
Y021935D02*
D03*
Y022132D02*
D03*
Y022328D02*
D03*
Y022525D02*
D03*
Y022722D02*
D03*
Y022919D02*
D03*
Y023116D02*
D03*
Y023313D02*
D03*
Y023509D02*
D03*
Y023706D02*
D03*
Y023903D02*
D03*
Y0241D02*
D03*
Y024297D02*
D03*
Y024494D02*
D03*
Y024691D02*
D03*
Y024887D02*
D03*
Y025084D02*
D03*
Y025281D02*
D03*
Y025478D02*
D03*
Y025675D02*
D03*
Y025872D02*
D03*
Y026068D02*
D03*
Y026265D02*
D03*
Y026462D02*
D03*
D35*
X043362Y021128D02*
D03*
X043165D02*
D03*
X042969D02*
D03*
X042772D02*
D03*
X042575D02*
D03*
X042378D02*
D03*
X042181D02*
D03*
X041984D02*
D03*
X041787D02*
D03*
X041591D02*
D03*
X041394D02*
D03*
X041197D02*
D03*
X041D02*
D03*
X040803D02*
D03*
X040606D02*
D03*
X040409D02*
D03*
X040213D02*
D03*
X040016D02*
D03*
X039819D02*
D03*
X039622D02*
D03*
X039425D02*
D03*
X039228D02*
D03*
X039032D02*
D03*
X038835D02*
D03*
X038638D02*
D03*
Y027072D02*
D03*
X038835D02*
D03*
X039032D02*
D03*
X039228D02*
D03*
X039425D02*
D03*
X039622D02*
D03*
X039819D02*
D03*
X040016D02*
D03*
X040213D02*
D03*
X040409D02*
D03*
X040606D02*
D03*
X040803D02*
D03*
X041D02*
D03*
X041197D02*
D03*
X041394D02*
D03*
X041591D02*
D03*
X041787D02*
D03*
X041984D02*
D03*
X042181D02*
D03*
X042378D02*
D03*
X042575D02*
D03*
X042772D02*
D03*
X042969D02*
D03*
X043165D02*
D03*
X043362D02*
D03*
D36*
X032934Y0215D02*
D03*
X032919Y026661D02*
D03*
X030543D02*
D03*
X031123Y026657D02*
D03*
X032304D02*
D03*
X031724Y026661D02*
D03*
X025819D02*
D03*
X026398Y026657D02*
D03*
X02758D02*
D03*
X027Y026661D02*
D03*
X029362D02*
D03*
X029942Y026657D02*
D03*
X028761D02*
D03*
X028181Y026661D02*
D03*
X032343Y0215D02*
D03*
X031162D02*
D03*
X031753D02*
D03*
X029981D02*
D03*
X030572D02*
D03*
X029391D02*
D03*
X0288D02*
D03*
X025847D02*
D03*
X026438D02*
D03*
X027619D02*
D03*
X027028D02*
D03*
X028209D02*
D03*
D37*
X033839Y023783D02*
D03*
Y023193D02*
D03*
Y022012D02*
D03*
Y022602D02*
D03*
Y024965D02*
D03*
Y024374D02*
D03*
Y025555D02*
D03*
Y026146D02*
D03*
D38*
X04246Y01979D02*
D03*
X0433D02*
D03*
Y01919D02*
D03*
X04246D02*
D03*
D39*
X044428Y014524D02*
D03*
X047972D02*
D03*
D40*
X045609Y015616D02*
D03*
X046003D02*
D03*
X046397D02*
D03*
X046791D02*
D03*
D41*
X0412Y019109D02*
D03*
X0402D02*
D03*
X0392D02*
D03*
X0412Y017652D02*
D03*
X0402D02*
D03*
X0392D02*
D03*
X031Y019104D02*
D03*
X035D02*
D03*
X034D02*
D03*
X033D02*
D03*
X032D02*
D03*
X035Y017648D02*
D03*
X034D02*
D03*
X033D02*
D03*
X032D02*
D03*
X031D02*
D03*
D42*
X046628Y0181D02*
D03*
X04588D02*
D03*
X046628Y017155D02*
D03*
X046254D02*
D03*
X04588D02*
D03*
D43*
X050375Y018305D02*
D03*
X050625D02*
D03*
X050875D02*
D03*
X051125D02*
D03*
X051375D02*
D03*
X051625D02*
D03*
X051875D02*
D03*
X052125D02*
D03*
X052375D02*
D03*
X052625D02*
D03*
X050375Y016435D02*
D03*
X050625D02*
D03*
X050875D02*
D03*
X051125D02*
D03*
X051375D02*
D03*
X051625D02*
D03*
X051875D02*
D03*
X052125D02*
D03*
X052375D02*
D03*
X052625D02*
D03*
M02*
