G04 Layer_Color=8421504*
%FSTAX24Y24*%
%MOIN*%
G70*
G01*
G75*
%ADD10R,0.0335X0.0335*%
%ADD11R,0.0550X0.0500*%
%ADD12R,0.0350X0.0700*%
%ADD13R,0.0700X0.0350*%
%ADD14R,0.0197X0.0118*%
D10*
X051605Y0277D02*
D03*
X050995D02*
D03*
X025445Y0295D02*
D03*
X026055D02*
D03*
D11*
X05475Y02975D02*
D03*
Y03065D02*
D03*
X05575Y02975D02*
D03*
Y03065D02*
D03*
X0537Y02975D02*
D03*
Y03065D02*
D03*
D12*
X046136Y01953D02*
D03*
Y01697D02*
D03*
X044364Y01953D02*
D03*
Y01697D02*
D03*
X025886Y02353D02*
D03*
Y02097D02*
D03*
X024114Y02353D02*
D03*
Y02097D02*
D03*
X037636Y01953D02*
D03*
Y01697D02*
D03*
X035864Y01953D02*
D03*
Y01697D02*
D03*
X047114D02*
D03*
Y01953D02*
D03*
X048886Y01697D02*
D03*
Y01953D02*
D03*
X031386Y02353D02*
D03*
Y02097D02*
D03*
X029614Y02353D02*
D03*
Y02097D02*
D03*
X030886Y02753D02*
D03*
Y02497D02*
D03*
X029114Y02753D02*
D03*
Y02497D02*
D03*
X034136Y02353D02*
D03*
Y02097D02*
D03*
X032364Y02353D02*
D03*
Y02097D02*
D03*
X036886Y02353D02*
D03*
Y02097D02*
D03*
X035114Y02353D02*
D03*
Y02097D02*
D03*
X044636Y02753D02*
D03*
Y02497D02*
D03*
X042864Y02753D02*
D03*
Y02497D02*
D03*
X042386Y02353D02*
D03*
Y02097D02*
D03*
X040614Y02353D02*
D03*
Y02097D02*
D03*
X047886Y02353D02*
D03*
Y02097D02*
D03*
X046114Y02353D02*
D03*
Y02097D02*
D03*
X043136Y01953D02*
D03*
Y01697D02*
D03*
X041364Y01953D02*
D03*
Y01697D02*
D03*
X040386Y01953D02*
D03*
Y01697D02*
D03*
X038614Y01953D02*
D03*
Y01697D02*
D03*
X047386Y02753D02*
D03*
Y02497D02*
D03*
X045614Y02753D02*
D03*
Y02497D02*
D03*
X050136Y02753D02*
D03*
Y02497D02*
D03*
X048364Y02753D02*
D03*
Y02497D02*
D03*
X025386Y02753D02*
D03*
Y02497D02*
D03*
X023614Y02753D02*
D03*
Y02497D02*
D03*
X033636Y02753D02*
D03*
Y02497D02*
D03*
X031864Y02753D02*
D03*
Y02497D02*
D03*
X028636Y02353D02*
D03*
Y02097D02*
D03*
X026864Y02353D02*
D03*
Y02097D02*
D03*
X036386Y02753D02*
D03*
Y02497D02*
D03*
X034614Y02753D02*
D03*
Y02497D02*
D03*
X041886Y02753D02*
D03*
Y02497D02*
D03*
X040114Y02753D02*
D03*
Y02497D02*
D03*
X034886Y01953D02*
D03*
Y01697D02*
D03*
X033114Y01953D02*
D03*
Y01697D02*
D03*
X029272Y0195D02*
D03*
Y016941D02*
D03*
X0275Y0195D02*
D03*
Y016941D02*
D03*
X039136Y02753D02*
D03*
Y02497D02*
D03*
X037364Y02753D02*
D03*
Y02497D02*
D03*
X0265Y0195D02*
D03*
Y016941D02*
D03*
X024728Y0195D02*
D03*
Y016941D02*
D03*
X045136Y02353D02*
D03*
Y02097D02*
D03*
X043364Y02353D02*
D03*
Y02097D02*
D03*
X028136Y02753D02*
D03*
Y02497D02*
D03*
X026364Y02753D02*
D03*
Y02497D02*
D03*
X039636Y02353D02*
D03*
Y02097D02*
D03*
X037864Y02353D02*
D03*
Y02097D02*
D03*
X032136Y01953D02*
D03*
Y01697D02*
D03*
X030364Y01953D02*
D03*
Y01697D02*
D03*
D13*
X05522Y026636D02*
D03*
X05778D02*
D03*
X05522Y024864D02*
D03*
X05778D02*
D03*
X05653Y021114D02*
D03*
X05397D02*
D03*
X05653Y022886D02*
D03*
X05397D02*
D03*
X05528Y017364D02*
D03*
X05272D02*
D03*
X05528Y019136D02*
D03*
X05272D02*
D03*
X03572Y015636D02*
D03*
X03828D02*
D03*
X03572Y013864D02*
D03*
X03828D02*
D03*
D14*
X053388Y02805D02*
D03*
X053112D02*
D03*
M02*
