G04 Layer_Color=16711935*
%FSTAX24Y24*%
%MOIN*%
G70*
G01*
G75*
%ADD47R,0.0415X0.0415*%
%ADD51R,0.0277X0.0198*%
%ADD52C,0.0741*%
%ADD53C,0.0316*%
%ADD54C,0.1655*%
%ADD55C,0.0277*%
%ADD56R,0.0356X0.0434*%
%ADD57R,0.0380X0.0680*%
%ADD58R,0.0434X0.0356*%
%ADD59R,0.0580X0.0630*%
%ADD60R,0.0415X0.0415*%
%ADD61R,0.1143X0.1143*%
%ADD62R,0.0178X0.0356*%
%ADD63R,0.0356X0.0178*%
%ADD64R,0.0226X0.0265*%
%ADD65R,0.1080X0.0480*%
%ADD66R,0.1080X0.0580*%
%ADD67O,0.0789X0.0198*%
%ADD68O,0.0198X0.0789*%
%ADD69R,0.0430X0.1080*%
%ADD70R,0.1080X0.0430*%
%ADD71R,0.0474X0.0434*%
G04:AMPARAMS|DCode=72|XSize=114.3mil|YSize=149.7mil|CornerRadius=17.3mil|HoleSize=0mil|Usage=FLASHONLY|Rotation=180.000|XOffset=0mil|YOffset=0mil|HoleType=Round|Shape=RoundedRectangle|*
%AMROUNDEDRECTD72*
21,1,0.1143,0.1152,0,0,180.0*
21,1,0.0797,0.1497,0,0,180.0*
1,1,0.0346,-0.0399,0.0576*
1,1,0.0346,0.0399,0.0576*
1,1,0.0346,0.0399,-0.0576*
1,1,0.0346,-0.0399,-0.0576*
%
%ADD72ROUNDEDRECTD72*%
G04:AMPARAMS|DCode=73|XSize=32mil|YSize=86.7mil|CornerRadius=7mil|HoleSize=0mil|Usage=FLASHONLY|Rotation=180.000|XOffset=0mil|YOffset=0mil|HoleType=Round|Shape=RoundedRectangle|*
%AMROUNDEDRECTD73*
21,1,0.0320,0.0727,0,0,180.0*
21,1,0.0180,0.0867,0,0,180.0*
1,1,0.0140,-0.0090,0.0364*
1,1,0.0140,0.0090,0.0364*
1,1,0.0140,0.0090,-0.0364*
1,1,0.0140,-0.0090,-0.0364*
%
%ADD73ROUNDEDRECTD73*%
%ADD74R,0.0474X0.1064*%
%ADD75R,0.0297X0.0395*%
%ADD76O,0.0237X0.0966*%
D47*
X052795Y0277D02*
D03*
X053405D02*
D03*
X053995Y02745D02*
D03*
X054605D02*
D03*
X053405Y02715D02*
D03*
X052795D02*
D03*
X052305Y0282D02*
D03*
X051695D02*
D03*
X048705Y02515D02*
D03*
X048095D02*
D03*
X053855Y02525D02*
D03*
X053245D02*
D03*
X053855Y0262D02*
D03*
X053245D02*
D03*
Y02575D02*
D03*
X053855D02*
D03*
X053955Y01465D02*
D03*
X053345D02*
D03*
X051095D02*
D03*
X051705D02*
D03*
X052805Y02335D02*
D03*
X052195D02*
D03*
X042445Y0185D02*
D03*
X043055D02*
D03*
D51*
X0523Y0277D02*
D03*
X052024D02*
D03*
D52*
X0407Y0159D02*
D03*
X0397D02*
D03*
X0345Y015896D02*
D03*
X0315D02*
D03*
D53*
X0476Y0264D02*
D03*
X0479Y02555D02*
D03*
X0483D02*
D03*
X0272Y0295D02*
D03*
X05425Y03065D02*
D03*
X0532D02*
D03*
X05525D02*
D03*
X03845Y02955D02*
D03*
X0392D02*
D03*
X04145Y0295D02*
D03*
X04295D02*
D03*
X0437D02*
D03*
X0422D02*
D03*
X0407D02*
D03*
X03995Y02955D02*
D03*
X05205Y0275D02*
D03*
X05145Y0274D02*
D03*
X0528Y02805D02*
D03*
X0537D02*
D03*
X04625Y0291D02*
D03*
X031Y01645D02*
D03*
X0247Y0295D02*
D03*
X02505Y03025D02*
D03*
X0424Y02035D02*
D03*
X0403Y0259D02*
D03*
X04385Y0271D02*
D03*
X04315Y0242D02*
D03*
X05625Y0183D02*
D03*
X05115Y0172D02*
D03*
X05185Y01535D02*
D03*
X05135Y01565D02*
D03*
X0505Y0244D02*
D03*
X05105Y0273D02*
D03*
X0555Y01635D02*
D03*
X0281Y0195D02*
D03*
X04075Y0259D02*
D03*
X04235Y02785D02*
D03*
X0359Y01875D02*
D03*
X03745Y0203D02*
D03*
X03905Y02355D02*
D03*
X03585Y0244D02*
D03*
X03235Y02415D02*
D03*
X0323Y02535D02*
D03*
X0329D02*
D03*
X0509Y0207D02*
D03*
X05525Y0205D02*
D03*
X0468Y0235D02*
D03*
X0404Y0164D02*
D03*
X03535Y02445D02*
D03*
X03595Y02335D02*
D03*
X0309Y0205D02*
D03*
X0504Y0172D02*
D03*
X04715Y0181D02*
D03*
X05095Y0221D02*
D03*
X0479Y02035D02*
D03*
X03765Y0179D02*
D03*
X0397Y01965D02*
D03*
X0421Y02225D02*
D03*
X0426Y02855D02*
D03*
X032Y0184D02*
D03*
X0457Y01965D02*
D03*
X04125Y0259D02*
D03*
X04435Y0268D02*
D03*
X04235Y0259D02*
D03*
X0427D02*
D03*
X03585Y0272D02*
D03*
X0431Y02215D02*
D03*
X0525Y0248D02*
D03*
X05115Y01915D02*
D03*
X03255Y0191D02*
D03*
X0369Y017D02*
D03*
X044966Y015616D02*
D03*
X0362Y02095D02*
D03*
X0298Y0169D02*
D03*
X0326Y0174D02*
D03*
X04235Y0242D02*
D03*
X04275D02*
D03*
X04165Y0259D02*
D03*
X04305D02*
D03*
X042D02*
D03*
X03505Y02285D02*
D03*
X04625Y02485D02*
D03*
X0359Y02015D02*
D03*
X03735Y02995D02*
D03*
X0392Y0164D02*
D03*
X04325Y02295D02*
D03*
X0441Y0209D02*
D03*
X04455D02*
D03*
X03395Y01515D02*
D03*
X0344D02*
D03*
X0393Y02605D02*
D03*
X0484Y0282D02*
D03*
X0337Y0201D02*
D03*
X03155Y0192D02*
D03*
X04625Y01765D02*
D03*
X04535Y0196D02*
D03*
X046628Y01955D02*
D03*
X053Y02975D02*
D03*
X05245Y0292D02*
D03*
X0506Y01465D02*
D03*
X04255Y0221D02*
D03*
X0423Y0219D02*
D03*
X03285Y0226D02*
D03*
X04645Y02725D02*
D03*
X0436Y0278D02*
D03*
X0368Y02455D02*
D03*
X054453Y015147D02*
D03*
X052395Y02675D02*
D03*
X0456Y025959D02*
D03*
X0452Y0253D02*
D03*
X04615Y0255D02*
D03*
X04291Y018986D02*
D03*
X04405Y01865D02*
D03*
X044025Y019989D02*
D03*
X04405Y0203D02*
D03*
X0427Y0201D02*
D03*
X05385Y0248D02*
D03*
X05325D02*
D03*
X0524Y0225D02*
D03*
X040698Y017652D02*
D03*
X04933Y01986D02*
D03*
X04894Y02918D02*
D03*
X0447Y02695D02*
D03*
X04625Y03035D02*
D03*
X04577Y02996D02*
D03*
X0451Y01925D02*
D03*
X0425Y01665D02*
D03*
X0406Y0221D02*
D03*
X04155D02*
D03*
X03951Y02441D02*
D03*
X041Y0221D02*
D03*
X03583Y02995D02*
D03*
X03693Y02932D02*
D03*
X04396Y01701D02*
D03*
X05663Y03015D02*
D03*
X0351Y0162D02*
D03*
X0408Y01975D02*
D03*
X04705Y0214D02*
D03*
X05165Y02165D02*
D03*
X04945Y03065D02*
D03*
X051Y0282D02*
D03*
X0484Y02885D02*
D03*
X03295Y0289D02*
D03*
X0498Y023D02*
D03*
X0473Y0242D02*
D03*
X04625Y0261D02*
D03*
D54*
X04965Y03165D02*
D03*
X049657Y042672D02*
D03*
X032826D02*
D03*
Y031746D02*
D03*
D55*
X05179Y02566D02*
D03*
X05134D02*
D03*
Y02521D02*
D03*
X05087D02*
D03*
X05134Y02621D02*
D03*
X05179D02*
D03*
X05087Y02566D02*
D03*
Y02621D02*
D03*
X05179Y02522D02*
D03*
D56*
X047905Y026D02*
D03*
X048495D02*
D03*
X048945Y0304D02*
D03*
X048355D02*
D03*
X048945Y0296D02*
D03*
X048355D02*
D03*
X043005Y01795D02*
D03*
X042415D02*
D03*
X029105Y0295D02*
D03*
X029695D02*
D03*
D57*
X03845Y0284D02*
D03*
X0392D02*
D03*
X03995D02*
D03*
X0407D02*
D03*
X04145D02*
D03*
X0422D02*
D03*
X04295D02*
D03*
X0437D02*
D03*
D58*
X0537Y030745D02*
D03*
Y030155D02*
D03*
X051Y023405D02*
D03*
Y023995D02*
D03*
X0528Y014655D02*
D03*
Y015245D02*
D03*
X05225Y014655D02*
D03*
Y015245D02*
D03*
X05475Y030155D02*
D03*
Y030745D02*
D03*
X05575Y030155D02*
D03*
Y030745D02*
D03*
D59*
X0468Y0304D02*
D03*
X0477D02*
D03*
Y0296D02*
D03*
X0468D02*
D03*
D60*
X04995Y020915D02*
D03*
Y021525D02*
D03*
X0488Y020495D02*
D03*
Y021105D02*
D03*
X0498Y024005D02*
D03*
Y023395D02*
D03*
X0456Y027405D02*
D03*
Y026795D02*
D03*
X0372Y026895D02*
D03*
Y027505D02*
D03*
X0367Y024005D02*
D03*
Y023395D02*
D03*
X0504Y019855D02*
D03*
Y019245D02*
D03*
X0534Y023545D02*
D03*
Y024155D02*
D03*
X04415Y019605D02*
D03*
Y018995D02*
D03*
X05485Y016355D02*
D03*
Y015745D02*
D03*
D61*
X05135Y0257D02*
D03*
D62*
X051837Y026585D02*
D03*
X05164D02*
D03*
X051444D02*
D03*
X051247D02*
D03*
X05105D02*
D03*
X050853D02*
D03*
Y024813D02*
D03*
X05105D02*
D03*
X051247D02*
D03*
X051444D02*
D03*
X05164D02*
D03*
X051837D02*
D03*
D63*
X050459Y026191D02*
D03*
Y025994D02*
D03*
Y025797D02*
D03*
Y025601D02*
D03*
Y025404D02*
D03*
Y025207D02*
D03*
X052231D02*
D03*
Y025404D02*
D03*
Y025601D02*
D03*
Y025797D02*
D03*
Y025994D02*
D03*
Y026191D02*
D03*
D64*
X0528Y0239D02*
D03*
Y02435D02*
D03*
X0525D02*
D03*
Y0239D02*
D03*
D65*
X0561Y02745D02*
D03*
D66*
X0242Y02855D02*
D03*
X0272D02*
D03*
X0242Y03025D02*
D03*
X0272D02*
D03*
D67*
X043972Y026462D02*
D03*
Y026265D02*
D03*
Y026068D02*
D03*
Y025872D02*
D03*
Y025675D02*
D03*
Y025478D02*
D03*
Y025281D02*
D03*
Y025084D02*
D03*
Y024887D02*
D03*
Y024691D02*
D03*
Y024494D02*
D03*
Y024297D02*
D03*
Y0241D02*
D03*
Y023903D02*
D03*
Y023706D02*
D03*
Y023509D02*
D03*
Y023313D02*
D03*
Y023116D02*
D03*
Y022919D02*
D03*
Y022722D02*
D03*
Y022525D02*
D03*
Y022328D02*
D03*
Y022132D02*
D03*
Y021935D02*
D03*
Y021738D02*
D03*
X038028D02*
D03*
Y021935D02*
D03*
Y022132D02*
D03*
Y022328D02*
D03*
Y022525D02*
D03*
Y022722D02*
D03*
Y022919D02*
D03*
Y023116D02*
D03*
Y023313D02*
D03*
Y023509D02*
D03*
Y023706D02*
D03*
Y023903D02*
D03*
Y0241D02*
D03*
Y024297D02*
D03*
Y024494D02*
D03*
Y024691D02*
D03*
Y024887D02*
D03*
Y025084D02*
D03*
Y025281D02*
D03*
Y025478D02*
D03*
Y025675D02*
D03*
Y025872D02*
D03*
Y026068D02*
D03*
Y026265D02*
D03*
Y026462D02*
D03*
D68*
X043362Y021128D02*
D03*
X043165D02*
D03*
X042969D02*
D03*
X042772D02*
D03*
X042575D02*
D03*
X042378D02*
D03*
X042181D02*
D03*
X041984D02*
D03*
X041787D02*
D03*
X041591D02*
D03*
X041394D02*
D03*
X041197D02*
D03*
X041D02*
D03*
X040803D02*
D03*
X040606D02*
D03*
X040409D02*
D03*
X040213D02*
D03*
X040016D02*
D03*
X039819D02*
D03*
X039622D02*
D03*
X039425D02*
D03*
X039228D02*
D03*
X039032D02*
D03*
X038835D02*
D03*
X038638D02*
D03*
Y027072D02*
D03*
X038835D02*
D03*
X039032D02*
D03*
X039228D02*
D03*
X039425D02*
D03*
X039622D02*
D03*
X039819D02*
D03*
X040016D02*
D03*
X040213D02*
D03*
X040409D02*
D03*
X040606D02*
D03*
X040803D02*
D03*
X041D02*
D03*
X041197D02*
D03*
X041394D02*
D03*
X041591D02*
D03*
X041787D02*
D03*
X041984D02*
D03*
X042181D02*
D03*
X042378D02*
D03*
X042575D02*
D03*
X042772D02*
D03*
X042969D02*
D03*
X043165D02*
D03*
X043362D02*
D03*
D69*
X032934Y0215D02*
D03*
X032919Y026661D02*
D03*
X030543D02*
D03*
X031123Y026657D02*
D03*
X032304D02*
D03*
X031724Y026661D02*
D03*
X025819D02*
D03*
X026398Y026657D02*
D03*
X02758D02*
D03*
X027Y026661D02*
D03*
X029362D02*
D03*
X029942Y026657D02*
D03*
X028761D02*
D03*
X028181Y026661D02*
D03*
X032343Y0215D02*
D03*
X031162D02*
D03*
X031753D02*
D03*
X029981D02*
D03*
X030572D02*
D03*
X029391D02*
D03*
X0288D02*
D03*
X025847D02*
D03*
X026438D02*
D03*
X027619D02*
D03*
X027028D02*
D03*
X028209D02*
D03*
D70*
X033839Y023783D02*
D03*
Y023193D02*
D03*
Y022012D02*
D03*
Y022602D02*
D03*
Y024965D02*
D03*
Y024374D02*
D03*
Y025555D02*
D03*
Y026146D02*
D03*
D71*
X04246Y01979D02*
D03*
X0433D02*
D03*
Y01919D02*
D03*
X04246D02*
D03*
D72*
X044428Y014524D02*
D03*
X047972D02*
D03*
D73*
X045609Y015616D02*
D03*
X046003D02*
D03*
X046397D02*
D03*
X046791D02*
D03*
D74*
X0412Y019109D02*
D03*
X0402D02*
D03*
X0392D02*
D03*
X0412Y017652D02*
D03*
X0402D02*
D03*
X0392D02*
D03*
X031Y019104D02*
D03*
X035D02*
D03*
X034D02*
D03*
X033D02*
D03*
X032D02*
D03*
X035Y017648D02*
D03*
X034D02*
D03*
X033D02*
D03*
X032D02*
D03*
X031D02*
D03*
D75*
X046628Y0181D02*
D03*
X04588D02*
D03*
X046628Y017155D02*
D03*
X046254D02*
D03*
X04588D02*
D03*
D76*
X050375Y018305D02*
D03*
X050625D02*
D03*
X050875D02*
D03*
X051125D02*
D03*
X051375D02*
D03*
X051625D02*
D03*
X051875D02*
D03*
X052125D02*
D03*
X052375D02*
D03*
X052625D02*
D03*
X050375Y016435D02*
D03*
X050625D02*
D03*
X050875D02*
D03*
X051125D02*
D03*
X051375D02*
D03*
X051625D02*
D03*
X051875D02*
D03*
X052125D02*
D03*
X052375D02*
D03*
X052625D02*
D03*
M02*
