G04 Layer_Color=255*
%FSTAX24Y24*%
%MOIN*%
G70*
G01*
G75*
%ADD10R,0.0335X0.0335*%
%ADD14R,0.0197X0.0118*%
%ADD18C,0.0661*%
%ADD23R,0.0276X0.0354*%
%ADD24R,0.0300X0.0600*%
%ADD25R,0.0354X0.0276*%
%ADD26R,0.0500X0.0550*%
%ADD27R,0.0335X0.0335*%
%ADD28R,0.1063X0.1063*%
%ADD29R,0.0098X0.0276*%
%ADD30R,0.0276X0.0098*%
%ADD31R,0.0146X0.0185*%
%ADD32R,0.1000X0.0400*%
%ADD33R,0.1000X0.0500*%
%ADD34O,0.0709X0.0118*%
%ADD35O,0.0118X0.0709*%
%ADD36R,0.0350X0.1000*%
%ADD37R,0.1000X0.0350*%
%ADD38R,0.0394X0.0354*%
G04:AMPARAMS|DCode=39|XSize=106.3mil|YSize=141.7mil|CornerRadius=13.3mil|HoleSize=0mil|Usage=FLASHONLY|Rotation=180.000|XOffset=0mil|YOffset=0mil|HoleType=Round|Shape=RoundedRectangle|*
%AMROUNDEDRECTD39*
21,1,0.1063,0.1152,0,0,180.0*
21,1,0.0797,0.1417,0,0,180.0*
1,1,0.0266,-0.0399,0.0576*
1,1,0.0266,0.0399,0.0576*
1,1,0.0266,0.0399,-0.0576*
1,1,0.0266,-0.0399,-0.0576*
%
%ADD39ROUNDEDRECTD39*%
G04:AMPARAMS|DCode=40|XSize=24mil|YSize=78.7mil|CornerRadius=3mil|HoleSize=0mil|Usage=FLASHONLY|Rotation=180.000|XOffset=0mil|YOffset=0mil|HoleType=Round|Shape=RoundedRectangle|*
%AMROUNDEDRECTD40*
21,1,0.0240,0.0727,0,0,180.0*
21,1,0.0180,0.0787,0,0,180.0*
1,1,0.0060,-0.0090,0.0364*
1,1,0.0060,0.0090,0.0364*
1,1,0.0060,0.0090,-0.0364*
1,1,0.0060,-0.0090,-0.0364*
%
%ADD40ROUNDEDRECTD40*%
%ADD41R,0.0394X0.0984*%
%ADD42R,0.0217X0.0315*%
%ADD43O,0.0157X0.0886*%
D10*
X052795Y0277D02*
D03*
X053405D02*
D03*
X053995Y02745D02*
D03*
X054605D02*
D03*
X053405Y02715D02*
D03*
X052795D02*
D03*
X052305Y0282D02*
D03*
X051695D02*
D03*
X048705Y02515D02*
D03*
X048095D02*
D03*
X053855Y02525D02*
D03*
X053245D02*
D03*
X053855Y0262D02*
D03*
X053245D02*
D03*
Y02575D02*
D03*
X053855D02*
D03*
X053955Y01465D02*
D03*
X053345D02*
D03*
X051095D02*
D03*
X051705D02*
D03*
X052805Y02335D02*
D03*
X052195D02*
D03*
X042445Y0185D02*
D03*
X043055D02*
D03*
D14*
X0523Y0277D02*
D03*
X052024D02*
D03*
D18*
X0407Y0159D02*
D03*
X0397D02*
D03*
X0345Y015896D02*
D03*
X0315D02*
D03*
D23*
X047905Y026D02*
D03*
X048495D02*
D03*
X048945Y0304D02*
D03*
X048355D02*
D03*
X048945Y0296D02*
D03*
X048355D02*
D03*
X043005Y01795D02*
D03*
X042415D02*
D03*
X029105Y0295D02*
D03*
X029695D02*
D03*
D24*
X03845Y0284D02*
D03*
X0392D02*
D03*
X03995D02*
D03*
X0407D02*
D03*
X04145D02*
D03*
X0422D02*
D03*
X04295D02*
D03*
X0437D02*
D03*
D25*
X0537Y030745D02*
D03*
Y030155D02*
D03*
X051Y023405D02*
D03*
Y023995D02*
D03*
X0528Y014655D02*
D03*
Y015245D02*
D03*
X05225Y014655D02*
D03*
Y015245D02*
D03*
X05475Y030155D02*
D03*
Y030745D02*
D03*
X05575Y030155D02*
D03*
Y030745D02*
D03*
D26*
X0468Y0304D02*
D03*
X0477D02*
D03*
Y0296D02*
D03*
X0468D02*
D03*
D27*
X04995Y020915D02*
D03*
Y021525D02*
D03*
X0488Y020495D02*
D03*
Y021105D02*
D03*
X0498Y024005D02*
D03*
Y023395D02*
D03*
X0456Y027405D02*
D03*
Y026795D02*
D03*
X0372Y026895D02*
D03*
Y027505D02*
D03*
X0367Y024005D02*
D03*
Y023395D02*
D03*
X0504Y019855D02*
D03*
Y019245D02*
D03*
X0534Y023545D02*
D03*
Y024155D02*
D03*
X04415Y019605D02*
D03*
Y018995D02*
D03*
X05485Y016355D02*
D03*
Y015745D02*
D03*
D28*
X05135Y0257D02*
D03*
D29*
X051837Y026585D02*
D03*
X05164D02*
D03*
X051444D02*
D03*
X051247D02*
D03*
X05105D02*
D03*
X050853D02*
D03*
Y024813D02*
D03*
X05105D02*
D03*
X051247D02*
D03*
X051444D02*
D03*
X05164D02*
D03*
X051837D02*
D03*
D30*
X050459Y026191D02*
D03*
Y025994D02*
D03*
Y025797D02*
D03*
Y025601D02*
D03*
Y025404D02*
D03*
Y025207D02*
D03*
X052231D02*
D03*
Y025404D02*
D03*
Y025601D02*
D03*
Y025797D02*
D03*
Y025994D02*
D03*
Y026191D02*
D03*
D31*
X0528Y0239D02*
D03*
Y02435D02*
D03*
X0525D02*
D03*
Y0239D02*
D03*
D32*
X0561Y02745D02*
D03*
D33*
X0242Y02855D02*
D03*
X0272D02*
D03*
X0242Y03025D02*
D03*
X0272D02*
D03*
D34*
X043972Y026462D02*
D03*
Y026265D02*
D03*
Y026068D02*
D03*
Y025872D02*
D03*
Y025675D02*
D03*
Y025478D02*
D03*
Y025281D02*
D03*
Y025084D02*
D03*
Y024887D02*
D03*
Y024691D02*
D03*
Y024494D02*
D03*
Y024297D02*
D03*
Y0241D02*
D03*
Y023903D02*
D03*
Y023706D02*
D03*
Y023509D02*
D03*
Y023313D02*
D03*
Y023116D02*
D03*
Y022919D02*
D03*
Y022722D02*
D03*
Y022525D02*
D03*
Y022328D02*
D03*
Y022132D02*
D03*
Y021935D02*
D03*
Y021738D02*
D03*
X038028D02*
D03*
Y021935D02*
D03*
Y022132D02*
D03*
Y022328D02*
D03*
Y022525D02*
D03*
Y022722D02*
D03*
Y022919D02*
D03*
Y023116D02*
D03*
Y023313D02*
D03*
Y023509D02*
D03*
Y023706D02*
D03*
Y023903D02*
D03*
Y0241D02*
D03*
Y024297D02*
D03*
Y024494D02*
D03*
Y024691D02*
D03*
Y024887D02*
D03*
Y025084D02*
D03*
Y025281D02*
D03*
Y025478D02*
D03*
Y025675D02*
D03*
Y025872D02*
D03*
Y026068D02*
D03*
Y026265D02*
D03*
Y026462D02*
D03*
D35*
X043362Y021128D02*
D03*
X043165D02*
D03*
X042969D02*
D03*
X042772D02*
D03*
X042575D02*
D03*
X042378D02*
D03*
X042181D02*
D03*
X041984D02*
D03*
X041787D02*
D03*
X041591D02*
D03*
X041394D02*
D03*
X041197D02*
D03*
X041D02*
D03*
X040803D02*
D03*
X040606D02*
D03*
X040409D02*
D03*
X040213D02*
D03*
X040016D02*
D03*
X039819D02*
D03*
X039622D02*
D03*
X039425D02*
D03*
X039228D02*
D03*
X039032D02*
D03*
X038835D02*
D03*
X038638D02*
D03*
Y027072D02*
D03*
X038835D02*
D03*
X039032D02*
D03*
X039228D02*
D03*
X039425D02*
D03*
X039622D02*
D03*
X039819D02*
D03*
X040016D02*
D03*
X040213D02*
D03*
X040409D02*
D03*
X040606D02*
D03*
X040803D02*
D03*
X041D02*
D03*
X041197D02*
D03*
X041394D02*
D03*
X041591D02*
D03*
X041787D02*
D03*
X041984D02*
D03*
X042181D02*
D03*
X042378D02*
D03*
X042575D02*
D03*
X042772D02*
D03*
X042969D02*
D03*
X043165D02*
D03*
X043362D02*
D03*
D36*
X032934Y0215D02*
D03*
X032919Y026661D02*
D03*
X030543D02*
D03*
X031123Y026657D02*
D03*
X032304D02*
D03*
X031724Y026661D02*
D03*
X025819D02*
D03*
X026398Y026657D02*
D03*
X02758D02*
D03*
X027Y026661D02*
D03*
X029362D02*
D03*
X029942Y026657D02*
D03*
X028761D02*
D03*
X028181Y026661D02*
D03*
X032343Y0215D02*
D03*
X031162D02*
D03*
X031753D02*
D03*
X029981D02*
D03*
X030572D02*
D03*
X029391D02*
D03*
X0288D02*
D03*
X025847D02*
D03*
X026438D02*
D03*
X027619D02*
D03*
X027028D02*
D03*
X028209D02*
D03*
D37*
X033839Y023783D02*
D03*
Y023193D02*
D03*
Y022012D02*
D03*
Y022602D02*
D03*
Y024965D02*
D03*
Y024374D02*
D03*
Y025555D02*
D03*
Y026146D02*
D03*
D38*
X04246Y01979D02*
D03*
X0433D02*
D03*
Y01919D02*
D03*
X04246D02*
D03*
D39*
X044428Y014524D02*
D03*
X047972D02*
D03*
D40*
X045609Y015616D02*
D03*
X046003D02*
D03*
X046397D02*
D03*
X046791D02*
D03*
D41*
X0412Y019109D02*
D03*
X0402D02*
D03*
X0392D02*
D03*
X0412Y017652D02*
D03*
X0402D02*
D03*
X0392D02*
D03*
X031Y019104D02*
D03*
X035D02*
D03*
X034D02*
D03*
X033D02*
D03*
X032D02*
D03*
X035Y017648D02*
D03*
X034D02*
D03*
X033D02*
D03*
X032D02*
D03*
X031D02*
D03*
D42*
X046628Y0181D02*
D03*
X04588D02*
D03*
X046628Y017155D02*
D03*
X046254D02*
D03*
X04588D02*
D03*
D43*
X050375Y018305D02*
D03*
X050625D02*
D03*
X050875D02*
D03*
X051125D02*
D03*
X051375D02*
D03*
X051625D02*
D03*
X051875D02*
D03*
X052125D02*
D03*
X052375D02*
D03*
X052625D02*
D03*
X050375Y016435D02*
D03*
X050625D02*
D03*
X050875D02*
D03*
X051125D02*
D03*
X051375D02*
D03*
X051625D02*
D03*
X051875D02*
D03*
X052125D02*
D03*
X052375D02*
D03*
X052625D02*
D03*
M02*
