G04 Layer_Color=32896*
%FSTAX24Y24*%
%MOIN*%
G70*
G01*
G75*
%ADD15C,0.0100*%
%ADD44C,0.0060*%
%ADD45C,0.0040*%
%ADD46C,0.0079*%
%ADD77C,0.0098*%
%ADD78C,0.0236*%
%ADD79C,0.0157*%
%ADD80C,0.0010*%
%ADD81C,0.0060*%
%ADD82C,0.0050*%
G36*
X052256Y02641D02*
X05214D01*
X05199Y02656D01*
Y026676D01*
X05224D01*
X052256Y02641D01*
D02*
G37*
D15*
X02641Y0294D02*
G03*
X02641Y0294I-00071J0D01*
G01*
X026274D02*
G03*
X026274Y0294I-000574J0D01*
G01*
X050459Y026585D02*
X050656D01*
X050459Y026388D02*
Y026585D01*
Y024813D02*
Y02501D01*
Y024813D02*
X050656D01*
X052034D02*
X052231D01*
Y02501D01*
X05891Y027D02*
Y027827D01*
X05516Y02785D02*
X0589D01*
X05516Y027D02*
Y027827D01*
Y027D02*
X0589D01*
X024519Y030581D02*
X026881D01*
X024519Y028219D02*
Y030581D01*
Y028219D02*
X026881D01*
X026881D02*
Y030581D01*
X033869Y021061D02*
Y021711D01*
X033768Y021061D02*
X033869D01*
X033623D02*
X033768D01*
X033869Y026466D02*
Y027111D01*
X033219Y021061D02*
X033623D01*
X033219Y027111D02*
X033869D01*
X023023D02*
X025519D01*
X023023Y021061D02*
Y027111D01*
Y021061D02*
X025519D01*
X023519Y025361D02*
Y026511D01*
Y025361D02*
X025168D01*
Y024811D02*
Y025361D01*
X023519Y024811D02*
X025168D01*
X023519Y024111D02*
Y024811D01*
Y024111D02*
X025168D01*
Y023311D02*
Y024111D01*
X023519Y023311D02*
X025168D01*
X023519Y022261D02*
Y023311D01*
Y022261D02*
X026369D01*
D44*
X049793Y02122D02*
X050107D01*
X048643Y0208D02*
X048957D01*
X0531Y027543D02*
Y027857D01*
X0543Y027293D02*
Y027607D01*
X0531Y026993D02*
Y027307D01*
X052Y028043D02*
Y028357D01*
X0484Y024993D02*
Y025307D01*
X049642Y0237D02*
X049957D01*
X05355Y025093D02*
Y025407D01*
Y026043D02*
Y026357D01*
X05355Y025593D02*
Y025907D01*
X045443Y0271D02*
X045757D01*
X037042Y0272D02*
X037357D01*
X036543Y0237D02*
X036857D01*
X050243Y01955D02*
X050557D01*
X05365Y014493D02*
Y014807D01*
X0514Y014493D02*
Y014807D01*
X0525Y023193D02*
Y023507D01*
X053243Y02385D02*
X053557D01*
X043993Y0193D02*
X044307D01*
X04275Y018343D02*
Y018657D01*
X054693Y01605D02*
X055007D01*
X04855Y0264D02*
Y0267D01*
X0484D01*
X04835Y02665D01*
Y02655D01*
X0484Y0265D01*
X04855D01*
X04845D02*
X04835Y0264D01*
X04805D02*
X04825D01*
X04805Y0266D01*
Y02665D01*
X0481Y0267D01*
X0482D01*
X04825Y02665D01*
X04795Y0264D02*
X04785D01*
X0479D01*
Y0267D01*
X04795Y02665D01*
X0463Y02978D02*
Y029505D01*
X046245Y02945D01*
X046135D01*
X04608Y029505D01*
Y02978D01*
X04575Y029725D02*
X045805Y02978D01*
X045915D01*
X04597Y029725D01*
Y02967D01*
X045915Y029615D01*
X045805D01*
X04575Y02956D01*
Y029505D01*
X045805Y02945D01*
X045915D01*
X04597Y029505D01*
X04542Y02978D02*
X04564D01*
Y02945D01*
X04542D01*
X04564Y029615D02*
X04553D01*
X04531Y02945D02*
Y02978D01*
X045145D01*
X04509Y029725D01*
Y029615D01*
X045145Y02956D01*
X04531D01*
X0452D02*
X04509Y02945D01*
X04498D02*
X04487D01*
X044925D01*
Y02978D01*
X04498Y029725D01*
X05352Y0176D02*
X053795D01*
X05385Y017545D01*
Y017435D01*
X053795Y01738D01*
X05352D01*
X053575Y01727D02*
X05352Y017215D01*
Y017105D01*
X053575Y01705D01*
X05363D01*
X053685Y017105D01*
X05374Y01705D01*
X053795D01*
X05385Y017105D01*
Y017215D01*
X053795Y01727D01*
X05374D01*
X053685Y017215D01*
X05363Y01727D01*
X053575D01*
X053685Y017215D02*
Y017105D01*
X05595Y02975D02*
X05562D01*
Y029585D01*
X055675Y02953D01*
X055785D01*
X05584Y029585D01*
Y02975D01*
Y02964D02*
X05595Y02953D01*
Y0292D02*
Y02942D01*
X05573Y0292D01*
X055675D01*
X05562Y029255D01*
Y029365D01*
X055675Y02942D01*
Y02909D02*
X05562Y029035D01*
Y028925D01*
X055675Y02887D01*
X05573D01*
X055785Y028925D01*
X05584Y02887D01*
X055895D01*
X05595Y028925D01*
Y029035D01*
X055895Y02909D01*
X05584D01*
X055785Y029035D01*
X05573Y02909D01*
X055675D01*
X055785Y029035D02*
Y028925D01*
X0549Y02975D02*
X05457D01*
Y029585D01*
X054625Y02953D01*
X054735D01*
X05479Y029585D01*
Y02975D01*
Y02964D02*
X0549Y02953D01*
Y0292D02*
Y02942D01*
X05468Y0292D01*
X054625D01*
X05457Y029255D01*
Y029365D01*
X054625Y02942D01*
X05457Y02909D02*
Y02887D01*
X054625D01*
X054845Y02909D01*
X0549D01*
X05295Y0143D02*
X05262D01*
Y014135D01*
X052675Y01408D01*
X052785D01*
X05284Y014135D01*
Y0143D01*
Y01419D02*
X05295Y01408D01*
Y01375D02*
Y01397D01*
X05273Y01375D01*
X052675D01*
X05262Y013805D01*
Y013915D01*
X052675Y01397D01*
X05262Y01342D02*
X052675Y01353D01*
X052785Y01364D01*
X052895D01*
X05295Y013585D01*
Y013475D01*
X052895Y01342D01*
X05284D01*
X052785Y013475D01*
Y01364D01*
X0524Y0143D02*
X05207D01*
Y014135D01*
X052125Y01408D01*
X052235D01*
X05229Y014135D01*
Y0143D01*
Y01419D02*
X0524Y01408D01*
Y01375D02*
Y01397D01*
X05218Y01375D01*
X052125D01*
X05207Y013805D01*
Y013915D01*
X052125Y01397D01*
X05207Y01342D02*
Y01364D01*
X052235D01*
X05218Y01353D01*
Y013475D01*
X052235Y01342D01*
X052345D01*
X0524Y013475D01*
Y013585D01*
X052345Y01364D01*
X051075Y01978D02*
X05102Y019835D01*
Y019945D01*
X051075Y02D01*
X051295D01*
X05135Y019945D01*
Y019835D01*
X051295Y01978D01*
X05135Y01945D02*
Y01967D01*
X05113Y01945D01*
X051075D01*
X05102Y019505D01*
Y019615D01*
X051075Y01967D01*
X05102Y01912D02*
Y01934D01*
X051185D01*
X05113Y01923D01*
Y019175D01*
X051185Y01912D01*
X051295D01*
X05135Y019175D01*
Y019285D01*
X051295Y01934D01*
X053525Y01408D02*
X05347Y014135D01*
Y014245D01*
X053525Y0143D01*
X053745D01*
X0538Y014245D01*
Y014135D01*
X053745Y01408D01*
X0538Y01375D02*
Y01397D01*
X05358Y01375D01*
X053525D01*
X05347Y013805D01*
Y013915D01*
X053525Y01397D01*
X0538Y01342D02*
Y01364D01*
X05358Y01342D01*
X053525D01*
X05347Y013475D01*
Y013585D01*
X053525Y01364D01*
X051125Y01408D02*
X05107Y014135D01*
Y014245D01*
X051125Y0143D01*
X051345D01*
X0514Y014245D01*
Y014135D01*
X051345Y01408D01*
X0514Y01375D02*
Y01397D01*
X05118Y01375D01*
X051125D01*
X05107Y013805D01*
Y013915D01*
X051125Y01397D01*
X0514Y01364D02*
Y01353D01*
Y013585D01*
X05107D01*
X051125Y01364D01*
X0466Y01843D02*
Y018155D01*
X046545Y0181D01*
X046435D01*
X04638Y018155D01*
Y01843D01*
X04605D02*
X04616Y018375D01*
X04627Y018265D01*
Y018155D01*
X046215Y0181D01*
X046105D01*
X04605Y018155D01*
Y01821D01*
X046105Y018265D01*
X04627D01*
X03018Y01768D02*
X03029D01*
X030235D01*
Y017405D01*
X03029Y01735D01*
X030345D01*
X0304Y017405D01*
X02985Y01768D02*
X02996Y017625D01*
X03007Y017515D01*
Y017405D01*
X030015Y01735D01*
X029905D01*
X02985Y017405D01*
Y01746D01*
X029905Y017515D01*
X03007D01*
X036625Y02268D02*
X03657Y022735D01*
Y022845D01*
X036625Y0229D01*
X036845D01*
X0369Y022845D01*
Y022735D01*
X036845Y02268D01*
X0369Y02257D02*
Y02246D01*
Y022515D01*
X03657D01*
X036625Y02257D01*
Y022295D02*
X03657Y02224D01*
Y02213D01*
X036625Y022075D01*
X03668D01*
X036735Y02213D01*
Y022185D01*
Y02213D01*
X03679Y022075D01*
X036845D01*
X0369Y02213D01*
Y02224D01*
X036845Y022295D01*
X037075Y02828D02*
X03702Y028335D01*
Y028445D01*
X037075Y0285D01*
X037295D01*
X03735Y028445D01*
Y028335D01*
X037295Y02828D01*
X03735Y02795D02*
Y02817D01*
X03713Y02795D01*
X037075D01*
X03702Y028005D01*
Y028115D01*
X037075Y02817D01*
X045475Y02793D02*
X04542Y027985D01*
Y028095D01*
X045475Y02815D01*
X045695D01*
X04575Y028095D01*
Y027985D01*
X045695Y02793D01*
X04575Y02782D02*
Y02771D01*
Y027765D01*
X04542D01*
X045475Y02782D01*
X03848Y01763D02*
X03859D01*
X038535D01*
Y017355D01*
X03859Y0173D01*
X038645D01*
X0387Y017355D01*
X03837Y01763D02*
X03815D01*
Y017575D01*
X03837Y017355D01*
Y0173D01*
X04808Y01658D02*
X04819D01*
X048135D01*
Y016305D01*
X04819Y01625D01*
X048245D01*
X0483Y016305D01*
X04797Y01625D02*
X04786D01*
X047915D01*
Y01658D01*
X04797Y016525D01*
X04435Y01968D02*
X04413Y01935D01*
Y01968D02*
X04435Y01935D01*
X0438D02*
X04402D01*
X0438Y01957D01*
Y019625D01*
X043855Y01968D01*
X043965D01*
X04402Y019625D01*
X03385Y02803D02*
Y027755D01*
X033795Y0277D01*
X033685D01*
X03363Y027755D01*
Y02803D01*
X0333D02*
X03352D01*
Y027865D01*
X03341Y02792D01*
X033355D01*
X0333Y027865D01*
Y027755D01*
X033355Y0277D01*
X033465D01*
X03352Y027755D01*
X0444Y02753D02*
Y027255D01*
X044345Y0272D01*
X044235D01*
X04418Y027255D01*
Y02753D01*
X04407Y0272D02*
X04396D01*
X044015D01*
Y02753D01*
X04407Y027475D01*
X025Y028D02*
Y02767D01*
X025165D01*
X02522Y027725D01*
Y027835D01*
X025165Y02789D01*
X025D01*
X02511D02*
X02522Y028D01*
X02555Y02767D02*
X02533D01*
Y028D01*
X02555D01*
X02533Y027835D02*
X02544D01*
X02588Y027725D02*
X025825Y02767D01*
X025715D01*
X02566Y027725D01*
Y02778D01*
X025715Y027835D01*
X025825D01*
X02588Y02789D01*
Y027945D01*
X025825Y028D01*
X025715D01*
X02566Y027945D01*
X02621Y02767D02*
X02599D01*
Y028D01*
X02621D01*
X02599Y027835D02*
X0261D01*
X02632Y02767D02*
X026539D01*
X02643D01*
Y028D01*
X02965Y02995D02*
Y03028D01*
X029485D01*
X02943Y030225D01*
Y030115D01*
X029485Y03006D01*
X02965D01*
X02954D02*
X02943Y02995D01*
X02932Y03028D02*
X0291D01*
Y030225D01*
X02932Y030005D01*
Y02995D01*
X04296Y0172D02*
Y01753D01*
X042795D01*
X04274Y017475D01*
Y017365D01*
X042795Y01731D01*
X04296D01*
X04285D02*
X04274Y0172D01*
X04241Y01753D02*
X04252Y017475D01*
X04263Y017365D01*
Y017255D01*
X042575Y0172D01*
X042465D01*
X04241Y017255D01*
Y01731D01*
X042465Y017365D01*
X04263D01*
X05895Y02645D02*
Y02667D01*
X05884Y02678D01*
X05873Y02667D01*
Y02645D01*
Y026615D01*
X05895D01*
X05862Y02645D02*
X05851D01*
X058565D01*
Y02678D01*
X05862Y026725D01*
X052032Y0274D02*
X052362D01*
Y02718D01*
Y02707D02*
Y02696D01*
Y027015D01*
X052032D01*
X052087Y02707D01*
X05165Y024D02*
X05132D01*
Y023835D01*
X051375Y02378D01*
X051485D01*
X05154Y023835D01*
Y024D01*
Y02389D02*
X05165Y02378D01*
X051375Y02367D02*
X05132Y023615D01*
Y023505D01*
X051375Y02345D01*
X05143D01*
X051485Y023505D01*
Y02356D01*
Y023505D01*
X05154Y02345D01*
X051595D01*
X05165Y023505D01*
Y023615D01*
X051595Y02367D01*
X05218Y02395D02*
X05185Y02417D01*
X05218D02*
X05185Y02395D01*
Y02428D02*
Y02439D01*
Y024335D01*
X05218D01*
X052125Y02428D01*
X0503Y02713D02*
Y026855D01*
X050245Y0268D01*
X050135D01*
X05008Y026855D01*
Y02713D01*
X04975Y0268D02*
X04997D01*
X04975Y02702D01*
Y027075D01*
X049805Y02713D01*
X049915D01*
X04997Y027075D01*
X05453Y025825D02*
X054585Y02588D01*
X054695D01*
X05475Y025825D01*
Y025605D01*
X054695Y02555D01*
X054585D01*
X05453Y025605D01*
X0542Y02588D02*
X05431Y025825D01*
X05442Y025715D01*
Y025605D01*
X054365Y02555D01*
X054255D01*
X0542Y025605D01*
Y02566D01*
X054255Y025715D01*
X05442D01*
X05453Y026275D02*
X054585Y02633D01*
X054695D01*
X05475Y026275D01*
Y026055D01*
X054695Y026D01*
X054585D01*
X05453Y026055D01*
X05442Y026275D02*
X054365Y02633D01*
X054255D01*
X0542Y026275D01*
Y02622D01*
X054255Y026165D01*
X05431D01*
X054255D01*
X0542Y02611D01*
Y026055D01*
X054255Y026D01*
X054365D01*
X05442Y026055D01*
X05453Y025325D02*
X054585Y02538D01*
X054695D01*
X05475Y025325D01*
Y025105D01*
X054695Y02505D01*
X054585D01*
X05453Y025105D01*
X054255Y02505D02*
Y02538D01*
X05442Y025215D01*
X0542D01*
X049125Y02378D02*
X04907Y023835D01*
Y023945D01*
X049125Y024D01*
X049345D01*
X0494Y023945D01*
Y023835D01*
X049345Y02378D01*
X04907Y02345D02*
Y02367D01*
X049235D01*
X04918Y02356D01*
Y023505D01*
X049235Y02345D01*
X049345D01*
X0494Y023505D01*
Y023615D01*
X049345Y02367D01*
X04838Y025825D02*
X048435Y02588D01*
X048545D01*
X0486Y025825D01*
Y025605D01*
X048545Y02555D01*
X048435D01*
X04838Y025605D01*
X04827Y02588D02*
X04805D01*
Y025825D01*
X04827Y025605D01*
Y02555D01*
X052135Y028775D02*
X05219Y02883D01*
X0523D01*
X052355Y028775D01*
Y028555D01*
X0523Y0285D01*
X05219D01*
X052135Y028555D01*
X052025D02*
X05197Y0285D01*
X05186D01*
X051805Y028555D01*
Y028775D01*
X05186Y02883D01*
X05197D01*
X052025Y028775D01*
Y02872D01*
X05197Y028665D01*
X051805D01*
X05328Y026825D02*
X053335Y02688D01*
X053445D01*
X0535Y026825D01*
Y026605D01*
X053445Y02655D01*
X053335D01*
X05328Y026605D01*
X05317Y02655D02*
X05306D01*
X053115D01*
Y02688D01*
X05317Y026825D01*
X052895D02*
X05284Y02688D01*
X05273D01*
X052675Y026825D01*
Y026605D01*
X05273Y02655D01*
X05284D01*
X052895Y026605D01*
Y026825D01*
X05438Y028075D02*
X054435Y02813D01*
X054545D01*
X0546Y028075D01*
Y027855D01*
X054545Y0278D01*
X054435D01*
X05438Y027855D01*
X05427Y0278D02*
X05416D01*
X054215D01*
Y02813D01*
X05427Y028075D01*
X053995Y0278D02*
X053885D01*
X05394D01*
Y02813D01*
X053995Y028075D01*
X05333Y028575D02*
X053385Y02863D01*
X053495D01*
X05355Y028575D01*
Y028355D01*
X053495Y0283D01*
X053385D01*
X05333Y028355D01*
X05322Y0283D02*
X05311D01*
X053165D01*
Y02863D01*
X05322Y028575D01*
X052725Y0283D02*
X052945D01*
X052725Y02852D01*
Y028575D01*
X05278Y02863D01*
X05289D01*
X052945Y028575D01*
X048725Y02208D02*
X04867Y022135D01*
Y022245D01*
X048725Y0223D01*
X048945D01*
X049Y022245D01*
Y022135D01*
X048945Y02208D01*
X049Y02197D02*
Y02186D01*
Y021915D01*
X04867D01*
X048725Y02197D01*
X04867Y021695D02*
Y021475D01*
X048725D01*
X048945Y021695D01*
X049D01*
X049825Y02255D02*
X04977Y022605D01*
Y022715D01*
X049825Y02277D01*
X050045D01*
X0501Y022715D01*
Y022605D01*
X050045Y02255D01*
X0501Y02244D02*
Y02233D01*
Y022385D01*
X04977D01*
X049825Y02244D01*
Y022165D02*
X04977Y02211D01*
Y022D01*
X049825Y021945D01*
X04988D01*
X049935Y022D01*
X04999Y021945D01*
X050045D01*
X0501Y022D01*
Y02211D01*
X050045Y022165D01*
X04999D01*
X049935Y02211D01*
X04988Y022165D01*
X049825D01*
X049935Y02211D02*
Y022D01*
X0463Y03053D02*
Y030255D01*
X046245Y0302D01*
X046135D01*
X04608Y030255D01*
Y03053D01*
X04575Y030475D02*
X045805Y03053D01*
X045915D01*
X04597Y030475D01*
Y03042D01*
X045915Y030365D01*
X045805D01*
X04575Y03031D01*
Y030255D01*
X045805Y0302D01*
X045915D01*
X04597Y030255D01*
X04542Y03053D02*
X04564D01*
Y0302D01*
X04542D01*
X04564Y030365D02*
X04553D01*
X04531Y0302D02*
Y03053D01*
X045145D01*
X04509Y030475D01*
Y030365D01*
X045145Y03031D01*
X04531D01*
X0452D02*
X04509Y0302D01*
X04476D02*
X04498D01*
X04476Y03042D01*
Y030475D01*
X044815Y03053D01*
X044925D01*
X04498Y030475D01*
X05015Y02945D02*
Y02978D01*
X049985D01*
X04993Y029725D01*
Y029615D01*
X049985Y02956D01*
X05015D01*
X05004D02*
X04993Y02945D01*
X04982D02*
X04971D01*
X049765D01*
Y02978D01*
X04982Y029725D01*
X049545Y029505D02*
X04949Y02945D01*
X04938D01*
X049325Y029505D01*
Y029725D01*
X04938Y02978D01*
X04949D01*
X049545Y029725D01*
Y02967D01*
X04949Y029615D01*
X049325D01*
X05015Y0302D02*
Y03053D01*
X049985D01*
X04993Y030475D01*
Y030365D01*
X049985Y03031D01*
X05015D01*
X05004D02*
X04993Y0302D01*
X0496D02*
X04982D01*
X0496Y03042D01*
Y030475D01*
X049655Y03053D01*
X049765D01*
X04982Y030475D01*
X04949D02*
X049435Y03053D01*
X049325D01*
X04927Y030475D01*
Y030255D01*
X049325Y0302D01*
X049435D01*
X04949Y030255D01*
Y030475D01*
X05413Y01628D02*
X05408Y01633D01*
Y01643D01*
X05413Y01648D01*
X05433D01*
X05438Y01643D01*
Y01633D01*
X05433Y01628D01*
X05438Y01598D02*
Y01618D01*
X05418Y01598D01*
X05413D01*
X05408Y01603D01*
Y01613D01*
X05413Y01618D01*
X05408Y01588D02*
Y01568D01*
X05413D01*
X05433Y01588D01*
X05438D01*
X0419Y0187D02*
X04185Y01875D01*
Y01885D01*
X0419Y0189D01*
X0421D01*
X04215Y01885D01*
Y01875D01*
X0421Y0187D01*
X0419Y0186D02*
X04185Y01855D01*
Y01845D01*
X0419Y0184D01*
X04195D01*
X042Y01845D01*
Y0185D01*
Y01845D01*
X04205Y0184D01*
X0421D01*
X04215Y01845D01*
Y01855D01*
X0421Y0186D01*
X0419Y0183D02*
X04185Y01825D01*
Y01815D01*
X0419Y0181D01*
X0421D01*
X04215Y01815D01*
Y01825D01*
X0421Y0183D01*
X0419D01*
X0446Y0195D02*
X04455Y01955D01*
Y01965D01*
X0446Y0197D01*
X0448D01*
X04485Y01965D01*
Y01955D01*
X0448Y0195D01*
X0446Y0194D02*
X04455Y01935D01*
Y01925D01*
X0446Y0192D01*
X04465D01*
X0447Y01925D01*
Y0193D01*
Y01925D01*
X04475Y0192D01*
X0448D01*
X04485Y01925D01*
Y01935D01*
X0448Y0194D01*
X04485Y0191D02*
Y019D01*
Y01905D01*
X04455D01*
X0446Y0191D01*
X05395Y02405D02*
X0539Y0241D01*
Y0242D01*
X05395Y02425D01*
X05415D01*
X0542Y0242D01*
Y0241D01*
X05415Y02405D01*
X05395Y02395D02*
X0539Y0239D01*
Y0238D01*
X05395Y02375D01*
X054D01*
X05405Y0238D01*
Y02385D01*
Y0238D01*
X0541Y02375D01*
X05415D01*
X0542Y0238D01*
Y0239D01*
X05415Y02395D01*
X0542Y02345D02*
Y02365D01*
X054Y02345D01*
X05395D01*
X0539Y0235D01*
Y0236D01*
X05395Y02365D01*
X0527Y02295D02*
X05275Y023D01*
X05285D01*
X0529Y02295D01*
Y02275D01*
X05285Y0227D01*
X05275D01*
X0527Y02275D01*
X0526Y02295D02*
X05255Y023D01*
X05245D01*
X0524Y02295D01*
Y0229D01*
X05245Y02285D01*
X0525D01*
X05245D01*
X0524Y0228D01*
Y02275D01*
X05245Y0227D01*
X05255D01*
X0526Y02275D01*
X0523Y02295D02*
X05225Y023D01*
X05215D01*
X0521Y02295D01*
Y0229D01*
X05215Y02285D01*
X0522D01*
X05215D01*
X0521Y0228D01*
Y02275D01*
X05215Y0227D01*
X05225D01*
X0523Y02275D01*
D45*
X0477Y03005D02*
Y0301D01*
X0468Y03005D02*
X0477D01*
X0468D02*
Y0301D01*
X0477Y0307D02*
Y03075D01*
X0468D02*
X0477D01*
X0468Y0307D02*
Y03075D01*
X0523Y02443D02*
Y02455D01*
X053D01*
Y02443D02*
Y02455D01*
X0523Y0237D02*
Y02443D01*
Y0237D02*
X053D01*
Y02443D01*
X0468Y0299D02*
Y02995D01*
X0477D01*
Y0299D02*
Y02995D01*
X0468Y02925D02*
Y0293D01*
Y02925D02*
X0477D01*
Y0293D01*
D46*
X05199Y026676D02*
G03*
X052256Y02641I000266J0D01*
G01*
X048121Y025862D02*
X048279D01*
X048121Y026138D02*
X048279D01*
X048571Y030538D02*
X048729D01*
X048571Y030262D02*
X048729D01*
X048571Y029738D02*
X048729D01*
X048571Y029462D02*
X048729D01*
X053562Y030371D02*
Y030529D01*
X053838Y030371D02*
Y030529D01*
X052256Y02641D02*
Y026676D01*
X05199D02*
X052256D01*
X051138Y023621D02*
Y023779D01*
X050862Y023621D02*
Y023779D01*
X051808Y02768D02*
Y02772D01*
X042631Y018088D02*
X042789D01*
X042631Y017812D02*
X042789D01*
X029321Y029362D02*
X029479D01*
X029321Y029638D02*
X029479D01*
X043461Y021639D02*
Y026561D01*
X038539Y021639D02*
Y026561D01*
X043461D01*
X038539Y021639D02*
X043461D01*
X0387Y016975D02*
X0417D01*
X0387Y0154D02*
Y016975D01*
Y0154D02*
X0417D01*
Y016975D01*
X0305Y01697D02*
X0355D01*
X0305Y015396D02*
Y01697D01*
Y015396D02*
X0355D01*
Y01697D01*
X052938Y014871D02*
Y015029D01*
X052662Y014871D02*
Y015029D01*
X052388Y014871D02*
Y015029D01*
X052112Y014871D02*
Y015029D01*
X049787Y017724D02*
X053213D01*
X049787Y017016D02*
X053213D01*
X049787D02*
Y017724D01*
X053213Y017016D02*
Y017724D01*
X054888Y030371D02*
Y030529D01*
X054612Y030371D02*
Y030529D01*
X055888Y030371D02*
Y030529D01*
X055612Y030371D02*
Y030529D01*
D77*
X052609Y02622D02*
G03*
X052609Y02622I-000049J0D01*
G01*
X044022Y026738D02*
G03*
X044022Y026738I-000049J0D01*
G01*
X050129Y018305D02*
G03*
X050129Y018305I-000049J0D01*
G01*
D78*
X043185Y026167D02*
G03*
X043185Y026167I-000118J0D01*
G01*
X041775Y019286D02*
G03*
X041775Y019286I-000079J0D01*
G01*
X035575Y019282D02*
G03*
X035575Y019282I-000079J0D01*
G01*
D79*
X050181Y017409D02*
G03*
X050181Y017409I-000079J0D01*
G01*
D80*
X04225Y019D02*
X04351D01*
X04225D02*
Y01998D01*
X04351D01*
X04351Y019D02*
Y01998D01*
D81*
X041086Y013313D02*
Y0154D01*
X041283Y013313D02*
Y0154D01*
X041086Y013136D02*
X041184Y013038D01*
X041086Y013136D02*
Y013313D01*
X041283Y013136D02*
Y013313D01*
X041184Y013038D02*
X041283Y013136D01*
X040184Y013038D02*
X040283Y013136D01*
Y013313D01*
X040086Y013136D02*
Y013313D01*
Y013136D02*
X040184Y013038D01*
X040283Y013313D02*
Y0154D01*
X040086Y013313D02*
Y0154D01*
X039184Y013038D02*
X039283Y013136D01*
Y013313D01*
X039086Y013136D02*
Y013313D01*
Y013136D02*
X039184Y013038D01*
X039283Y013313D02*
Y0154D01*
X039086Y013313D02*
Y0154D01*
X031886Y013309D02*
Y015396D01*
X032083Y013309D02*
Y015396D01*
X031886Y013132D02*
X031984Y013033D01*
X031886Y013132D02*
Y013309D01*
X032083Y013132D02*
Y013309D01*
X031984Y013033D02*
X032083Y013132D01*
X034886Y013309D02*
Y015396D01*
X035083Y013309D02*
Y015396D01*
X034886Y013132D02*
X034984Y013033D01*
X034886Y013132D02*
Y013309D01*
X035083Y013132D02*
Y013309D01*
X034984Y013033D02*
X035083Y013132D01*
X033984Y013033D02*
X034083Y013132D01*
Y013309D01*
X033886Y013132D02*
Y013309D01*
Y013132D02*
X033984Y013033D01*
X034083Y013309D02*
Y015396D01*
X033886Y013309D02*
Y015396D01*
X032984Y013033D02*
X033083Y013132D01*
Y013309D01*
X032886Y013132D02*
Y013309D01*
Y013132D02*
X032984Y013033D01*
X033083Y013309D02*
Y015396D01*
X032886Y013309D02*
Y015396D01*
X030984Y013033D02*
X031083Y013132D01*
Y013309D01*
X030886Y013132D02*
Y013309D01*
Y013132D02*
X030984Y013033D01*
X031083Y013309D02*
Y015396D01*
X030886Y013309D02*
Y015396D01*
D82*
X04565Y0174D02*
Y01785D01*
X0469D01*
Y0174D02*
Y01785D01*
X04565Y0174D02*
X0469D01*
M02*
